<?xml version="1.0" encoding="iso-8859-1"?>
<!-- Generator: Adobe Illustrator 19.0.0, SVG Export Plug-In . SVG Version: 6.00 Build 0)  -->
<svg version="1.1" id="Capa_1" xmlns="http://www.w3.org/2000/svg" xmlns:xlink="http://www.w3.org/1999/xlink" x="0px" y="0px"
	 viewBox="0 0 421.881 421.881" style="enable-background:new 0 0 421.881 421.881;" xml:space="preserve">
<g>
	<g>
		<path d="M162.239,64.424c-1.868-1.514-4.243-2.257-6.64-2.08h-36.24l33.84-37.84l3.2-3.52l2.08-2.32
			c0.568-0.816,1.025-1.704,1.36-2.64c0.407-0.991,0.624-2.049,0.64-3.12c0.232-2.483-0.982-4.878-3.12-6.16
			c-2.825-1.315-5.928-1.919-9.04-1.76h-42.56c-2.244-0.137-4.461,0.545-6.24,1.92c-1.479,1.248-2.304,3.106-2.24,5.04
			c0,2.88,0.96,4.667,2.88,5.36c2.807,0.8,5.723,1.151,8.64,1.04h27.52c-1.12,1.6-2.613,3.493-4.48,5.68l-7.04,8l-9.6,10.64
			l-11.04,12.24c-3.84,4.267-6.373,7.2-7.6,8.8c-1.125,1.354-1.771,3.041-1.84,4.8c-0.112,2.396,0.857,4.716,2.64,6.32
			c2.389,1.628,5.296,2.312,8.16,1.92h50.08c2.384,0.169,4.746-0.543,6.64-2c1.46-1.263,2.281-3.11,2.24-5.04
			C164.536,67.702,163.718,65.774,162.239,64.424z"/>
	</g>
</g>
<g>
	<g>
		<path d="M238.159,107.704c-1.482-1.212-3.37-1.812-5.28-1.68h-28.96l27.04-30.24l2.56-2.8l1.6-2c0.464-0.641,0.84-1.34,1.12-2.08
			c0.31-0.79,0.473-1.631,0.48-2.48c0.218-1.997-0.752-3.936-2.48-4.96c-2.254-1.031-4.725-1.497-7.2-1.36h-34
			c-1.782-0.105-3.543,0.435-4.96,1.52c-1.187,1.014-1.837,2.521-1.76,4.08c0,2.293,0.773,3.707,2.32,4.24
			c2.237,0.627,4.559,0.897,6.88,0.8h21.92c-0.88,1.28-2.08,2.8-3.6,4.56l-5.68,6.48l-7.36,8l-8.8,9.76
			c-3.04,3.413-5.067,5.76-6.08,7.04c-0.899,1.081-1.406,2.434-1.44,3.84c-0.093,1.906,0.67,3.754,2.08,5.04
			c1.745,1.461,3.966,2.229,6.24,2.16v0h40c1.921,0.129,3.824-0.439,5.36-1.6c1.167-1.028,1.813-2.525,1.76-4.08
			C239.975,110.342,239.333,108.795,238.159,107.704z"/>
	</g>
</g>
<g>
	<g>
		<path d="M327.919,59.624c-1.872-1.506-4.243-2.249-6.64-2.08h-36.24l33.84-37.84l3.2-3.52c0.853-0.96,1.52-1.787,2-2.48
			c0.571-0.814,1.029-1.702,1.36-2.64c0.407-0.991,0.624-2.049,0.64-3.12c0.281-2.433-0.833-4.816-2.88-6.16
			c-2.826-1.311-5.929-1.915-9.04-1.76h-42.72c-2.244-0.137-4.461,0.545-6.24,1.92c-1.44,1.271-2.233,3.121-2.16,5.04
			c0,2.88,0.96,4.667,2.88,5.36c2.807,0.8,5.723,1.151,8.64,1.04h27.52c-1.12,1.6-2.64,3.44-4.48,5.68l-7.04,8l-9.28,10.24
			l-11.04,12.24c-3.84,4.267-6.373,7.2-7.6,8.8c-2.733,3.3-2.38,8.168,0.8,11.04c2.191,1.766,4.948,2.676,7.76,2.56h50.08
			c2.384,0.169,4.746-0.543,6.64-2c1.46-1.263,2.281-3.11,2.24-5.04C330.206,62.904,329.39,60.98,327.919,59.624z"/>
	</g>
</g>
<g>
	<g>
		<path d="M316.399,410.344l-24-50.16c47.629-44.739,49.972-119.619,5.232-167.248c-22.41-23.857-53.701-37.365-86.432-37.312v0
			c-65.346-0.145-118.437,52.711-118.582,118.057c-0.072,32.675,13.37,63.925,37.142,86.343l-23.44,49.84
			c-1.953,3.963-0.323,8.759,3.641,10.712c3.963,1.953,8.759,0.323,10.712-3.641c0.044-0.09,0.087-0.18,0.127-0.271l21.68-46
			c41.088,29.609,96.512,29.609,137.6,0l21.84,46.48c1.803,4.034,6.535,5.842,10.568,4.039c4.034-1.803,5.842-6.535,4.039-10.568
			C316.485,410.524,316.443,410.433,316.399,410.344z M266.799,341.304c-3.402,2.828-8.452,2.362-11.28-1.04l-50.48-60.96
			c-1.21-1.46-1.863-3.303-1.84-5.2v-64c0-4.418,3.582-8,8-8s8,3.582,8,8v61.12l48.64,58.8
			C270.666,333.426,270.201,338.476,266.799,341.304z"/>
	</g>
</g>
<g>
	<g>
		<path d="M169.439,145.704c-19.826-30.165-60.352-38.547-90.517-18.722c-30.165,19.826-38.547,60.352-18.722,90.517
			c4.24,6.451,9.589,12.1,15.799,16.684c3.537,2.648,8.551,1.927,11.199-1.61c2.645-3.533,1.929-8.539-1.599-11.19
			c-12.442-9.283-19.743-23.917-19.68-39.44c0.21-27.26,22.479-49.188,49.739-48.978c16.249,0.125,31.395,8.24,40.501,21.698
			c2.474,3.667,7.453,4.634,11.12,2.16S171.913,149.371,169.439,145.704z"/>
	</g>
</g>
<g>
	<g>
		<path d="M359.386,142.771c-12.313-16.446-31.643-26.145-52.187-26.187c-21.928-0.022-42.399,10.98-54.48,29.28
			c-2.772,3.441-2.229,8.477,1.212,11.249c3.441,2.772,8.477,2.229,11.249-1.212c0.311-0.386,0.585-0.8,0.82-1.237
			c15.01-22.757,45.625-29.037,68.382-14.027c22.757,15.01,29.037,45.625,14.027,68.382c-3.168,4.803-7.151,9.014-11.769,12.445
			c-3.532,2.654-4.244,7.669-1.59,11.201c2.651,3.528,7.658,4.243,11.19,1.599C375.134,212.629,381.02,171.666,359.386,142.771z"/>
	</g>
</g>
<g>
</g>
<g>
</g>
<g>
</g>
<g>
</g>
<g>
</g>
<g>
</g>
<g>
</g>
<g>
</g>
<g>
</g>
<g>
</g>
<g>
</g>
<g>
</g>
<g>
</g>
<g>
</g>
<g>
</g>
</svg>
