<svg height="644pt" viewBox="-22 -20 644 644.00146" width="644pt" xmlns="http://www.w3.org/2000/svg"><path d="m299.832031 123.871094c-33.125 0-59.984375-26.859375-59.984375-59.984375 0-33.132813 26.859375-59.984375 59.984375-59.984375 33.132813 0 59.984375 26.851562 59.984375 59.984375-.027344 33.109375-26.867187 59.949219-59.984375 59.984375zm0-99.976563c-22.082031 0-39.988281 17.902344-39.988281 39.992188 0 22.082031 17.90625 39.988281 39.988281 39.988281 22.089844 0 39.992188-17.90625 39.992188-39.988281 0-22.089844-17.902344-39.992188-39.992188-39.992188zm0 0"/><path d="m429.800781 543.765625v-39.988281h-49.988281v-275.792969l138.761719-138.75c19.472656-19.539063 19.472656-51.152344 0-70.699219l-18.5625-18.535156-145.488281 135.796875c-5.546876 5.195313-12.859376 8.078125-20.457032 8.070313h-68.464844c-7.59375.007812-14.90625-2.875-20.453124-8.070313l-145.496094-135.796875-18.554688 18.535156c-19.472656 19.546875-19.472656 51.160156 0 70.699219l138.753906 138.75v275.792969h-49.984374v39.988281h-169.960938v59.984375h19.996094v-39.988281h149.964844v39.988281h19.992187v-79.980469h219.945313v79.980469h19.996093v-39.988281h149.960938v39.988281h19.996093v-59.984375zm-334.566406-468.664063c-11.683594-11.730468-11.683594-30.703124 0-42.429687l4.878906-4.882813 131.386719 122.621094c9.246094 8.65625 21.441406 13.464844 34.101562 13.449219h68.464844c12.664063.015625 24.859375-4.792969 34.097656-13.449219l131.390626-122.621094 4.878906 4.882813c11.6875 11.726563 11.6875 30.699219 0 42.429687l-144.617188 144.605469v284.070313h-49.984375v-159.960938h-19.996093v159.960938h-49.988282v-284.070313zm0 0"/></svg>