<?xml version="1.0" encoding="UTF-8"?>
<svg id="Layer_2" data-name="Layer 2" xmlns="http://www.w3.org/2000/svg" viewBox="0 0 74 74">
  <defs>
    <style>
      .cls-1 {
        fill: #fefefd;
      }

      .cls-2 {
        fill: #333940;
      }

      .cls-3 {
        fill: #fd6a16;
        stroke: #c33;
        stroke-miterlimit: 10;
        stroke-width: 2px;
      }
    </style>
  </defs>
  <g id="Layer_1-2" data-name="Layer 1">
    <g>
      <circle class="cls-3" cx="37" cy="37" r="36"/>
      <g>
        <path class="cls-2" d="M16.91,34.42c0-.64,0-1.29,.02-1.93,.03-1.49,.69-2.59,2.07-3.16,1.36-.56,2.59-.25,3.64,.77,.07,.07,.12,.18,.32,.18,0-.33,0-.66,0-.99,0-1.68,.89-2.97,2.34-3.42,1.46-.45,2.89,.1,3.85,1.48,.04,.04,.09,.08,.13,.11,0,0-.01,0-.01,0,.32,.81,.35,1.66,.34,2.52-.02,1.48,0,2.96,.01,4.44-.01,1.05-.02,2.1-.04,3.15-2.21,0-4.42,.01-6.63,.02-2,0-4-.01-6-.02-.01-1.05-.03-2.1-.04-3.16Z"/>
        <path class="cls-2" d="M57.51,31.11c.36,1.08,.17,2.21,.24,3.31-.01,1.05-.03,2.1-.04,3.16-2,0-4,.01-6,.02-2.21,0-4.42,0-6.63-.01-.01-1.05-.02-2.1-.04-3.15,0-1.65,.01-3.29,.02-4.94,0-1.84,.78-3.09,2.24-3.59,1.48-.51,2.84-.01,3.96,1.44,.03,.06,.05,.12,.13,.12,0,0-.03,0-.03,0,.35,.9,.35,1.86,.35,2.93,.49-.54,.96-.88,1.5-1.13,1.99-.5,3.19,.01,4.29,1.84Z"/>
        <path class="cls-1" d="M45.05,34.43c.01,1.05,.02,2.1,.04,3.15-.01,1.06-.03,2.12-.04,3.18-5.14,0-10.29,0-15.43,0-.01-1.06-.03-2.12-.04-3.18,.01-1.05,.02-2.1,.04-3.15,2.18,0,4.36-.01,6.54-.02,2.97,0,5.93,.01,8.9,.02Z"/>
        <path class="cls-2" d="M16.94,37.58c2,0,4,.01,6,.02,0,2.4,0,4.8-.01,7.2-.81,.85-1.75,1.38-2.98,1.29-.38-.03-.72-.19-1.09-.24,0,0,0,.01,0,.01-.04-.11-.14-.11-.22-.14-.95-.6-1.53-1.45-1.73-2.56,0-.8,0-1.6,0-2.4,.02-1.06,.03-2.12,.05-3.18Z"/>
        <path class="cls-1" d="M16.94,37.58c-.02,1.06-.03,2.12-.05,3.18-.78,0-1.56,.02-2.34,.03-.15-.12-.1-.3-.1-.45,0-1.81,.01-3.62,0-5.43,0-.38,.1-.49,.48-.48,.66,.03,1.32,0,1.99,0,.01,1.05,.03,2.1,.04,3.16Z"/>
        <path class="cls-2" d="M45.05,40.76c.01-1.06,.03-2.12,.04-3.18,2.21,0,4.42,0,6.63,.01,0,2.4,0,4.8,.01,7.21,0,.07-.02,.14-.03,.21-.17,.54-.05,1.09-.07,1.63-.14,1.38-1.42,2.64-2.79,2.77-1.73,.16-3.21-.8-3.66-2.39-.09-.31-.12-.63-.12-.95,0-1.77-.01-3.54-.02-5.31Z"/>
        <path class="cls-2" d="M22.93,44.8c0-2.4,0-4.8,.01-7.2,2.21,0,4.42-.01,6.63-.02,.01,1.06,.03,2.12,.04,3.18,0,1.79-.01,3.58-.02,5.36,0,1.63-1.2,3.05-2.76,3.28-1.65,.25-3.17-.67-3.71-2.23-.06-.17-.1-.34-.09-.52-.02-.58,.1-1.17-.07-1.75-.01-.03-.02-.07-.02-.1Z"/>
        <path class="cls-2" d="M51.73,44.8c0-2.4,0-4.8-.01-7.21,2,0,4-.01,6-.02,.02,1.06,.03,2.12,.05,3.18-.02,.84,.05,1.69-.07,2.51-.19,1.32-.98,2.26-2.27,2.66-1.3,.4-2.46,.1-3.43-.88-.09-.09-.18-.16-.27-.25Z"/>
        <path class="cls-1" d="M57.77,40.76c-.02-1.06-.03-2.12-.05-3.18,.01-1.05,.03-2.1,.04-3.16,.7,0,1.4,.01,2.09,0,.28,0,.37,.08,.37,.36-.01,1.87-.01,3.73,0,5.6,0,.33-.14,.38-.41,.38-.68-.01-1.36,0-2.04,0Z"/>
      </g>
    </g>
  </g>
</svg>