<?xml version="1.0" encoding="UTF-8"?>
<svg id="Layer_2" data-name="Layer 2" xmlns="http://www.w3.org/2000/svg" viewBox="0 0 92.5 92.5">
  <defs>
    <style>
      .cls-1 {
        fill: #fcf8f1;
      }

      .cls-2 {
        fill: #382c5e;
      }
    </style>
  </defs>
  <g id="Layer_1-2" data-name="Layer 1">
    <circle class="cls-2" cx="46.25" cy="46.25" r="46.25"/>
    <path class="cls-1" d="M70.76,43.26c0-.31-.1-.4-.39-.39-.75,.02-1.5,0-2.24,0-.08-1.18,.13-2.38-.26-3.54-1.18-1.96-2.47-2.52-4.6-1.98-.57,.27-1.08,.64-1.6,1.22,0-1.14,0-2.17-.38-3.14,0,0,.03,0,.03,0-.09,0-.12-.06-.14-.13-1.2-1.56-2.66-2.09-4.24-1.55-1.56,.54-2.39,1.87-2.4,3.84,0,1.76-.01,3.52-.02,5.29-3.18,0-6.36-.01-9.53-.02-2.33,0-4.67,.01-7,.02,0-1.59-.03-3.17-.01-4.76,0-.92-.03-1.83-.37-2.7,0,0,.01,0,.01,0-.05-.04-.09-.08-.14-.12-1.03-1.48-2.57-2.07-4.13-1.58-1.55,.48-2.49,1.86-2.5,3.66,0,.35,0,.71,0,1.06-.21,0-.26-.11-.34-.19-1.13-1.1-2.45-1.43-3.9-.83-1.47,.61-2.19,1.79-2.22,3.39-.01,.69-.01,1.38-.02,2.07h0c-.71,0-1.42,.03-2.13,0-.4-.02-.52,.11-.51,.51,.02,1.94,0,3.88,0,5.82,0,.17-.05,.35,.11,.48,.84,0,1.67-.02,2.51-.03,0,.86,0,1.72,0,2.57,.22,1.19,.84,2.09,1.86,2.74,.09,.03,.2,.03,.24,.15,0,0,0-.02,0-.02,.39,.06,.76,.23,1.17,.26,1.31,.1,2.32-.46,3.19-1.38,0,.04,0,.07,.02,.11,.18,.62,.06,1.25,.08,1.87,0,.19,.04,.38,.1,.56,.58,1.67,2.21,2.66,3.98,2.39,1.67-.25,2.94-1.77,2.95-3.51,.01-1.91,.02-3.83,.02-5.74h16.53c0,1.9,.02,3.79,.02,5.69,0,.35,.03,.69,.13,1.02,.48,1.7,2.06,2.73,3.92,2.56,1.47-.14,2.83-1.49,2.99-2.96,.03-.58-.11-1.17,.08-1.75,0-.07,.02-.15,.03-.23,.1,.09,.2,.17,.29,.26,1.03,1.06,2.28,1.38,3.67,.95,1.37-.43,2.22-1.43,2.43-2.85,.13-.88,.05-1.79,.07-2.69,.73,0,1.46-.01,2.19,0,.3,0,.45-.05,.44-.4-.02-2-.02-4,0-5.99Z"/>
  </g>
</svg>