<?xml version="1.0" encoding="UTF-8"?>
<svg id="Layer_2" data-name="Layer 2" xmlns="http://www.w3.org/2000/svg" viewBox="0 0 342 507">
  <defs>
    <style>
      .cls-1 {
        fill: none;
      }

      .cls-2 {
        fill: #fcfcfd;
      }

      .cls-3 {
        fill: #fd792e;
      }

      .cls-4 {
        fill: #382c5e;
      }
    </style>
  </defs>
  <g id="Layer_1-2" data-name="Layer 1">
    <g>
      <path class="cls-3" d="M66.41,188.66c6.45-.62,12.81-.4,18.72,2.63,3.43,1.76,5.29,4.63,5.45,8.6,.19,4.5-1.28,8.51-3.43,12.33-3.78,6.73-9.11,12.25-14.11,18.03-.94,1.08-3.01,2.51-2.37,3.33,.93,1.18,2.45-.64,3.69-1.15,11.06-4.54,21.53-10.43,32.82-14.43,3.2-1.13,6.35-2.48,9.74-3,0,15.3-.05,30.61,.06,45.91,.01,1.95-.58,2.11-2.23,2.11-38.07-.05-76.14-.04-114.21-.04-.28-1.65,.63-3.43-.5-5v-1c1.03-1.05,.17-2.43,.62-3.58,.74-.07,1.49-.16,2.23-.2,16.15-.84,31.69-4.48,46.84-10.02,1.37-.5,2.48-1.11,3.16-2.55,1.73-3.68,3.58-7.31,5.43-10.93,3.51-6.88,6.84-13.86,9.85-20.97,.25-.58,.9-1.22,.5-1.81-.49-.72-1.19,.06-1.81,.08-2,.07-3.8,1.28-5.85,.98,.35-.46,.72-.9,1.03-1.38,3.58-5.45,6.21-11.14,4.34-17.91Z"/>
      <path class="cls-3" d="M24.36,142.98c-.07-1-.91-.79-1.48-.91-7.15-1.43-14.38-1.47-21.62-1.11-.1,0-.17,.36-.26,.56,0-.17,0-.33,0-.5,1.09,.09,.54-.72,.55-1.13,.06-2.14,.05-4.29,.07-6.44,6.66-2.29,13.61-2.7,20.54-3.21,4.08,.21,8.19,.18,12.24,.68,11.09,1.37,21.56,4.26,28.95,13.74,.93,4.97-1.43,7.7-6.53,7.88-2.18,.08-4.19-1.17-6.38-.58-.46-.62-1.1-.94-1.79-1.24-3.43-1.51-6.76-3.33-10.3-4.53-4.53-1.54-8.97-3.75-13.99-3.21Z"/>
      <path class="cls-3" d="M16.71,234.52c-4.11,3.52-8.17,7.11-12.37,10.52-1.24,1-1.74,2.92-3.69,3.04-.29-1.69,.75-3.53-.59-5.1v-6c1.08-2.33,.99-4.66,0-7v-2c.19,.4,.44,.45,.77,.16,.54-.45,1.09-.91,1.63-1.36,.63,.65,1.25,1.31,1.89,1.96,3.41,3.44,7.24,5.98,12.36,5.78Z"/>
      <path class="cls-3" d="M.06,229.98c.99,2.33,1.08,4.66,0,7v-7Z"/>
      <path class="cls-3" d="M.06,242.97c1.34,1.57,.3,3.41,.59,5.1-.2-.04-.39-.07-.59-.11,0-1.67,0-3.33,0-5Z"/>
      <path class="cls-2" d="M.06,257.97c1.13,1.57,.22,3.34,.5,5-1.05-1.58-.26-3.34-.5-5Z"/>
      <path class="cls-3" d="M.83,228.14c-.33,.29-.59,.24-.77-.16,0-.17,0-.33,0-.5,.26,.22,.51,.44,.77,.66Z"/>
      <path class="cls-4" d="M.06,248.97c.55,.17,.31,.33,0,.5v-.5Z"/>
      <path class="cls-4" d="M63.34,144.67c-7.5-9.48-18.13-12.37-29.38-13.74-4.11-.5-8.28-.47-12.42-.68,1.12-3.95,4.08-6.14,7.59-7.64,2.93-1.25,6.09-1.65,9.28-1.67,1.58,0,3.16-.08,4.74-.02,6.78,.25,12.71-1.68,17.87-6.27,4.14-3.68,8.88-6.14,14.77-5.26,2.75,.41,5.05,1.69,7.18,3.28,3.23,2.41,6.71,4.25,10.52,5.59,4.37,1.53,6.47,4.59,6,8.39-.44,3.62-3.09,5.42-5.97,6.99,.19-1.9,.4-3.79,.55-5.69,.06-.76,.14-1.62-1.14-1.13-2.65,1-5.24,.61-7.72-.56-1.03-.48-1.87-.38-2.18,.69-.64,2.23-2.55,3.07-4.24,4.14-1.06,.67-2.19,1.61-3.57,.57-1.28-.97-2.05-2.22-1.61-3.86,.6-2.22-.86-2.19-2.23-2.04-2.43,.26-4.29,2.58-4.28,5.06,0,1.46,.65,2.7,1.2,3.97,2.47,5.68,1.93,7.72-2.96,10.97-.67-.36-1.33-.73-2-1.09Z"/>
      <path class="cls-3" d="M81.59,159.7c3.39,3.91,7.28,7.29,11.43,10.36,1.9,1.41,4.6,.43,5.49-2.3,1.25-3.81,3.1-7.4,3.65-11.51,.38-2.84-.01-5.07-1.88-7.06-.66-.71-1.08-1.39-.45-2.12,.5-.58,1.32-.6,2.05-.08,.36,.26,.76,.78,1.28,.26,.35-.36,.07-.75-.05-1.15-1.04-3.32-.65-3.62,2.61-4.01,1.61-.19,1.69,.35,2.73,1.36,4.37,4.27,1.73,9.02,1.51,13.44-.29,5.95-1.36,11.87-2.17,17.79-1.15,8.36-8.27,12.44-16.08,9.34-7.22-2.86-13-7.66-18.15-13.31-.31-.34-1.21-.6-.58-1.35,3.54-4.23,3.78-9.12,2.91-14.25,1.9,1.53,3.8,3.06,5.7,4.59Z"/>
      <path class="cls-3" d="M65.34,145.76c4.89-3.25,5.43-5.28,2.96-10.97-.55-1.27-1.19-2.51-1.2-3.97-.01-2.47,1.85-4.8,4.28-5.06,1.37-.14,2.83-.17,2.23,2.04-.45,1.65,.32,2.89,1.61,3.86,1.38,1.04,2.5,.1,3.57-.57,1.69-1.07,3.6-1.91,4.24-4.14,.31-1.07,1.15-1.18,2.18-.69,2.49,1.16,5.07,1.55,7.72,.56,1.29-.48,1.21,.37,1.14,1.13-.16,1.9-.37,3.79-.55,5.69-1.32,4.23-2.88,8.32-6.52,11.19-2.53,2.11-5.57,3.01-8.61,2.11-2.82-.83-3.36,.45-3.95,2.58-.38,1.39-.65,2.7-.19,4.09-.48,1.32-.78,2.99-2.51,3.03-1.59,.04-2.73-1.14-3.52-2.46-1.56-2.6-2.4-5.46-2.88-8.43Z"/>
      <path class="cls-4" d="M23.77,142.98c5.09-.53,9.6,1.67,14.2,3.21,3.59,1.2,6.97,3.02,10.45,4.53,.7,.3,1.36,.62,1.82,1.24-.42,3.28-2.69,5.53-4.49,8.03-1.05,1.45-2.54,2.61-3.02,4.45-1.64,.79-2.04,2.76-3.51,3.71-.76-.49-1.49-1.05-2.29-1.47-4.51-2.39-7.33-5.99-7.47-11.18-.14-5.04-2.39-8.98-5.69-12.52Z"/>
      <path class="cls-3" d="M39.22,168.16c1.48-.95,1.87-2.92,3.51-3.71,3.72,7.3,9.56,12.01,17.71,14.12-2.9,4-6.83,6.61-9.75,10.18-.79-.44-1.35-1.1-1.97-1.74-4.46-4.64-9.56-8.4-15.62-10.74,1.89-2.82,4.48-5.1,6.11-8.11Z"/>
      <path class="cls-4" d="M74.25,153.62c-.45-1.39-.19-2.7,.19-4.09,.59-2.12,1.13-3.4,3.95-2.58,3.04,.89,6.08,0,8.61-2.11,.97,.63,.41,1.47,.3,2.25-.67,4.76-3.35,8.62-5.71,12.62-1.9-1.53-3.8-3.06-5.7-4.59-.5-.55-.76-1.37-1.64-1.5Z"/>
      <rect class="cls-3" y="258" width="342" height="248"/>
      <path class="cls-3" d="M112,216c25.21-8.58,61.98-21.15,112.34-21.91,11.28-.17,25.36,0,25.36,0,30.62,0,43.42,3.58,69.99,3.17,9.79-.15,17.68-.69,22.31-1.06v88.79H58.52l53.48-69Z"/>
      <rect class="cls-1" x="1" width="341" height="507" rx="25.37" ry="25.37"/>
      <rect class="cls-1" x="3" width="333" height="506"/>
      <rect class="cls-3" x="0" y="253" width="19" height="9" rx="1.59" ry="1.59"/>
    </g>
  </g>
</svg>