<?xml version="1.0" encoding="UTF-8"?><svg xmlns="http://www.w3.org/2000/svg" viewBox="0 0 192.84 299.02"><defs><style>.d{fill:#cc2323;}.e{fill:#1a1a1a;font-family:Elephant-Regular, Elephant;font-size:66.52px;}</style></defs><g id="a"/><g id="b"><g id="c"><g><g><path class="d" d="M185.17,69.14c-3.49,.12-6.99,.16-10.48,.13-7.11-.06-14.22,.1-21.32,.22-5.62,.1-11.27,.69-16.83-.8-.34-.09-.91-.04-1.1,.18-1.04,1.21-2.29,.78-3.48,.51-.93-.21-1.87-.26-2.74-.05-3.16,.75-6.36,.09-9.51,.15-3.22,.06-6.59-.39-9.75-.11-6.04,.52-12.06,.23-18.07,.16-6.68-.08-13.35,.43-20.06-.16-6.34-.55-12.76-.34-19.15-.3-14.75,.09-29.49,.26-44.23-.48-.72-.04-1.45-.08-2.17-.12-1.15-.06-1.69,.47-1.68,1.65,.08,11.39,.19,22.78,.1,34.17-.07,9.21,.18,18.44,.08,27.65-.17,15.68,.19,31.37,.1,47.05-.07,12.39,.02,24.77-.09,37.16-.05,5.67,.51,11.24,1.6,16.79,.75,3.81,1.87,7.51,3.48,11.03,.76,1.65,1.22,3.5,2.2,4.96,1.45,2.13,2.6,4.43,4.07,6.52,2.48,3.52,4.73,7.31,8.15,9.98,2.8,2.2,5.26,4.75,7.91,7.1,2.74,2.43,5.64,4.44,8.76,6.27,3.16,1.86,6.67,2.77,10.02,4.12,7.33,2.95,14.77,5.59,22.01,8.74,5.14,2.23,10.5,3.8,15.66,5.95,2.69,1.12,5.41,2.12,8.5,.71,2.68-1.22,5.6-1.9,8.42-2.82,4.81-1.56,9.74-2.81,14.39-4.76,7.58-3.15,15.33-5.87,22.8-9.34,8.4-3.91,16.13-8.72,22.63-15.21,5.73-5.72,10.33-12.39,13.82-19.8,2.57-5.46,4.6-11.12,5.68-16.99,1.5-8.16,1.71-16.49,1.76-24.77,.06-10.75-.17-21.49-.14-32.24,.03-10.15,.27-20.3,.39-30.44,.12-10.4,.21-20.8,.3-31.2,.07-7.31-.19-14.65,.3-21.94,.38-5.52,.32-11.05,.75-16.55,.22-2.8-.33-3.22-3.05-3.13Zm-1.07,32.91c-1.74,3.39-.78,7.02-.91,10.54-.16,4.21-.28,8.41-.34,12.62-.17,9.95-.33,19.9-.45,29.85-.1,8.42-.32,16.84-.15,25.26,.12,5.72,.07,11.44,.09,17.15,.02,6.9,.1,13.84-.39,20.73-.78,11.06-3.77,21.48-9.54,31.06-2.01,3.33-3.76,6.84-6.31,9.79-4.62,5.36-9.96,9.87-15.94,13.75-4.41,2.86-8.99,5.25-13.84,7.05-9.86,3.66-19.55,7.81-29.62,10.88-3.77,1.15-7.56,2.26-11.32,3.46-1.44,.46-2.72,.37-4.21-.03-4.85-1.32-9.38-3.46-14.09-5.15-6.8-2.44-13.54-5.05-20.29-7.62-8.26-3.14-16.17-7.12-23.09-12.74-3.68-2.98-7.02-6.4-9.93-10.13-3.56-4.56-7.43-9.06-9.56-14.44-3.26-8.19-5.65-16.68-5.87-25.65-.35-14.31-.05-28.6-.03-42.9,.01-11.14-.04-22.29-.03-33.43,0-16.28,.05-32.57,.02-48.85-.02-5.55,.07-11.08,.5-16.6,.03-.46,.05-.93-.01-1.38-.29-2.24-.17-2.27,1.98-2.23,5,.09,10,.09,14.99,.07,4.67-.02,9.34,.44,13.99,.34,5.07-.11,10.14-.1,15.2,0,3.9,.07,7.77-.3,11.71-.05,4.14,.27,8.4,.23,12.61,.01,4.17-.22,8.37,0,12.55,.02,5.71,.04,11.38,.58,17.13,.14,3.73-.29,7.56-.29,11.35-.26,6.74,.05,13.5-.23,20.23,.07,6.91,.31,13.81,.15,20.71,.05,3.29-.05,6.57,.08,9.86,.14,.44,.01,.99-.09,1.24,.4,.21,.43-.13,.87-.44,.98-3.03,1.09-5.14,3.51-7.6,5.43-.13-.1-.27-.21-.4-.32,.48-1.05,1.01-2.09,1.44-3.16,.3-.76,.35-1.6-.28-2.23-.58-.59-1.34-.37-2.05-.19-2.39,.61-4.28,1.97-5.89,3.8-1.24,1.41-2.68,2.28-4.66,2.62-4.08,.69-7.79,2.5-11.4,4.51-1.01,.56-2.35,1.86-3.29,.63-.77-1.01,.66-2,1.38-2.91,.72-.93,1.3-1.98,1.91-3,.36-.6,.47-1.26-.03-1.84-.46-.53-1.08-.76-1.78-.63-.32,.06-.74,.11-.92,.33-2.37,2.8-5.99,1.51-8.86,2.72-1.18,.5-2.58,.56-3.9,.26-.41-.09-1.03,.09-1.14-.53-.11-.64,.42-.91,.88-1.17,.62-.37,1.31-.65,1.85-1.12,.5-.43,1.34-.96,.78-1.76-.52-.74-1.4-1.05-2.28-.54-2.91,1.66-6.11,2.81-8.77,4.89-1.17,.91-2.57,1.31-3.91,1.86-.67,.28-1.27,.16-1.79-.41-.51-.56-.6-1.17-.28-1.82,.34-.67,.52-1.36,.46-2.1-.09-.98-.01-2.1-1.22-2.46-1.17-.35-2.03,.5-2.43,1.31-.95,1.98-2.51,3.78-2.27,6.19,.12,1.25-.47,2.02-1.58,2.41-1.3,.47-2.61,.93-3.95,1.28-1.8,.47-2.19,.05-1.76-1.73,.4-1.66,.88-3.29,1.56-4.86,.31-.72,.67-1.63-.29-2.08-.82-.38-1.43,.15-1.97,.86-.69,.91-1.12,1.93-1.66,2.91-.32,.58-.75,1.27-1.46,1.12-.68-.14-.89-.94-1.02-1.58-.13-.64-.07-1.31-.12-1.97-.03-.59,.03-1.26-.76-1.42-.68-.14-1.09,.28-1.48,.77-1.74,2.15-1.74,6.62,.11,9.24,1.21,1.72-.01,3.07-.8,4.22-.74,1.09-2.29,1.14-3.4,.32-1.22-.91-2.11-2.2-2.38-3.76-.51-2.95,.03-5.77,1.21-8.49,.18-.42,.44-.82,.57-1.25,.18-.59,.21-1.22-.43-1.56-.55-.29-1.01,.02-1.4,.42-.05,.05-.1,.09-.14,.14-3.15,4.73-5.86,9.59-4.31,15.62,.36,1.38,.91,2.6,2.25,3.33,.44,.24,.95,.52,.7,1.22-.23,.62-.71,.93-1.29,1.12-.64,.2-1.24,.08-1.52-.55-.38-.84-.7-1.71-.94-2.6-.87-3.24-4.08-4.39-6.69-2.36-1.14,.89-2.27,1.81-3.45,2.65-1.24,.89-1.37,1.81-.31,2.95,.94,1.01,1.73,2.18,2.92,2.93,.84,.53,.83,.99,.09,1.66-4.1,3.69-8.08,7.51-13.56,9.22-1.71,.53-2.96,1.99-4,3.43-1.29,1.78-.5,4.61,1.67,6.23,1.91,1.43,4.05,2.15,6.22,.75,5.46-3.52,10.96-2.26,16.51-.35,.72,.24,.9,.59,.3,1.07-.66,.54-1.34,1.19-2.12,1.42-4.31,1.26-7.57,3.98-10.78,6.98-1.48,1.38-2.98,2.97-5.04,3.66-.4,.13-.84,.45-.75,.82,.69,2.64-1.95,3.48-2.86,5.25-.51,.98-1.03,.48-1.32-.48-1.78-5.92-3.84-11.75-5.37-17.74-.78-3.05-2.4-5.62-4.47-8.01-2.86-3.3-4.49-7.4-6.8-11.07-2.59-4.11-5.16-8.24-7.8-12.32-.68-1.05-1.66-1.86-2.78-2.49-2.87-1.6-5.09-3.93-7.12-6.47-.29-.36-.56-.74-.91-1.03-.38-.32-.81-.85-1.34-.62-.59,.26-.71,.94-.66,1.55,.05,.65,.18,1.31,.31,1.95,.17,.85,.83,1.86-.99,1.64-.94-.11-.94,.8-.68,1.45,.89,2.18,2.04,4.2,2.6,6.57,.31,1.36,2.46,1.7,3.98,2.11,1.33,.36,2.76,.48,3.77,1.58,.6,.66,1.22,1.42,.06,2.09-1.45,.84-1.03,1.85-.28,2.79,.87,1.07,1.81,2.14,3.06,2.76,2.85,1.4,4.76,3.64,6.15,6.42,1.12,2.23,2.28,4.44,3.43,6.66,.03,.06,.08,.11,.09,.17,1.47,6.52,4.45,12.61,5.04,19.42,.33,3.77,1.52,7.51,1.21,11.34-.31,3.65,.9,7.16,.67,10.78-.03,.5,.1,1.08,.34,1.52,.5,.9,1.12,1.4,1.82,.11,.22-.4,.48-.83,.84-1.09,.76-.54,1.79-.7,2.34,0,.68,.85-.46,1.28-.96,1.58-1.11,.67-2.32,1.18-3.54,1.64-4.91,1.85-9.83,3.67-14.76,5.48-.67,.25-1.4,.37-2.09,.58-1.95,.6-3.24,1.74-3.81,3.85-1.93,7.18-4.47,14.18-6.8,21.23-.95,2.88-1.94,5.74-2.63,8.69-.22,.97-.38,2.03-.02,2.94,1.21,3.07,.31,5.95-.53,8.86-.38,1.33-.67,2.69-.91,4.05-.14,.77-.18,1.66,.73,2.07,.9,.4,1.68-.01,2.33-.64,.52-.5,.99-1.06,1.48-1.59,.46-.49,.91-.56,1.24,.11,.96,1.91,2.19,1.09,3.12,.14,1.19-1.21,2.28-2.55,3.17-3.99,1.47-2.38-.04-4.55-.78-6.74-.21-.6-.76-1.08-1.07-1.66-.63-1.2-1.97-2.49,.67-3.15,.86-.22,1.33-1.41,1.1-2.36-1.46-6.09,2.07-10.9,4.05-16.11,.39-1.04,1.14-1.96,1.47-3.02,1.24-4.07,3.81-6.12,8.17-6.13,4.28-.01,8.51,.74,12.8,.64,.78-.02,1.22,.31,1.64,1.09,.97,1.8,2.5,3.01,4.26,4.18,2.16,1.45,4.52,2.65,6.5,4.35,2.02,1.73,4.47,2.51,6.86,3.41,4.91,1.86,9.95,3.39,14.77,5.44,2.9,1.23,5.95,2.08,8.73,3.6,1.12,.61,2.88,.85,2.47,2.55-.38,1.55-1.96,2.19-3.47,2.03-3.32-.35-6.8-.36-9.83-1.81-6.44-3.08-13.29,1.76-15.21,7-.59,1.6-1.04,3.22-1.44,4.9-.58,2.46-1.48,4.83-2.66,7.17-2.08,4.1-2.51,8.56-.81,13.01,.66,1.75,.33,2.4-1.51,2.36-4-.1-7.78-1.28-11.45-2.74-4.83-1.94-9.71-3.69-14.81-4.79-1.04-.22-2.12-.3-3.12,.16-2.03,.95-4.15,.67-6.22,.4-1.19-.16-2.23-.07-3.21,.58-1.4,.93-2.9,1.17-4.53,.88-1.04-.18-2.12-.17-3.14,.15-.67,.21-1.5,.38-1.46,1.34,.04,.96,.84,1.05,1.56,1.19,1.14,.22,2.28,.46,3.43,.69-.07,.29-.06,.45-.14,.5-.58,.47-1.83,.3-1.76,1.3,.08,1.13,1.34,.86,2.07,1.08,1.88,.57,3.81,1,5.73,1.46,1.87,.45,3.26-.51,4.3-1.83,.91-1.16,1.87-1.57,3.24-1.13,.03,.12,.13,.27,.09,.36-.35,.76-1.62,1.21-.83,2.34,.79,1.13,2.01,1.37,3.18,.95,3.99-1.44,7.64-.16,11.46,.91,6.98,1.95,13.62,4.93,20.6,6.84,2.61,.72,4.74,2.59,7.44,2.99,2.54,.38,5.05-.35,7.59-.47,1.59-.07,2.56-2.98,1.83-4.8-.59-1.48-1.33-2.78,.22-4.24,.78-.73-.29-1.67-.55-2.52-.19-.59-.69-1.25-.14-1.85,.47-.52,.95,.01,1.44,.14,.78,.22,1.5,.06,1.74-.79,.22-.81-.49-.95-1.06-1.12-.38-.12-.75-.23-1.37-.41,.64-.4,1.4-.73,.85-1.43-.62-.79-.21-.93,.49-1.09,.86-.2,1.03,.21,.99,.95-.04,.61,0,1.31,.78,1.37,.86,.07,1.02-.7,1.2-1.33,.8-2.81,1.95-3.4,4.79-2.46,1.19,.4,1.88-.21,2.28-1.28,.64-1.67,1.81-2.68,3.61-2.92,1.76-.24,2.34,.26,1.81,1.91-1.25,3.92-.69,7.86,.65,11.45,2.15,5.75,5.66,10.69,11.51,13.38,1.55,.71,2.15,2.03,2.82,3.39,.4,.82-.14,1.14-.66,1.6-1.45,1.27-3.06,2.36-4.78,3.12-3.69,1.62-6.36,4.69-9.79,6.6-4.4,2.45-7.9,6.29-12.84,7.97-2.15,.73-3.14,3.26-5.07,4.6-1.45,1.02-2.9,1.78-4.62,2.09-1.04,.18-2.36,.35-2.33,1.64,.04,1.3,1.39,1.13,2.34,1.21,1.14,.1,2.27,.16,2.52,1.66,.1,.63,.64,.86,1.22,.64,2.06-.77,4.17-.32,6.26-.35,2.37-.03,3.95-1.33,5.17-3.15,.58-.87,1.24-1.51,2.28-1.71,1.34-.26,1.75-1.54,2.55-2.37,6.4-6.68,14.5-10.69,22.67-14.61,.59-.28,1.26-.51,1.9-.53,2.69-.07,4.26-1.76,5.7-3.72,.55-.74,1.15-1.45,1.76-2.14,1.83-2.09,1.46-4.51-.9-6.02-3.75-2.4-5.48-5.91-4.87-10.26,.38-2.74,2.13-5.07,3.4-7.51,.42-.81,.65-1.86,1.83-2.59,.18,1.01,.33,1.81,.45,2.62,.21,1.38,.76,2.55,2.11,3.11,1.66,.69,1.98,2.56,3.27,3.6,.72,.58,1.3,1.07,2.27,.71,.36-.14,.84-.32,1.15-.2,3.37,1.38,5.56-.7,7.84-2.59,1.08-.9,1.6-1.94,1.03-3.3-.53-1.27-1.72-1.8-2.9-1.52-1.65,.39-2.4-.49-2.93-1.65-1.64-3.56-2.41-7.36-2.57-11.26-.24-6.2-1.39-12.1-5-17.34-1.03-1.5-1.72-3.25-2.56-4.89-1.69-3.31-4.83-5.53-6.62-8.76-.24-.43-.93-.82-.4-1.34,.51-.5,.98,.14,1.35,.42,1.51,1.16,2.92,2.47,4.46,3.59,2.86,2.07,5.97,3.54,9.63,3.46,3.72-.09,5.53-3.08,3.83-6.4-.3-.59-.62-1.16-.92-1.75-.26-.48-1.09-.88-.53-1.48,.4-.44,1.16-.22,1.71-.02,1.98,.73,3.94,1.49,5.88,2.3,2.91,1.21,5.67,.73,8.41-.55,.47-.22,.81-.46,.75-1.01-.36-3.32-1.74-5.99-4.65-7.85-2.44-1.56-4.86-3.14-7.5-4.36-.39-.18-.85-.37-.98-1.03,1.36-.43,2.65-.05,3.98,.19,2.77,.49,5.45,1.54,8.33,1.36,1.05-.07,2.09-.27,3.14-.27,2.01,0,3.57-.52,4.38-2.62,.81-2.09,.14-3.83-1.13-5.29-1.67-1.93-4.11-2.79-6.41-3.76-3.03-1.27-6.08-2.51-9.28-3.33-.35-.09-.88-.07-.84-.62,.03-.48,.47-.6,.86-.67,.92-.17,1.83-.02,2.74,.14,4.76,.83,9.52,1.09,14.21-.36,2.58-.8,3.2-2.72,1.77-5.08-1.93-3.15-5.32-3.57-8.43-4.61-2-.67-4.21,0-6.27-1.11,.71-.84,1.53-1.1,2.39-1.34,5.43-1.54,10.19-4.21,13.96-8.48,.43-.49,.82-1.05,1.09-1.64,.48-1.03,1.36-2.03,.46-3.29-.93-1.29-2.24-1.6-3.67-1.43-3.53,.41-7.04,.96-10.39,2.26-1.02,.4-2.13,.54-3.42,.85,.19-1.01,.62-1.43,1.36-1.67,4.14-1.33,7.77-3.66,11.01-6.42,3.27-2.79,6.52-5.76,7.84-10.16,.41-1.34,1.14-2.72-.16-3.83-1.26-1.07-2.86-.92-4.31-.33-2.16,.87-3.8,2.6-5.81,3.72-.88,.48-1.63,1.34-2.79,1.11-.14-.56,.15-.81,.47-1.07,2.37-1.91,4.91-3.52,6.96-5.95,1.63-1.94,3.85-3.53,5.77-5.33,1.92-1.79,3-4.16,4.24-6.38,.74-1.31,.41-2.86-.24-4.22-.66-1.39-2.67-1.45-4.29-.19-2.86,2.23-5.58,4.62-8.05,7.28-.81,.87-1.79,1.2-2.86,1.52,1.05-1.34,1.76-2.93,3.18-3.9,1.45-1,1.39-2.84,2.54-4.11,2.33-2.57,4.75-5.08,6.53-8.13,.98-1.68,1.67-3.43,2.24-5.24,.46-1.44,0-2.63-1.34-3.35-1.4-.75-2.65-.47-3.75,.67-1.69,1.75-2.91,3.93-4.97,5.34-.75,.51-1.47,1.07-2.78,1.36,1.62-1.95,2.95-3.7,4.43-5.29,1.37-1.47,2.1-3.21,2.38-5.12,.2-1.34,.23-2.83-1.43-3.63,.98-.95,2.07-.5,2.91-.43,1.91,.16,3.81,.3,5.72,.33,1.24,.02,1.55,.62,1.54,1.74-.06,7.32-.11,14.64-.1,21.97,0,1.39-.5,2.92,.75,4.11,.11,.1,.19,.38,.13,.5Zm-18.96,.04c.98,.28,.77,.81,.23,1.24-4.86,3.86-8.92,8.8-15.21,11.19,.3-1.44,1.75-2.67,1.28-3.75-1.01-2.31,.69-3.62,1.31-5.35,.55-1.57,2.33-1.89,2.9-3.52-1.66,1.1-3.29,2.23-4.99,3.27-1.24,.76-2.38,1.88-4.09,1.38-.9-.26-.76,.69-1.09,1.1-.36,.45-.7,1.1-1.4,.86-.66-.22-1.01-.9-1.13-1.51-.11-.59,.25-1.17,.9-1.37,4.24-1.34,7.43-4.41,11.07-6.74,4.96-3.19,9.88-6.45,14.74-9.8,2.26-1.56,4.32-3.41,6.48-5.12,.37-.29,.59-1.05,1.24-.57,.46,.34,.15,.84,.03,1.28-1.07,4.06-3.68,7.22-6.17,10.45-1.72,2.22-4.02,3.76-6.25,5.39-.8,.59-1.2,1.21,.15,1.59Zm-1,14.62c-1.48,1.65-3.63,2.15-5.57,3.02-.83,.37-2.01,.63-.31,1.59,.76,.43,.14,.84-.3,1.1-1.99,1.18-4,2.29-6.36,2.57-.73,.09-1.48,.12-1.54,1.14-.08,1.35-1.28,1.3-2.14,1.64-.5,.2-1.08-.03-1.03-.55,.1-.98-.9-1.7-.11-2.95,1.76-2.78,4.89-3.39,7.25-5.18,1.87-1.41,3.84-2.69,5.76-4.02-.04-.07-.09-.14-.13-.21-2.99,1.72-6,3.42-8.97,5.17-.9,.53-1.28,.33-1.81-.58-.71-1.23-.35-1.73,.77-2.26,1.78-.83,3.52-1.66,5.07-2.96,1.31-1.1,2.95-1.84,4.71-2.38,3.02-.91,4.94-3.65,7.6-5.21,3.81-2.23,6.58-5.89,10.69-7.7,.51-.22,.99-.87,1.59-.37,.66,.56,.13,1.24-.05,1.83-.98,3.21-3.1,5.62-5.57,7.75-2.24,1.93-4.57,3.75-6.82,5.67-.78,.67-1.73,.55-2.59,.81-.6,.18-1.45,.23-1.57,.98-.18,1.05,1.11,.33,1.42,1.08Zm-25.12,122.88c-2.21-4.65-.5-9.29,.1-14.06-1.19,.5-.62,2.09-2.04,2.59,.37-2.24,.43-4.36,1.11-6.26,1.03-2.91-.55-5.14-1.55-7.46-.37-.86-.67-1.98-1.56-2.64-.53-.39-1.05-.98-1.74-.55-.83,.52-.23,1.2,.04,1.73,.67,1.29,1.16,2.65,1.6,4.03,.19,.59,.39,1.19-.34,1.54-.62,.3-.97-.14-1.28-.59-.29-.41-.5-1.12-1.15-.71-.59,.37-.44,1.07-.17,1.62,.49,1,.53,2.02,.36,3.09-.32,.22-.45-.03-.57-.25-.3-.57-.71-1.08-1.38-.76-.66,.31-.52,.95-.34,1.56,.59,2.02,1.34,4,1.26,6.17-.02,.56,.32,1.39-.5,1.45-.72,.05-.4-.81-.55-1.27-.19-.57,0-1.56-.99-1.37-.87,.17-.59,1.07-.55,1.68,.1,1.38,.47,2.74,.13,4.13-.09,.38-.1,1.09-.4,1.02-2.76-.6-1.79,1.74-2.21,2.85-.35,.93-.38,1.86-1.75,1.16-.53-.27-.9,.15-.95,.67-.22,2.35-1.43,4.08-3.25,5.48-.37,.29-.66,.78-.3,1.21,.4,.47,.84,.02,1.22-.16,1.87-.91,2.35-2.89,3.36-4.46,.36-.56,.3-1.63,1.39-1.19,1.28,.52,.35,1.34,.09,1.96-2.51,5.94,.21,10.2,4.23,13.7,.5,.43,1.75,.34,1.38,1.31-.33,.86-1.27,2.22-1.79,2.16-2.22-.28-3.24,1.5-4.76,2.35-.93,.52-2.57,.92-2.41,1.98,.16,1.07,1.74-.43,2.65,.49-1.07,1-2.4,1.51-3.69,2.07-5.4,2.31-10.43,5.34-15.48,8.3-2.24,1.31-3.44,3.92-5.61,5.45-.53,.37-.86,1.04-1.66,.52-1.62-1.07-2.38,.16-3.13,1.26-.25,.37-.34,.86-.48,1.29-1,3.03-1.38,3.31-4.62,3.47-.48,.03-.95,.07-1.21-.41-.29-.54,.19-.84,.47-1.17q1.66-2,1.69-3.17c-1.01,.4-1.33,1.45-2.1,1.99-.45,.31-1.08,.54-1.47,.14-.55-.57,.15-.9,.51-1.2,2.33-1.97,4.46-4.03,7.4-5.37,3.14-1.43,5.68-4.15,8.54-6.24,2.37-1.73,4.72-3.52,7.26-5,3.13-1.83,6.24-3.65,9.12-5.86,.7-.53,1.2-1.22,1.76-1.86,.65-.75,.71-1.49-.38-1.81-1.02-.29-1.5-.97-1.88-1.86-.55-1.29-1.92-1.53-2.96-2.18-9.08-5.64-13.6-14.51-10.76-24.75,.36-1.29,1.29-2.42,1.93-3.62,2.59-4.84,5.44-9.65,4.16-15.57-.3-1.39-.44-2.85-.41-4.27,.03-1.18-.11-2.43,1.1-3.4,.5-.4,1.23-1.72,.3-2.45-.86-.67-1.06,.86-1.81,1.03-.14-.59,.18-1.04,.32-1.53,.19-.63,.92-1.48-.05-1.86-.8-.32-1.02,.66-1.2,1.25-.48,1.53-1.14,1.45-2.05-.03-.2,2.59,1.93,4.56,.99,7.07-1.26-.69-1.17-2.06-1.95-2.83-.45-.45-.61-1.69-1.69-.52-.55,.59-.63-.19-.84-.57-1.07-1.87-.62-4.17-1.73-6.03-.25-.42-.2-1.21-.94-1-.79,.22-.57,.97-.39,1.5,.23,.69,.51,1.35,.33,2.21-1.53-.85-.86-2.66-1.71-3.69-.66-.79,.31-3.59-2.38-2.11-.04,.02-.42-.46-.56-.75-.34-.72-.64-1.33-1.64-1.44-1-.1-.74-1.25-1.09-1.91-.22-.44-.29-1.15-1.05-.79-.54,.26-.36,.7-.21,1.19,.66,2.16,3.69,5.64,5.65,7.18,1.59,1.25,1.47,3.48,2.28,5.26-.79,.19-1.11-.16-1.45-.46-1.41-1.25-2.16-3.34-4.73-3.11-.82,.07-1.51-1.33-2.12-2.2-.54-.79-1.14-.93-1.58,.08-.23,.52-.41,.97-1.1,.87-.78-.11-1.02-.57-1.23-1.29-.48-1.62-2.76-2.79-4.5-2.57-.84,.1-2.09,.36-1.4-1.26,.29-.69-.14-.84-.52-1.03-.79-.36-1.51-.79-2.13-1.41-.38-.38-.85-1.08-1.46-.41-.55,.6,.11,1.1,.43,1.54,1.48,2.03,1.49,2.02,1.58,3.75-2.72-1.74-5.18-3.46-7.45-5.76,1.53-.55,2.53,1.25,4.19,.28-1.92-.88-2.99-2.12-3.22-4.05-.09-.72-.97-.94-1.31-.26-.86,1.68-1.53,.51-2.21-.04-.62-.5-1.03-1.19-1.33-1.94-.26-.65-.4-1.57-1.31-1.48-1.27,.13-.36,1.31-.72,1.92-1.96-1.76-1.95-2.77,.11-3.88,.92-.5,1.27-1.08,.73-2.07-.22-.4-.39-.84-.46-1.29-.07-.41,.19-.82,.58-.93,.36-.1,.56,.27,.67,.59,.24,.71,.51,1.51,1.47,1.15,.91-.34,.35-1.12,.28-1.72-.14-1.1-.1-2.15,.98-3.32,.31,1.65,.28,2.9,.04,4.19-.38,2.1,.64,3.15,2.75,3.33,1.49,.12,2.29,1.78,3.84,2.03,.65,.1,1.39,.96,1.9,.17,.59-.89-.51-1.15-1.02-1.58-1.02-.88-1.53-1.96-1.44-3.31,.03-.53,.14-1.15-.54-1.31-.66-.16-.85,.4-1.06,.91-.23,.55,.02,1.6-.87,1.53-.87-.07-1.23-1-1.28-1.79-.27-4.3-1.19-4.75,3.02-7.41,1.09-.69,2.03-1.46,2.65-2.57,.29-.52,.24-1.06-.32-1.38-.5-.28-.93,0-1.14,.45-.91,1.96-3.01,2.13-4.53,3.15-3.43,2.3-7.79,3.97-8.16,9.08-.03,.44-.16,.84-.61,.85-.6,.02-.91-.55-.68-.94,.97-1.62,.25-3.41,.69-5.09,.69-2.65-1.48-4.47-4.51-3.88-.56-.56,.65-1.67-.52-1.99-1.02-.28-1.11,.98-2.06,1.41,.65-1.34,1.17-2.46,2.15-3.33,.81-.71,2.18-1.07,1.29-2.81-.15-.28,1.12-2.36,2.44-3.13,2.14-1.26,4.64-.93,6.85-1.79,.24-.1,.64,0,.76-.14,1.65-2.17,3.71-.95,5.65-.71,.56,.07,1.38,.33,1.65-.26,.52-1.17,1.21-.64,1.92-.42,.25,.08,.52,.19,.77,.17,.74-.05,1.93,.53,2.12-.33,.23-1.07-1.1-.75-1.75-1.03-.6-.26-1.23-.44-1.85-.64-.84-.25-2.01-1.35-1.88,.82,.03,.52-.63,.63-1.8,.19-1.44-.53-2.86-.88-4.43-.62-1.26,.21-2.02,1.18-3.02,1.65-2.39,1.14-4.88,2.29-7.76,2.32,.49-1.04,1.41-1.3,2.2-1.72,.45-.23,1.17-.38,.85-1.07-.26-.55-.93-.42-1.42-.26-1.5,.52-3.01,1.02-4.08,2.3-.43,.52-.89,.97-1.94,1.03,.82-2.56,3.74-2.54,5.04-4.43-1.15-.55-1.69,.3-2.33,.73-.49,.33-1,.56-1.36-.02-.33-.55,.06-1.06,.53-1.32,.86-.48,1.78-.84,2.64-1.3,.33-.18,.71-.51,.43-.95-.28-.45-.68-.18-1.05-.06-1.19,.39-1.78,1.8-3.43,1.9,.47-1.99,1.99-2.56,3.49-3.02,1.02-.31,1.98-.68,2.9-1.21,.35-.2,.72-.47,.46-.92-.19-.32-.59-.23-.9-.1-1.03,.42-2.06,.86-3.22,1.34-.18-.99,.86-2.31-.86-2.76-.34-.09,.17-.76,.44-1.13,1.49-2,3.45-3.41,5.69-4.45,.98-.46,1.77-.84,1.9-2.2,.17-1.74,1.62-2.23,3.18-2.34,1.21-.09,2.09-.38,1-1.76-.6-.75-.1-1.03,.52-1.28,1.04-.41,2.08-.82,3.12-1.22,1.22-.47,2.29-.97,3.27-2.02,1.22-1.29,3.31-1.37,4.81-2.5,1.2-.91,2.48-1.38,4.19-.69,1.22,.49,2.49-.77,3.96-1.45-.43,2.3-2.34,2.52-3.66,3.34,.18,.78,.71,.64,1.1,.45,1.37-.64,2.78-1.22,3.87-2.32,.32-.32,.87-.89,.78-1.07-1.06-2.06,.9-3.67,.76-5.57-.04-.55,0-1.15-.62-1.31-.66-.17-.9,.41-1.08,.91-.43,1.15-1.29,2-2.03,2.9-.64,.76-1.33,2.02-2.65,.72-.15-.14-.64-.05-.92,.07-3.74,1.53-7.47,1.67-11.34,.34-1.85-.64-3.85-.86-5.81-1.13-.81-.11-1.16-.19-1.01-1.14,.22-1.47-.49-2.43-1.98-2.67-1.29-.21-1.95,.34-2.44,1.65-.74,1.95-2.92,1.41-4.45,1.99-.65,.25-1.43,.14-2.16,.19-.64,.04-1.39,.24-1.72-.55-.28-.68,0-1.34,.43-1.84,1.44-1.7,2.79-3.46,5.23-3.94,3.13-.62,5.01-3.3,7.52-4.95,1.24-.82,2.3-1.96,3.36-3.03,.48-.49,.98-.94,1.62-1.05,2.04-.36,4.05-1.05,5.64-2.26,2.24-1.7,4.38-.31,6.56-.33,.7,0,.76,.82,1.12,1.27,.81,1,1.72,1.83,2.83,.37,.55-.72,1.06-.17,1.59-.13,1.41,.1,1.85-.47,1.21-1.73-2.51-4.93-1.69-9.66,.87-14.26,.28-.5,.68-.92,.16-1.35-.53-.43-.96-.06-1.27,.45-.29,.49-.67,.86-1.28,.46-.47-.3-.83-.79-.72-1.32,.21-1.03,.94-.29,1.43-.29,3.03-.02,3.17,.24,2.16,3.17-.6,1.74-1.19,3.5-1.54,5.29-.82,4.23,2.4,7.53,6.81,7.24,.26-.02,.58-.06,.75-.22,2.59-2.46,6.13-2.06,9.17-3.14,3.15-1.11,6.53-1.95,9.2-3.97,2.65-2,5.62-3.09,8.63-4.15,1.88-.66,3.42-1.57,4.62-3.19,.48-.65,1.1-1.52,2.21-1.3,0-.02,0-.03,0-.05,.01-.02,.02-.04,.04-.06-.07-2.46,1.82-3.54,3.46-4.8-.22,2.27-2.43,3.11-3.46,4.8,0,.04,0,.08,0,.12-.02,0-.03,0-.05,0-.4,2.31,1,3.7,3.44,3.13,2.29-.54,4.58-1.17,6.68-2.33,1.39-.78,2.78-1.65,4.81-1.52-1.69,2.07-3.41,3.59-5.72,4.36-2.11,.7-4.21,1.41-6.51,1.3-2.6-.13-5.05,.55-7.37,1.79-1.45,.78-3.01,1.33-4.53,1.96-.65,.28-1.21,.65-1.15,1.43,.06,.8,.75,1.12,1.39,1.2,2.01,.27,4.02,.63,6.07,.05,.56-.16,1.6-.7,1.88,.21,.27,.86-.65,1.33-1.39,1.66-2.66,1.19-5.27,.99-7.79-.39-1.57-.86-2.93-1-4.55,.19-1.41,1.03-3.22,1.44-5.02,1.64-.58,.07-1.24,0-1.44,.76-.17,.67,.21,1.09,.65,1.54,1.71,1.71,6.25,2.66,8.52,1.73,.29-.12,.66-.23,.6-.65-.04-.39-.36-.49-.69-.58-.54-.15-1.17,0-1.79-.58,2.28-.62,4.03-3.47,6.73-1.02-.39,1.09-2.18,.29-2.25,1.5-.05,.88,1.21,.15,1.58,.78-1.24,2.16-3.86,3.36-6.1,2.66-2.33-.72-4.9-.24-7.11-1.51-.22-.13-.57-.1-.74-.26-3.02-2.95-6.18-1.94-9.37-.38-.65,.32-1.5,.5-1.9,1.02-2.12,2.82-4.71,2.37-7.5,1.34-1.19-.44-2.61,.06-3.71-.97-.31-.29-.84,.17-1.14,.55-.34,.43-.22,.8,.02,1.26,1.01,1.93,3,2.71,5.38,2.29,2.44-.43,4.49-1.88,6.86-2.45,.83-.2,1.65-.47,2.44-.8,1.17-.48,2.1-.42,2.95,.68,1.09,1.41,2.83,1.22,4.35,1.45,.7,.1,1.54-.22,1.83,.71,.26,.84-.2,1.6-.77,2.12-.56,.52-1.32,.81-1.99,1.21-.56-1.88-2.09-1.52-3.5-1.62-.46-.03-.16-.65,.06-.97,.73-1.07,.22-1.53-.83-1.8-1.19-.3-2.3-.39-3.42,.33-1.26,.81-2.52,1.69-4.17,1.43-.4-.06-.78,.21-.97,.58-.29,.59,.25,.79,.57,1.09,.6,.56,1.34,.96,.75,2.1-.65,1.25-1.47,.48-2.21,.42-1.11-.09-1.83-.95-2.69-1.55-.52-.37-1.17-1.14-1.88-.31-.67,.79,.26,1.13,.62,1.6,.7,.93,1.68,1.47,2.76,1.83,1.68,.56,3.95,.85,4.45,2.55,.72,2.5,1.64,5.08,1.04,7.86-.89,4.17-2.33,8.14-4.72,11.64-2.39,3.5-5.53,6.43-8.02,10.27-.17-.57-.27-.74-.26-.9,.04-.72,1-1.69,0-2.09-1.05-.42-1.31,.81-1.64,1.56-.7,1.57-1.41,3.16,1.02,3.96,.21,.07,.45,.36,.48,.59,.59,4.09,3.36,6.48,6.6,8.5,.08,.05,.07,.23,.16,.55-2.57-.12-5.1-.24-7.49,.88-1.01,.47-2.03,.92-3.01,1.46-.73,.41-1.36,.85-1.14,1.83,.14,.63,.51,1.13,1.12,1.28,.9,.21,1.65-.31,1.96-1.03,1.04-2.45,3.15-2.27,5.19-2.26,1.09,0,1.74,.36,1.19,1.74-.76,1.89,.67,3.02,1.92,3.9,1.16,.81,2.22-.14,3.17-.88,.33-.26,.65-.54,.41-.98-.29-.53-.66-.12-1,0-.62,.21-1.21,1.15-1.89,.28-.55-.71,.12-1.38,.4-2.01,.59-1.34,1.53-2.29,3.04-2.55,8.41-1.45,12.28-7.57,15.05-14.76,.26-.67,.43-1.37,.74-2.02,1.4-2.94,1.95-6.04,2.36-9.29,.64-5.07,1.63-10.2,5.02-14.32,2.2-2.68,4.88-4.84,7.91-6.62,1.95-1.14,3.54-2.89,5.73-3.7,1.22-.45,2.45-.9,3.67-1.36,.73-.28,1.64-.86,2.14-.05,.4,.65-.17,1.51-.67,2.15-1.53,1.95-3.56,3.27-5.58,4.63-1.74,1.17-3.45,2.38-5.44,3.1-.62,.22-1.13,.62-.84,1.31,.36,.86,1.03,.28,1.51,.09,1.33-.55,2.25-1.84,3.77-2.07,.67-.1,1.36-.37,1.77,.35,.4,.71,.14,1.37-.43,1.95-1.02,1.02-1.84,2.24-3.47,2.44-.49,.06-1,.38-1.38,.72-.55,.5-1.75,.85-1.36,1.67,.45,.97,1.37,.07,2.08-.1,.43-.1,.89-.47,1.21,.11,.24,.43,.15,.9-.12,1.31-.64,.97-1.61,1.53-2.56,2.14-.38,.24-.83,.55-.62,1.1,.15,.42,.6,.39,.99,.49,3.32,.85,6.14-.31,8.74-2.22,1.35-.99,2.93-1.1,4.46-1.41,.37-.08,.82,.08,.98,.51,.13,.34-.12,.63-.35,.86-3.27,3.17-7.1,5.33-11.59,6.24-.59,.12-1.03-.17-1.33-.66-.39-.65-.98-1.05-1.64-1.38-.63-.31-1.34-.47-1.79,.17-.53,.77,.17,1.13,.69,1.56,1.74,1.46,1.66,2.19-.34,3.54-.52,.35-1.43,.6-.96,1.41,.57,.97,1.5,.5,2.02-.07,1.8-2,4.17-2.84,6.61-3.65,1.22-.4,2.39-.64,3.64-.06,.95,.44,1.77,.9,1.76,2.11-.02,1.28-.41,2.33-1.66,2.9-3.19,1.45-6.6,2.24-9.95,3.23-1.31,.38-2.7,.36-2.94-1.57-.06-.47-.31-.82-.72-1.12-1.85-1.36-2.1-2.86-.77-4.74,.83-1.17,.74-2.5,.74-3.79,0-.72-.72-1.06-1.38-1.24-.48-.14-.98-.04-1.26,.35-.47,.67,.17,1.07,.54,1.49,.77,.89,.26,1.72-.05,2.58-.33,.91-.98,.88-1.77,.78-.57-.08-1.31-.09-1.44,.67-.12,.73,.62,.67,1.07,.88,.74,.35,1.66,.56,1.53,1.75-.13,1.17-.9,1.3-1.83,1.29-.33,0-.69,0-.84,.36-.22,.5,.18,.76,.52,.91,1.21,.59,1.5,1.57,1.32,2.8-.1,.69-.05,1.33,.7,1.67,.73,.32,1.36,.12,2.05-.24,2.88-1.5,5.95-1.62,9.07-1.02,.63,.12,1.12,.51,1.18,1.18,.09,.94-.58,1.44-1.3,1.79-2.17,1.06-4.43,1.19-6.72,.49-1.12-.34-2.17-.36-3.29-.04-1.51,.43-2.28-.21-2.24-1.78,.02-.67,.06-1.32-.64-1.74-.54-.33-1.1-.57-1.64-.12-.59,.5-.11,.9,.21,1.33,.22,.3,.56,.86,.44,1.03-1.31,1.91,.33,2.49,1.45,3.24,.97,.64,1.1,1.56,.68,2.41-.5,1-1.53,1.46-2.67,1.29-1.04-.16-.77-.79-.4-1.45,.52-.92,.71-1.86-.11-2.74-.26-.28-.59-.6-1.01-.41-.41,.19-.5,.6-.35,1.01,.67,1.87,.69,3.32-1.95,3.19-.19-.01-.56,.28-.55,.43,0,1.48-.55,2.67-1.62,3.67-.27,.25-.16,.64,.16,.84,.29,.18,.63,.16,.93-.06,.66-.47,1.09-1.1,1.41-1.86,.62-1.5,1.48-1.53,2.41-.23,.38,.53,.83,1.05,1.06,1.65,.25,.67,.33,1.45-.21,2.06-.51,.57-1.1,.13-1.65,.02-.45-.09-.9-.22-1.36-.28-.41-.05-.82,.02-.96,.49-.13,.45,.11,.76,.49,.97,.23,.12,.5,.17,.73,.28,.83,.38,1.48,1.01,1.58,1.9,.1,.82-.74,1-1.32,1.24-.86,.35-1.73,.6-2.53-.26-.6-.65-1.05-1.47-2.05-1.77-.87-.27-.34-1.03-.1-1.48,.43-.78,.67-1.57,.65-2.45-.01-.55-.1-1.13-.77-1.18-.76-.06-.88,.59-.78,1.09,.41,2.01-.91,2.79-2.33,3.54,1.17,.9,2.53,1.49,3.2,3.03,.9,2.09-.06,4.14-2.33,4.2-1.15,.03-1.27,.38-1.15,1.42,.24,2.09,1.51,3.77,2.01,5.74,.17,.64,.72,1.35-.17,1.94-.74,.49-1.33,.11-2.01-.21-1.72-.81-2.74-2.17-3.4-3.89-.12-.31-.25-.61-.44-.88-.51-.7-1.24-.79-1.93-.41-.65,.36-.52,.97-.24,1.56,.31,.64,.8,1.36,.05,1.96-.81,.65-1.5,.03-2.31-.28-1.61-.61-1.78-2.64-3.59-3.1-1.55-.4-2.29-.28-2.37,1.4-.05,1.03-.5,1.75-1.54,2.04-.46,.13-.94,.29-.79,.91,.16,.66,.74,.67,1.27,.68,.87,.02,1.56-.39,1.98-1.1,.65-1.1,1.4-.65,2.19-.26,1.48,.74,.4,1.93,.29,2.77-.12,.86-1.04,.29-1.63,.07-.48-.19-1.09-.46-1.31,.24-.17,.53,.25,.99,.71,1.3,1.4,.95,3.45,.42,4.36-1.35,.66-1.27,1.33-1.39,2.5-.79,.95,.49,1.83,1,1.4,2.21-.41,1.18-1.15,2.09-2.64,1.86-.58-.1-1.43-.79-1.64,.22-.19,.97,.72,1.28,1.56,1.33,.78,.05,1.63,.3,2.33-.16,1.48-.96,2.31-.22,3.28,.9,2.1,2.41,2.95,2.61,5.87,1.28,1.68-.77,2.4-.33,3.46,1.15,2.15,2.98,4.84,5.45,8.99,4.98,.86-.09,1.31,.34,1.82,.92,2.19,2.5,4.45,4.93,6.6,7.47,.57,.68,.96,1.59,1.22,2.46,.58,1.92,1.5,3.67,2.64,5.27,1.51,2.12,1.83,4.65,2.46,7.01,.63,2.35,.78,4.9,.91,7.41,.24,4.58,.79,9.18,3.86,12.96,.8,.98,1,2.25,1.78,3.26,.47,.61,.2,1.41-.84,1.53-1.63,.19-3.79-1.18-4.06-2.81-.3-1.85-1.87-3.31-1.49-5.38-.83,1.96-.96,3.94-.76,5.96Zm-2.49-4.24c-.14,.38-.35,.75-.8,.76-.46,0-.56-.5-.45-.7,1-1.79,.15-3.89,1.02-5.67,.14-.28,.37-.52,.56-.78-.19,2.15,.42,4.33-.33,6.39Zm-46.41-15.01c1.18,1.95,2.24,4.02,3.97,5.61,.31,.29,.59,.86,.18,1.23-.52,.48-1.02,.02-1.34-.36-1.38-1.67-2.84-3.3-4.04-5.1-2.33-3.5-4.61-7.04-6.53-10.79-.26-.5-.44-1.34-1.2-.91-.62,.35-.06,.89,.18,1.34,3.16,5.94,6.92,11.48,11.22,16.65,.4,.48,1.09,.83,.98,1.6-.05,.35-1.15,.76-2.53,.95,1.27-1.47,.55-2.08-.75-2.8-2.26-1.26-3.36-3.66-4.75-5.69-1.58-2.31-3.4-4.52-4.2-7.32-.17-.59-.6-1.7-1.44-1.27-.92,.48-.32,1.44,.13,2.03,3.26,4.25,5.37,9.33,9.42,13.01,.33,.3,1.29,.67,.69,1.33-.56,.61-1.48,.3-1.98-.21-.97-.97-1.84-2.06-2.66-3.16-1.8-2.43-3.51-4.93-5.03-7.55-.28-.47-.56-1.3-1.26-.9-.64,.37-.29,1.09,.09,1.56,2.7,3.37,4.59,7.36,7.95,10.22,.57,.48,.95,1.24,.53,1.71-.73,.84-1.75,.25-2.26-.34-1.62-1.88-3.41-3.66-4.54-5.92-.21-.41-.38-.84-.64-1.21-.3-.43-.43-1.36-1.2-.92-.56,.32-.12,.93,.13,1.4,.12,.23,.32,.6,.23,.72-1.54,2.04,.47,3.19,1.23,4.55,.83,1.47,1.87,2.91,3.1,4.05,1.48,1.36,1.28,2.83,.92,4.43-.2,.9-.43,1.79-.67,2.67-.55,2.01-.7,3.86,.49,5.84,.98,1.64-.37,3.26-2.28,3.05-.23-.03-.65-.25-.64-.33,.32-2.02-1.07-1.53-2.16-1.5-.29,0-.54-.12-.56-.43-.07-1.64-1.45-1.21-2.35-1.45-.42-.12-1.09,0-1.19,.47-.15,.64,.45,.85,1,.95,.38,.07,.75,.13,1.42,.24-1.16,1.1-2.17,.57-3.07,.25-5.34-1.86-10.65-3.82-15.99-5.67-5.1-1.76-10.3-3.22-15.63-4.1-1.65-.28-3.29,.36-4.96,.61,.02-.73,.5-.72,.83-.9,.56-.3,1.5-.37,1.45-1.14-.07-.93-1.02-1.1-1.8-1.21-2.99-.38-5.96-1.12-8.21,2.05-1.09,1.54-2.74,.28-4.26-.03,.46-1.22,1.51-1.03,2.31-1.31,.61-.21,1.46-.39,1.27-1.23-.21-.9-1.02-.57-1.65-.44-.32,.07-.64,.16-.97,.21-.39,.06-.86,.13-1-.34-.15-.49,.37-.65,.67-.84,1.68-1.03,3.48-.34,5.22-.26,.86,.04,1.67,.17,2.51-.12,3.82-1.32,7.3,.12,10.88,1.23,6.25,1.93,12.22,4.76,18.88,5.43,2.87,.29,4.65-1.03,6.42-2.64,1.34-1.22,1.84-.55,2.42,.59,.51,1,.97,2.02,1.91,2.73,.53,.4,1.2,.62,1.6,.11,.59-.75-.23-.9-.72-1.21-1.55-.95-2.2-2.55-2.9-4.12-.23-.51-.26-1.39-.95-1.32-1,.09-.16,1.15-.61,1.62-1.15,.06-1.78-.62-2.23-1.6-1.77-3.85-1.28-7.7,.62-11.22,1.47-2.72,2.17-5.61,3.04-8.49,1.02-3.41,2.02-6.76,5.46-8.78,1.91-1.12,3.77-.84,5.71-.8,.59,0,.86,.54,1.12,1.01,2.22,4.11,4.71,8.06,7.4,11.88,.2,.29,.37,.54,1.04,.44-1.72-2.59-2.92-5.36-4.71-7.81-.77-1.05-1.27-2.29-1.85-3.47-.21-.42-.29-.9,.2-1.24,.52-.35,.87,.05,1.22,.33,1.03,.8,1.28,2.11,1.95,3.15,3.49,5.42,7.15,10.71,11.19,15.72,.6,.74,.75,1-.35,1.42-3.45,1.3-5.36,.72-7.56-2.23-2-2.68-3.72-5.52-5.44-8.37-.37-.61-.83-1.15-1.57-1.33,.19,2.55,2.29,4.02,3.48,5.99Zm3.41-8.32c-.95-1.42-1.88-2.84-2.76-4.3-.28-.47-.42-1.05,.38-1,.7,.09,1.07,.45,1.42,.86,1.82,2.1,3.15,4.55,4.76,6.79,1.55,2.16,2.91,4.53,4.93,6.33,1.09,.96,1.57,2.42,2.83,3.23,.52,.33,.37,.8-.13,1.09-.45,.26-.82,.45-1.38-.04-4.17-3.69-7.02-8.39-10.05-12.95Zm11.38,10.49c-3.19-3.42-5.74-7.31-8.3-11.19-.64-.97-1.6-1.75-1.9-2.95-.09-.34-.66-.67-.19-1,.54-.38,.86,.18,1.05,.55,.75,1.5,2.15,2.49,3.03,3.88,.17,.28,.49,.66,.94,.31,0-.02,0-.03,0-.05l.02,.02c.11-1.45-1.19-2.19-1.68-3.33-.17-.39-.7-.79-.28-1.22,.52-.52,.97-.01,1.34,.32,.28,.26,.5,.6,.71,.93,2.41,3.64,4.76,7.31,8.08,10.23,.41,.36,.87,.76,.36,1.31-.52,.56-.99,.08-1.32-.29-1.66-1.85-3.37-3.67-4.89-5.63-.69-.89-1.56-1.54-2.32-2.33v.02h-.02c.1,1.17,.79,2.03,1.59,2.8,2,1.93,3.4,4.35,5.26,6.39,.49,.54,1.08,1.22,.28,1.86-.76,.61-1.25-.08-1.77-.64Zm3.51-6.7c.23,.22,.38,.53,.59,.84-.09,.17-.12,.4-.25,.47-.46,.28-.98,.09-1.29-.19-1-.93-1.96-1.92-2.88-2.94-1.67-1.86-2.83-4.07-4.19-6.14-.25-.37-.44-.89,.02-1.26,.57-.45,.82,.11,1.06,.45,2.12,3.07,4.21,6.17,6.93,8.76Zm-5.12-9.62c1.49,2.86,4.3,4.69,6.03,7.75-2.32-.62-6.03-5.39-6.03-7.75Zm-28.22-16.86c-2.75-.19-3.5-2.52-4.6-4.5-.19-.33-.55-.69-.26-1.05,.41-.5,.83,0,1.22,.14,.59,.21,1.04,.62,1.17,1.23,.36,1.71,1.55,2.93,2.47,4.19Zm-5.21-2.56c-1.62-.76-3.84-4.49-3.73-5.78,2.16,1.28,2.05,3.77,3.73,5.78Zm-44.18,12.93c.21,1.62-.06,2.85-1.37,4.21-1.72,1.79-.68,4.14,.3,6.09,.65,1.28,1.23,2.6,1.89,3.85,1.02,1.93,.04,3.11-.92,4.45-.14,.19-.41,.38-.63,.38-.46,.02-.39-.4-.46-.71-.32-1.39,.14-2.76,.07-4.14-.05-.87,.18-2.13-1.23-1.99-1.3,.12-.84,1.25-.72,2.05,.29,1.8,.39,3.5-1.51,4.6-.37,.22-.59,.82-1.13,.47-.42-.27-.53-.77-.4-1.24,.38-1.4,.74-2.8,1.2-4.18,.6-1.81,.76-3.53-.09-5.35-.76-1.64-.33-3.44,.15-5.04,2.49-8.24,4.97-16.48,8.26-24.46,.07-.18,.21-.38,.2-.55-.28-3.89,2.19-4.61,5.36-5.21,4.25-.81,8.29-2.47,12.36-3.99,3.23-1.21,6.18-2.75,8.93-4.77,.45-.33,1-.89,1.57-.33,.54,.54-.21,.9-.41,1.34-.17,.37-.4,.78-.17,1.12,1.32,1.95-.38,1.82-1.43,2.07-.67,.15-1.76-.08-1.61,.92,.14,.93,1.2,.98,1.97,.71,1.85-.67,3.67-1.45,5.49-2.2,.59-.24,1.14-.56,2.21-1.08-.63,1.39-1.24,1.93-2.06,2.25-.43,.17-.98,.33-.73,.94,.25,.63,.74,.26,1.17,.17,.83-.16,1.8-1.55,2.34-.54,.52,.96-.99,1.24-1.74,1.69-.27,.17-.66,.33-.54,.72,.16,.53,.62,.34,.99,.28,.48-.08,1.03-.66,1.42-.09,.32,.47-.12,.99-.42,1.43-.37,.53-.75,.6-1.33,.22-1.03-.67-1.76-.32-2.06,.84-.33,1.28-1.15,1.51-2.38,1.45-5.77-.29-11.56-.77-17.3,.46-.55,.12-1.04-.1-1.51-.36-.59-.33-1.21-.29-1.65,.15-2.4,2.37-4.95,4.4-6.14,7.98-1.5,4.52-4.05,8.69-5.56,13.26-.23,.7-.48,1.35-.39,2.1Zm24.34-45.54c-.55-.7-1.01-1.48-1.09-2.57,1.21,.24,1.22,1.34,1.9,1.83,.52,.38,1.25,.93,.52,1.53-.58,.47-.99-.38-1.32-.79Zm.33,3.44c-.95-.19-1.38-.9-1.53-1.78-.05-.34,.24-.57,.72-.52,.8,.28,1.26,.99,1.49,1.81,.09,.33-.33,.56-.68,.49Zm-1.55-10.88c1.74,.98,1.93,3.36,3.98,4.21-.02-1.71-1.31-2.68-2.03-3.74-2.95-4.37-3.86-9.3-4.71-14.32-.47-2.74-.53-5.66-2.74-7.84-.32-.31-.59-1.18-.4-1.44,1.17-1.62-.04-2.69-.73-3.91-1.81-3.19-3.61-6.39-5.41-9.59-1.1-1.95-2.52-3.52-4.76-4.22-.52-.16-1.23-.48-1.13-1.19,.08-.59,.74-.35,1.17-.43,1.43-.26,.96-1.14,.36-1.65-.99-.84-1.53-1.95-2.19-3.01-1.12-1.83-2.67-2.99-4.87-3.34-1.92-.31-3.8-.86-4.04-3.3-.03-.31,.07-.62,.11-.93,.31,.05,.67,0,.92,.16,.9,.53,1.75,1.16,2.66,1.7,.43,.25,.99,.64,1.35-.05,.28-.55-.24-.84-.61-1.08-1.52-.97-2.73-2.24-3.66-3.78-.23-.38-.59-.74-.16-1.45,2.69,3.17,6.7,4.62,9.29,7.89,.85,1.07,1.19,2.33,1.92,3.41,3.16,4.62,5.87,9.5,8.53,14.41,1.12,2.08,2.6,3.96,4.19,5.72,1.77,1.95,2.79,4.2,3.43,6.77,1.39,5.63,3.15,11.15,5.2,16.59,.51,1.34,.84,2.76,1.26,4.14,.21,.7,.07,1.22-.75,1.23-2.03,.02-.83,.95-.39,1.5,1.33,1.71,1.36,1.81-.68,2.39-1.07,.31-.47,.86-.32,1.35,.12,.42,.12,.82-.29,1.03-.19,.09-.52,.02-.73-.09-1.19-.57-3.86-5.59-3.77-7.12Zm17.6-27.37c-1.92,1.88-4.32,2.67-6.8,3.24-.57,.13-1.26-.13-1.43-.8-.23-.93,.67-.83,1.14-.93,2.34-.53,4.71-.93,7.08-1.5Zm5.97-20.2c.24-1.05,.47-2.18,1.36-2.94,.62-.52,1.14-1.51,2.13-1.07,.89,.39,1.67,1.05,1.67,2.21,0,.69,.28,1.28,.62,1.84,.38,.62,1.33,1.22,.41,1.98-.76,.62-1.56,1.48-2.79,.84-.81-.42-1.7-.66-2.51-1.07-.67-.34-1.15-.88-.88-1.79Zm9.77-7.82c.67-.26,.9,.41,1.14,.82,1.25,2.13,3.02,3.21,5.53,2.86,.64-.09,1.19,0,1.51,.63,.38,.72,0,1.29-.47,1.76-.47,.45-1.03,.81-1.52,1.24-2.04,1.76-1.98,1.73-3.16-.53-.47-.91-1.26-1.67-1.93-2.46-.77-.91-1.54-1.81-1.51-3.24,.03-.3-.1-.88,.41-1.07Zm25.2-7.14c-.18-.97,.14-1.79,.91-3.06,.43,2.17,1.83,2.97,3.56,3.6-5.53,2.07-10.49,5.02-15.56,8.33,.16-3.34,.65-3.82,3.46-4.38,2.4-.48,4.55-1.69,6.76-2.67,.72-.32,1.02-1.01,.87-1.82Zm16.69-1.25c-3.23,.4-6.48,.8-9.74,1.21-.04-.19-.09-.38-.13-.57,2.66-.76,4.43-3.11,7.27-3.87-1.03,2.77,1.45,2.41,2.6,3.23Zm-2.24,2.51c2.92,.24,6.05,.43,8.98-.64,.39-.14,.8-.13,.87,.45-.03,.52-.42,.79-.74,1.13-1.69,1.83-4.02,2.36-6.27,2.56-2.99,.26-5.36,1.78-7.73,3.24-3.14,1.93-6.45,3.06-10.08,3.68-2.35,.4-4.64,1.37-6.73,2.59-1.31,.77-2.25,.33-3.08-.71-.89-1.09-.92-1.8,.4-2.87,3.17-2.56,6.74-4.6,10.41-5.98,4.43-1.67,8.82-3.89,13.97-3.46Zm5.18-2.55c1.88-1.13,3.99-.5,5.82-1.24-1.18,2.15-2.88,2.44-5.82,1.24Zm14.53,8.57c-1.55,1.63-1.6,1.64-4.36,.75,.98-.81,2.52-1.1,4.36-.75Zm-9.49,1.84c-.85,.47-1.69,.95-2.54,1.41-.36,.2-.84,.36-1.05-.05-.33-.65,.35-.66,.72-.88,.86-.5,1.79-.74,2.87-.48Zm-10.65,21.93c.67,.31,.72,.85,.53,1.5-.33,1.12-.98,1.94-2.44,2.65,.45-1.92-1-3.26-.42-4.95,.19-.56-.64-.8-1.13-.81-1.73,0-1.26-.78-.65-1.66,.78-1.16,1.91-1.74,3.24-2.02,.36-.08,.8-.33,1.03,.18,.2,.45-.18,.73-.43,1.01-.22,.24-.5,.43-.74,.65-.38,.33-.64,.74-.25,1.19,.37,.42,.88,.32,1.25,0,.64-.55,1.19-1.23,1.84-1.76,1.03-.82,2.21-1.13,3.49-.6,.58,.24,.46,.71,.31,1.17-.47,1.4-1.38,2.47-2.8,2.78-.57,.12-1.28-.55-1.96-.76-.63-.19-1.44-.36-1.79,.32-.44,.83,.44,.86,.93,1.1Zm-9.66,4.62c-.64-.03-1.32,.15-1.52,.71-.21,.62,.57,.52,.92,.76,1.39,.93,.28,1.85-.11,2.7-.17,.38-.78,.53-1,.9-.34,.57-.46,1.32,0,1.86,.5,.6,1.07,.11,1.58-.19,.45-.27,.88-.64,1.37-.76,.7-.17,1.6-.92,2.14-.1,.57,.86,.36,1.98-.36,2.75-.59,.62-1.22,1.53-2.34,.84-.28-.17-.55-.41-.85-.49-.55-.14-1.26-.52-1.68,0-.51,.65,.42,.8,.68,1.17,.66,.91,.34,1.83-.35,2.28-1.52,.98-1.3,2.98-2.59,4.03-.2,.17-.22,.49,0,.71,.32,.32,.6,.04,.87-.11,1.03-.58,2.05-1.19,3.1-1.73,.46-.23,1.07-.46,1.45,.06,.38,.51,0,1.01-.34,1.41-.84,.99-1.71,1.95-2.61,2.98,1.07,.5,1.65-.17,2.31-.55,.34-.19,.68-.49,1.05-.1,.27,.28,.21,.61,0,.9-.44,.58,0,1.29-.31,2.13-2.48-1.61-4.46-.65-6.17,1.18-.72,.78-1.52,.05-2.22,.36-.35,.15-.81,.16-.89,.65-.06,.4,.22,.55,.53,.72,1.69,.97,1.81,1.68,.57,3.23-.4,.49-1.2,.9-.84,1.62,.41,.85,1.28,.36,1.95,.31,.89-.07,2.02-.62,2.5,.45,.56,1.22-.59,1.9-1.39,2.53-.78,.61-1.62,1.02-1.61,2.27,0,.72-.67,.88-1,.16-.55-1.23-1.6-1.41-2.71-1.54-.58,.74-1.36,1.52,.43,1.73,.49,.06,.63,.41,.58,.86-.09,.86-2.22,2.49-3.18,2.29-1.24-.26-1.96-.79-1.38-2.36,.45-1.2-1.04-2.19-2.78-1.52-1.55,.59-2.33,.02-3.29-.94-1.51-1.5-1.44-2.3,.34-3.49,2.18-1.46,4.61-2.44,6.73-4.05,1.29-.98,1.95-2.21,2.77-3.43,2.86-4.27,4.43-8.85,4.03-14.13-.18-2.45,.43-4.97,.84-7.44,.25-1.5,.4-2.99,.35-4.52-.03-.79-.02-2.01,.9-1.89,1.8,.23,2.87-1.03,4.27-1.55,.44-.16,.92-.35,1.28,.08,.28,.34,.01,.74-.05,1.12-.13,.81-1.14,1.86-.43,2.29,.86,.52,1.53-.65,2.12-1.33,.39-.45,.91-1.1,1.43-.5,.55,.64-.41,.76-.73,1.07-.32,.3-.9,.38-.74,1,.13,.5,.58,.45,.96,.52,1.76,.35,2.06,.94,1.11,2.41-.88,1.36-2.39,2.19-2.99,3.86-.24,.69-1.42,.21-2.19,.44-.09-1.04,.71-1.4,.96-2.05,.52-1.33-.14-2.49-1.49-2.56Zm-.42,13.74c.39-2.02,2.12-2.43,3.59-3.23,.59,2.9,.03,3.39-3.59,3.23Zm-1.53,13.79c.52,.13,1.16,.05,.89,.86-.22,.66-.78,.83-1.44,.69-2.07-.14-2.19-.55-1.95-2.57,.19-1.59,.19-3.03,2.05-3.57,.69-.2,1.48-.59,1.92,.21,.35,.64,.22,1.41-.4,1.98-.43,.4-.88,.79-1.27,1.23-.39,.44-.62,.97,.19,1.18Zm-6.08-23.84c.2-2.26,.14-4.62-1.21-6.65-.36-.55-1.04-1.13-.43-1.71,.73-.7,1.87-.5,2.78-.5,.83,0,.73,.91,.61,1.59-.03,.19-.03,.39-.05,.59-.56,2.71-.57,5.46-.84,8.2-.25,2.5-.43,5.01-.79,7.51-1.02,7.08-4.34,12.38-10.78,15.63-.65,.33-1.43,.65-1.95-.12-.52-.77,.26-1.09,.69-1.58,5.89-6.66,11.15-13.68,11.98-22.95Zm-2.1-10.02c-.23-.36,.02-.54,.27-.79,.93-.91,2.04-.75,3.04-.65,1.17,0,2.22,.07,3.22-.37,.38-.17,.84-.07,1.05,.31,.26,.49-.31,.64-.53,.9-.84,.95-1.99,1.12-3.08,.75-1.15-.39-2.19-.93-3.29,.04-.21,.18-.52,.05-.68-.19Zm12.77-2.85c.48-.91,.97-1.82,1.46-2.73,1.63,1.75,1.47,3.49-.36,3.97-.4,.11-.78,.11-1.11-.18-.4-.35-.18-.71,0-1.06Zm2.15,13c.34-1.16,1.34-1.89,1.9-2.91,.12-.22,.41-.36,.63-.1,.12,.13,.14,.35,.25,.67-1.04,.78-1.39,2.07-2.05,3.16-.06,.1-.4,.14-.51,.06-.3-.2-.32-.54-.22-.87Zm9.45-14.82c-1.07,.51-2.16,1.03-3.07-.44-.41-.65-1.29-.56-2.01-.28-.3,.12-.57,.33-.87,.47-.52,.24-1.02,.26-1.44-.21-.26-.3-.57-.64-.37-1.05,.28-.59,.91-.39,1.47-.5,.33,.05,.78,.02,1.09,.21,2.78,1.69,5.03,.5,7.16-1.29,.64-.54,1.43-1.16,2.04-.45,.77,.9-.37,1.4-.92,1.8-.95,.69-2.02,1.24-3.08,1.74Zm5.55-.54c.54,.16,1.42,.47,.46,1.29-.69,.6-1.36,1.22-2.05,1.82-.29,.24-.67,.62-1.02,.31-.24-.21-.22-.7-.26-.86,.07-1.46,1.75-2.9,2.87-2.57Zm-9.01-8.89c-1.46,.81-2.91,1.63-4.38,2.44-.61,.34-1.04,.09-1.22-.51-.2-.66,.31-.77,.79-.81,1.63-.13,3.14-.62,4.5-1.58,.1,.16,.21,.31,.31,.47Zm-9.48,6.81c-.29,.49-.74,.73-1.51,.64-1.3-.4-2.56-1.22-3.79-2.11-.2-.15-.47-.39-.21-.64,.22-.21,.62-.47,.84-.39,1.47,.51,2.93,1.09,4.37,1.68,.31,.13,.5,.47,.3,.82Zm25.45,14.54c-.52,.21-1.03,.84-1.56,.27-.54-.59,.32-.86,.49-1.29,.14-.36,.48-.78,.4-1.09-1-3.72,2.5-4.57,4.3-6.15,1.59-1.39,3.93-2.21,6.33-2.22,.86,0,1.23,.22,1.26,1.12-.12,1.63-1.27,2.75-2.49,3.55-2.93,1.9-5.42,4.48-8.72,5.82Zm7.75,.97c-.35,.61-.84,1.26-1.44,1.6-3.4,1.97-6.83,3.87-10.28,5.75-.62,.34-1.36,.45-2.63,.85,1.2-1.41,1.93-2.47,2.44-3.7,1.37-3.29,7.89-6.26,11.01-6.17,.98,.02,1.42,.76,.89,1.67Zm-30.16,48.8c.54,1.31,1.59,2.24,2.4,3.35,.46,.63,1.01,1.38,.6,2.16-.46,.86-1.31,.16-1.98,.22-1.25,.1-2.32-.41-3.31-1.07-2.04-1.34-2.02-2.59-.9-4.7,1.13-2.13,2.48-3.4,4.94-3.54,.84-.05,1.43-.88,1.75-1.73,.33-.89,.97-.98,1.75-.71,2.4,.86,4.4,2.32,6.14,4.16,.49,.52,.49,1.19,.47,1.86-.03,2.21-.62,2.68-2.8,2.21-2.74-.59-5.31-1.5-7.3-3.61-.38-.41-.88-.91-1.53-.4-.63,.5-.5,1.13-.22,1.79Zm5.91,20.25c-3.46-2.17-5.96-5.29-8-8.79-.3-.52-.93-1.29,.5-1.5,.84-.12,.21-.84,.04-1.21-.52-1.1,0-1.19,.93-1.19,1.38,0,2.44,.65,3.26,1.6,1.62,1.9,3.14,3.87,4.65,5.86,.81,1.07,1.27,2.3,1.13,3.42,.12,2.35-.68,2.94-2.51,1.8Zm-.24-28.46c-.48-.05-.59-.52-.47-.92,.35-1.14,.52-2.28,.64-3.46,.11-1.07,1.27-.84,1.74-.55,2.19,1.35,4.88,1.95,6.46,4.22,.49,.71,1.05,1.42,.52,2.33-.48,.84-1.3,.32-1.78,.4-2.75,.2-4.69-1.75-7.12-2.02Zm7.25,4.3c.12-.5,.61-.69,.83-.28,.51,.92,1.08,1.72,1.94,2.37,.44,.33,.09,.68-.41,.74-.57,.02-2.5-2.26-2.36-2.83Zm2.38-10.01c-1.42-.2-2.81-.69-4.59-.45-.5,.08-1.24-.08-2-.39-.9-.36-1.21-.9-.85-1.84,.21-.54,.36-1.11,.47-1.69,.21-1.12,.86-1.65,1.95-1.35,2.28,.62,4.56,1.21,6.38,2.87,.72,.65,1.05,1.37,.68,2.27-.41,1-1.29,.68-2.05,.57Zm-19.29,27.34c.04,1.52-1.67,2.54-2.81,1.69-1.41-1.06-2.57-2.44-3.14-4.17-.21-.62-.17-1.64,.76-1.31,1.72,.62,3.68,.97,4.83,2.65,.24,.36,.28,.86,.36,1.14Zm13.17-.57c-.98-1.43-2.26-2.56-3.34-3.89-.55-.68-.98-1.6-.2-2.32,.91-.84,1.36,.3,1.85,.75,2.58,2.34,5.1,4.74,7.66,7.1,.41,.38,.83,.86,1.86,.71-1.19-2.02-2.81-3.45-4.36-4.76-1.83-1.54-3.1-3.55-4.93-5.05-.24-.19-.56-.43-.34-.81,.18-.32,.52-.4,.86-.36,.65,.08,1.4,.03,1.84,.58,1.84,2.31,4.59,3.51,6.69,5.42,2.67,2.43,6.14,3.91,8.28,6.81,1.31,1.78,3.17,3.15,4,5.29,.82,2.1,.12,3.24-2.15,3.42-2.43,.18-4.63-.77-6.39-2.15-2.78-2.18-5.91-3.93-8.3-6.64-1.14-1.29-2.06-2.71-3.02-4.1Zm15.22-.09c-3.7-2.13-7.19-4.59-10.65-7.1-.36-.27-.67-.64-.92-1.02-.32-.47-.41-1.02,.04-1.45,.45-.44,.83,0,1.21,.24,4.12,2.53,8.91,2.41,13.43,3.32-2.09-.97-4.2-1.84-6.5-2.05-2.15-.19-4.04-1.1-5.88-2.15-.53-.3-1.05-.66-.88-1.38,.19-.79,.91-.67,1.46-.68,3.22-.07,5.99,1.46,8.7,2.83,4.56,2.3,8.89,5.02,13.39,7.46,2.68,1.46,4.67,3.58,6.41,6,.6,.83,.55,1.53-.5,1.81-1.91,.51-3.83,.98-5.79,.1-4.5-2.01-9.24-3.46-13.53-5.93Zm5.61-10.06c-.12,.59-1.21,.3-1.78,.09-2.34-.88-4.64-1.86-6.73-3.26-1.37-.91-2.69-1.88-4.17-2.63-.92-.47-1.72-1.25-1.01-2.38,.7-1.12,1.5-.22,2.2,.14,2.17,1.12,4.38,2.09,6.95,1.67-2.76-1.36-5.95-1.79-8.02-4.34-.53-.65-1.23-1.21-1.33-2.21,2.82-1.36,5.57-.22,8.15,.53,6.67,1.95,13.38,3.81,19.8,6.55,1.93,.82,3.52,2.03,5.18,3.2,.81,.57,1.27,1.52,1.5,2.51,.32,1.38-.08,2.13-1.66,2.49-4.17,.96-8.1-.19-12.08-1.04-1.51-.32-2.76-1.17-4.11-1.84-.83-.41-2.31-2.12-2.88,.54Zm3.09-13.82c-1.63,.62-3.46-.2-5.12-.87-.84-.34-1.94-1.14-2.59-.49-2.34,2.33-4.3-.35-6.44-.3-.62,.02-.65-.52-.06-1.07,1.37-1.28,3.06-1.13,4.65-1.21,4.99-.23,9.92-.97,15.2-1.51-1.03-.7-1.81-.55-2.59-.47-3.99,.4-7.97,.81-11.96,1.19-1.26,.12-2.5-.02-3.68-.52-.37-.16-.79-.33-.71-.8,.09-.54,.59-.45,.95-.41,5.57,.59,10.97-1.2,16.45-1.2,4.53,0,9.2,.41,13.27,2.93,.28,.17,.62,.3,.82,.54,.79,.93,2.09,1.79,1.59,3.17-.48,1.32-1.97,1.01-2.98,.85-2.05-.33-3.64,1.13-5.72,1.01-2.79-.16-5.47-.79-8.2-1.14-1.05-.14-1.82-.1-2.89,.31Zm1.79-11.15c-.72-.1-1.73,.2-1.53,.78,.81,2.29-1.11,1.46-1.78,1.51-1.15,.09-2.34-.29-3.52-.38-.94-.07-2.21-.69-2.39,1.07-.02,.14-.41,.33-.64,.34-1.18,.05-2.38,.21-3.53,.03-.99-.14-2.45,.01-2.79-1.03-.29-.91,1.3-1.19,1.68-1.94,.97-1.96,2.69-1.96,4.48-2.12,4.86-.43,9.49-2,14.22-3.06,1.74-.4,3.56-.57,5.12-1.6-2.67-.04-5.13,.92-7.69,1.41-3.16,.6-6.3,1.32-9.44,2.04-1.74,.4-3.41-.22-5.11-.24-.37,0-.87,.02-.84-.55,.02-.46,.41-.56,.81-.69,4.07-1.29,8.32-1.82,12.39-3.14,3.98-1.3,8.05-2.33,12.06-3.57,2.22-.68,4.48-1.1,6.76-1.44,.88-.13,1.79,0,2.32,.75,.52,.74,.08,1.5-.29,2.23-1.16,2.29-3.17,3.8-5.34,4.81-2.32,1.07-4.3,2.68-6.65,3.67-2.69,1.14-5.42,1.53-8.29,1.13Zm1.93-12.92c-.89,.32-2.15,.27-1.9,1.95,.12,.83-.91,.5-1.41,.54-.78,.06-1.57-.1-2.36-.1-.6,0-1.2,.01-1.13,.94,.09,1.17-1.85,2.42-2.94,1.94-.6-.26-.49-.69-.28-1.14,.41-.9,.97-1.82,.83-2.81-.28-2.05,.95-2.65,2.55-3.32,3.67-1.52,7.24-3.25,10.86-4.89-2.65-.03-4.83,1.4-7.18,2.27-2.03,.75-3.95,1.79-6.05,2.36-.59,.16-1.41,.6-1.7-.29-.21-.67,.34-1.24,1.02-1.5,2.2-.86,4.36-1.84,6.61-2.52,4.07-1.23,7.62-3.48,11.34-5.44,3.95-2.09,7.59-4.68,11.37-7.04,.78-.48,1.61-.74,2.37-.03,.72,.67,.4,1.5,.05,2.2-2,3.99-4.83,7.28-8.21,10.21-3,2.6-6.37,4.32-10.06,5.56-1.24,.41-2.55,.66-3.78,1.1Zm10.93-47.54c-.47,1.09-1.55,1.92-2.41,2.82-2.34,2.44-5.1,4.34-7.91,6.18-4.38,2.87-8.74,5.78-13.32,8.81,.7-2.06,3.02-2.04,3.57-3.9-2.63,1.15-5.02,2.67-7.27,4.62,1.22,.85,1.48-1.02,2.62-.33-1.38,1.14-2.7,2.25-4.04,3.33-.36,.29-.86,.54-1.28,.22-.6-.46-.02-.81,.26-1.11,.42-.46,.08-1.03,.29-1.5,.24-.56,1.24-.95,.69-1.64-.47-.6-1.14,.48-1.9,.11,.02-.82,.79-.88,1.27-1.22,.47-.34,1.17-.68,1.03-1.32-.19-.87-.97-.31-1.5-.36-.18-.02-.35-.12-.7-.24,1.48-2.84,5.02-3.12,6.85-5.76-1.88-.03-2.87,1.42-4.37,1.9,2.48-3.56,12.38-10.62,15.1-10.81-.11,.8-1.18,.82-1.34,1.78,1.67-.36,2.72-1.4,3.67-2.6h-.01s.02-.03,.03-.04c-1.56,.43-1.79-.28-1.28-1.55,.35-.87,.93-1.61,1.78-2.05,2.24-1.17,4.18-2.67,5.8-4.64,.71-.87,1.85-2.17,2.91-1.35,.94,.74-.42,1.82-.89,2.68-.52,.95-1.01,2.05-2.51,1.68-.25-.06-.86,.36-.91,.62-.42,2.55-2.86,2.8-4.43,4.04-.19,.15-.31,.37-.47,.57,0,0,.01,0,.02,0-.01,.02-.02,.03-.04,.05,.59,.02,1.24-.95,1.69-.18,.44,.74-.31,1.26-.88,1.76-2.99,2.6-6.2,4.87-9.66,6.82-1.53,.87-2.36,2.72-4.07,3.55-1.23,.6-2.31,1.51-3.46,2.28-.44,.29-.97,.58-.85,1.21,.14,.73,.92,.29,1.34,.6,.01,.79-1.12,.91-1.03,2.04,1.8-.34,2.88-1.75,4.25-2.6,1.65-1.02,3.2-2.24,4.72-3.45,.24-.2,1.97-.48,.25-1.35-.47-.24,.29-.87,.66-1.19,1.89-1.64,4.1-2.83,6.14-4.28,1.45-1.04,2.72-2.28,4.09-3.37,4.25-3.4,8.91-6.28,12.77-10.18,.76-.76,2.1-1.88,2.8-1.31,.88,.71,.24,2.19-.38,3.24-.4,.68-.79,1.37-1.24,2.02-.5,.72-.86,1.46-2.12,1.31-1.37-.16-3.69,2.65-4.31,4.1Z"/><path class="d" d="M88.47,108.76c-.4-.47-.84-.23-1.21,.09-1.48,1.26-2.31,.69-3.22-.83-1.22-2.03-3.39-2.9-5.62-3.04-1.32-.09-2.6,.83-3.56,1.91-.92,1.05,.61,2.73-.95,3.61,.17,.19,.3,.45,.51,.57,.75,.45,1.72-.06,2.46,.52,1.22,.96-.56,1.5-.33,2.39,.4,1.53,5.04,4.62,6.59,4.27,.44-.1,.89-.27,1.03-.9-2.12-.63-2.87-3.35-5.32-3.76,2.76,.15,5-1.26,7.4-2.06,.86-.28,1.49-.82,1.99-1.53,.26-.38,.59-.8,.21-1.24Zm-5.73,2.85c-1.29,.55-2.58,.89-3.52-.64l-.72-1.17c-.76-1.09-.81-2.09,.32-2.94,.67-.5,1.4-.4,2.03,0,.58,.37,.48,1.71,.36,2.31-.18,.96-.78,0-1.36-.22-.06-.02-.2,0-.36,.04-.29,.07-.41,.42-.21,.64l.11,.32c.17,.49,.18,.57,.65,.77h0c.39,.29,.9,.41,1.37,.29,.29-.08,.57-.21,.85-.42,.29-.22,.65-.15,.82,.21,.17,.36-.05,.68-.35,.81Z"/><path class="d" d="M108.9,162.7c-1.73,1.59-3.35,3.26-6,3.39-.6,.03-2.4,.71-1.67,1.92,.57,.93,1.85,1.7,3.14,1.88,1.46,.21,2.19-.64,2.46-1.97,.12-.6,.31-1.36,1-1.24,.9,.15,.61,.99,.54,1.63-.23,2-1.85,2.61-3.36,3.23-1.35,.55-2.47-.03-3.2-1.23-.57-.93-1.2-.76-2.01-.4-.42,.19-1.03,.59-1.36-.14-.29-.66,.25-1,.71-1.21,1.06-.48,1.68-.85,.23-1.73-.58-.35-.27-1.09,.41-1.07,1.27,.04,2.05-.58,2.81-1.47,.47-.55,1.2-.43,1.85-.18,1.25,.48,1.87-.28,2.24-1.26,.22-.57-.09-1.44,.84-1.55,1.03-.12,.98,.87,1.31,1.46l.05-.06Z"/><path class="d" d="M118.73,209.03c-.29,1.04-1.27,2.21,.56,2.95,.33,.13-.05,.85-.22,1.26-.41,.99-1.1,1.86-.04,3.01,.57,.63,.07,1.68-.77,1.89-1.13,.29-.52-.87-.81-1.25-1.06-1.38-.43-2.49,.25-3.69,.17-.3,.15-1.08,.06-1.1-2.6-.78-.12-2.31-.5-3.41-.18-.53,.15-1.17,.79-1.1,.76,.08,.72,.79,.69,1.43Z"/><path class="d" d="M89.38,175.78c-1.01-.04-1.76-.43-2.27-1.15-.42-.59-.06-1.12,.36-1.57,.35-.37,.61-.91,1.24-.83,.74,.09,.64,.69,.68,1.2,.09,1.05,.67,.93,1.36,.57,.5-.26,1.12-.79,1.42,.11,.22,.68-.43,1.06-.98,1.25-.61,.22-1.27,.29-1.82,.41Z"/><path class="d" d="M107.65,198.68c.03,.31-.13,.66-.55,.8-.34,.11-.77-.07-.73-.42,.14-1.19-.8-1.85-1.23-2.76-.28-.58-.18-1.02,.39-1.29,.62-.29,.82,.27,.98,.65,.41,.95,.73,1.94,1.14,3.03Z"/><path class="d" d="M88.5,129.12c-.63,.11-.96,.18-1.08-.26-.15-.5,.18-.73,.57-.85,1.01-.3,1.94-.7,2.72-1.44,.26-.25,.71-.5,1.01-.07,.25,.36,0,.74-.29,1.02-.9,.9-1.93,1.54-2.93,1.59Z"/><path class="d" d="M72.08,142.6c-.5,.8-1.07,1.76-1.71,2.68-.19,.27-.61,.24-.89,.01-.28-.23-.35-.57-.23-.9,.42-1.09,1.24-1.87,2.17-2.5,.34-.23,.8-.1,.67,.71Z"/><path class="d" d="M116.93,205.23c-.16,.77,.02,1.91-1.08,1.98-.76,.05-.6-.91-.52-1.43,.11-.75-.29-1.94,.94-2,.68-.04,.62,.85,.67,1.45Z"/><path class="d" d="M90.69,167.99c-.2,.74-.82,.91-1.45,1.01-.63,.1-1.26-.01-1.3-.77-.03-.68,.56-.99,1.14-1.11,.72-.15,1.22,.24,1.61,.87Z"/><path class="d" d="M76.47,136.33c-.05,.9-.74,1.15-1.29,1.45-.56,.31-1.29,1.27-1.79,.27-.41-.81,.67-1.14,1.27-1.39,.5-.21,1.02-.66,1.8-.32Z"/><path class="d" d="M83.04,131.11c1.06-1.07,2.29-.84,3.3-1.23,.34-.13,.66-.07,.74,.35,.05,.3-.14,.5-.41,.56-1.1,.22-2.17,.89-3.62,.32Z"/><path class="d" d="M59.75,117.86c-.52,.02-.95-.09-.86-.73,.09-.67,.33-1.3,1.11-1.41,.63-.09,1.01,.24,.99,.88-.02,.78-.52,1.14-1.24,1.26Z"/><path class="d" d="M81.66,132.8c-1.09,1.03-2.01,1.53-3.18,1.19-.28-.08-.38-.42-.17-.63,.89-.88,1.98-.71,3.35-.56Z"/><path class="d" d="M77.29,228.06c.5,.11,.71,.53,.91,.94,1.3,2.62,2.95,4.94,5.53,6.47,.41,.24,.81,.64,.51,1.12-.33,.51-.79,.18-1.2-.04-3.13-1.68-4.39-4.91-6.27-7.62-.34-.49-.15-.87,.52-.87Z"/><path class="d" d="M76.3,231.71c.66,.02,.97,.42,1.14,.81,.98,2.17,2.11,4.18,4.47,5.15,.24,.1,.36,.37,.28,.66-.12,.43-.42,.67-.84,.71-.64,.06-1.22-.22-1.55-.7-1.25-1.81-2.43-3.67-3.63-5.52-.28-.43-.29-.83,.13-1.1Z"/><path class="d" d="M86.64,214.29c-1.9-2.27-3.61-4.63-4.1-7.58l.6-.31c.71,1.41,1.68,2.75,2.04,4.24,.33,1.32,2.08,2.05,1.42,3.69l.04-.03Z"/><path class="d" d="M94.37,219.81c1.69,1.36,2.94,3.1,4.58,4.46,.24,.2,.45,.54,.18,.85-.29,.34-.6,.09-.85-.11-1.73-1.4-2.81-3.3-3.91-5.2Z"/><path class="d" d="M76.5,236.44c-.09,.21-.11,.44-.24,.54-.24,.19-.54,.08-.67-.14-.67-1.18-1.73-2.11-2.19-3.42-.12-.34-.17-.67,.23-.8,.21-.07,.61-.02,.7,.12,.75,1.21,1.45,2.45,2.17,3.69Z"/><path class="d" d="M77.26,237.83c.18,.16,.44,.35,.64,.58,.38,.44,.66,.97,1.27,1.15,.59,.18,1.55,.25,.92,1.17-.5,.73-1.16,.11-1.66-.29-.61-.48-1.28-.91-1.57-1.68-.14-.36-.31-.76,.4-.94Z"/><path class="d" d="M101.88,153.92c-.13,.04-.25,.1-.38,.12-.62,.07-1.38,.79-1.8,.18-.46-.67,.49-1.07,.87-1.55,.49-.61,1.19-1.17,.79-2.07-.42-.95-1.23-.44-1.91-.38-.32,.03-.66,.09-.96-.3,.64-1.25,1.85-1.58,3.08-1.59,1.27,0,1.79,1.19,1.57,2.49-.2,1.19-1.44,1.87-1.33,3.13l.05-.04Z"/><path class="d" d="M53.43,146.84c-1.84-.52-2.7-2.1-3.41-3.5-.64-1.26-1.25-2.59-1.79-3.92-1.07-2.64-1-5.45-1.08-8.21-.03-.94-.7-1.54-.8-2.39-.05-.46-.2-1,.36-1.19,.61-.21,.84,.36,.89,.78,.18,1.45,1.56,2.65,.81,4.3-.21,.46,.22,1,.54,1.43,.7,.96,1.7,1.68,.84,3.24-.41,.75,.83,1.48,1.52,2.08,.77,.67,1.33,1.29-.32,1.47-1.06,.12-.39,.71-.2,1.08,.84,1.61,1.64,3.24,2.65,4.82Z"/><path class="d" d="M115.46,181.58c2.06,.64,2.8,2.09,3.81,3.23,.2,.22,.36,.59,.02,.85-.32,.25-.64,.07-.86-.17-.99-1.13-2.28-2.04-2.97-3.91Z"/></g><text class="e" transform="translate(0 57.51)"><tspan x="0" y="0">Fitbit</tspan></text></g></g></g></svg>