<?xml version="1.0" encoding="UTF-8"?>
<svg id="Layer_2" data-name="Layer 2" xmlns="http://www.w3.org/2000/svg" viewBox="0 0 93.83 93.83">
  <defs>
    <style>
      .cls-1 {
        fill: #fcf8f1;
      }

      .cls-2 {
        fill: #382c5e;
      }
    </style>
  </defs>
  <g id="Layer_1-2" data-name="Layer 1">
    <circle class="cls-2" cx="46.91" cy="46.91" r="46.91"/>
    <path class="cls-1" d="M50.97,29.15c-.42-.72-1.07-1.23-1.64-1.81-1.43-1.44-3.33-1.43-4.77,.02-.91,.92-1.79,1.86-2.69,2.79-1.16,1.42-2.33,2.83-3.49,4.25-2.02,2.78-3.93,5.63-5.35,8.77-1.18,2.61-2.05,5.33-2.07,8.21-.04,4.02,1.23,7.63,3.92,10.67,3.58,4.05,8.13,5.81,13.51,5.47,.8-.05,1.63-.13,2.39-.47-.27-.11-.53-.23-.8-.32,.27,.09,.53,.21,.8,.32,9.05-2.23,14.08-11.27,11.35-20.45-1.2-4.02-3.33-7.56-5.74-10.95-.29-.41-.58-.82-.86-1.23-1.16-1.43-2.32-2.86-3.48-4.29-.36-.33-.71-.65-1.07-.98"/>
  </g>
</svg>