<?xml version="1.0" encoding="UTF-8"?>
<svg id="Layer_2" data-name="Layer 2" xmlns="http://www.w3.org/2000/svg" viewBox="0 0 74 74">
  <defs>
    <style>
      .cls-1 {
        fill: #b7effe;
      }

      .cls-2 {
        fill: #42c2fb;
      }

      .cls-3 {
        fill: #89e0fe;
        stroke: #42c2fb;
        stroke-miterlimit: 10;
        stroke-width: 2px;
      }
    </style>
  </defs>
  <g id="Layer_1-2" data-name="Layer 1">
    <g>
      <circle class="cls-3" cx="37" cy="37" r="36"/>
      <path class="cls-2" d="M40.88,15.01c.38,.35,.77,.7,1.15,1.05,1.25,1.54,2.5,3.08,3.75,4.61,.31,.44,.62,.88,.93,1.32,2.6,3.65,4.89,7.45,6.18,11.78,2.94,9.88-2.47,19.61-12.21,22.01-.29-.11-.57-.24-.86-.34-7.37-2.39-12.59-10-11.66-17.95,.39-3.3,1.52-6.33,3.01-9.24,1.23-2.4,2.71-4.66,4.32-6.83,1.68-2.25,3.43-4.43,5.4-6.43Zm10.57,24.65c.02-2.25-.36-3.96-1.36-5.46-1.29-1.95-3.32-2.8-5.29-.71-1.15,1.22-1.63,2.71-1.83,4.29-.29,2.3,0,4.54,1.35,6.5,1.56,2.25,3.54,2.39,5.38,.37,1.4-1.53,1.65-3.48,1.76-5Z"/>
      <path class="cls-2" d="M27.34,20.65c1.25-1.53,2.51-3.05,3.76-4.58,.96-1,1.92-2.01,2.9-3,1.55-1.56,3.59-1.57,5.13-.02,.61,.62,1.31,1.17,1.76,1.94-1.98,2-3.72,4.18-5.4,6.43-1.62,2.16-3.09,4.42-4.32,6.83-1.49,2.91-2.62,5.93-3.01,9.24-.93,7.95,4.3,15.57,11.66,17.95,.29,.09,.57,.23,.86,.34-.82,.36-1.71,.45-2.57,.5-5.78,.37-10.68-1.53-14.54-5.88-2.89-3.26-4.25-7.15-4.22-11.48,.03-3.1,.96-6.02,2.23-8.84,1.53-3.38,3.58-6.45,5.76-9.44Z"/>
      <path class="cls-1" d="M51.45,39.66c-.1,1.52-.36,3.46-1.76,5-1.84,2.01-3.82,1.88-5.38-.37-1.36-1.96-1.63-4.2-1.35-6.5,.2-1.59,.68-3.08,1.83-4.29,1.97-2.08,4-1.23,5.29,.71,1,1.5,1.37,3.21,1.36,5.46Z"/>
    </g>
  </g>
</svg>