<?xml version="1.0" encoding="UTF-8"?>
<svg id="Layer_2" data-name="Layer 2" xmlns="http://www.w3.org/2000/svg" viewBox="0 0 364.29 542.01">
  <defs>
    <style>
      .cls-1 {
        fill: none;
      }

      .cls-2 {
        letter-spacing: -.05em;
      }

      .cls-3 {
        fill: #f47933;
      }

      .cls-4 {
        fill: #fdf8f1;
      }

      .cls-5 {
        fill: #fdfeff;
      }

      .cls-6, .cls-7, .cls-8 {
        fill: #392d5e;
      }

      .cls-9 {
        letter-spacing: -.09em;
      }

      .cls-10 {
        letter-spacing: -.01em;
      }

      .cls-11 {
        letter-spacing: -.01em;
      }

      .cls-12 {
        letter-spacing: -.02em;
      }

      .cls-7 {
        font-family: Europa-Light, Europa-Light;
        font-size: 26px;
        font-weight: 300;
      }

      .cls-13 {
        letter-spacing: -.02em;
      }

      .cls-14 {
        letter-spacing: 0em;
      }

      .cls-8 {
        font-family: Europa-Bold, Europa-Bold;
        font-size: 36px;
        font-weight: 700;
      }
    </style>
  </defs>
  <g id="Layer_1-2" data-name="Layer 1">
    <rect class="cls-4" x="2.12" width="362.17" height="540.96"/>
    <path class="cls-5" d="m19.61,128.86c1.19,1.64.24,3.5.53,5.23-1.11-1.65-.27-3.49-.53-5.23Z"/>
    <rect class="cls-1" x="3.18" y="11.51" width="361.11" height="530.5" rx="25.37" ry="25.37"/>
    <rect class="cls-1" x="5.3" y="11.51" width="352.64" height="529.45"/>
    <path class="cls-3" d="m120.92,98.27c-.16,1.49-.89,2.69-1.79,3.87-2.68,3.55-6.06,6.31-9.42,9.13-2.66,2.23-5.24,4.57-7.82,6.9-2.35,2.13-5.04,3.32-8.17,3.64-2.44.25-4.85.75-7.28,1.06-.87.11-1.78.06-2.66-.03-.31-.03-.59-.38-.88-.59.22-.33.38-.84.68-.95,1.28-.46,2.59-.95,3.93-1.14,2.77-.4,5.57-.55,8.29-1.36,2.8-.84,5.33-2.2,7.62-3.98,5.2-4.03,9.79-8.75,14.38-13.47.72-.74,1.3-1.6,1.97-2.39.27-.32.6-.6.9-.9.08.07.16.14.24.21Z"/>
    <path class="cls-6" d="m98.43,125.69c-.07.14-.54,1.14-.62,2.5-.04.64-.07,1.13.19,1.54.47.77,1.67.89,3.47.92,4.51.09,4.95-.49,7.1-.07,1.3.25,1.14.47,3.84,1.16,1.52.39,2.37.61,3.59.74,2,.22,3.5.04,4.79-.11,2.12-.25,2.89-.6,3.22-.76.45-.22,1.24-.63,1.87-1.42.88-1.09.75-2.03,1.08-2.88.4-1.02,1.59-2.28,5.32-3.06.63-.09,1.73-.33,2.73-1.14,1.09-.89,1.5-1.99,1.76-2.67.31-.82.26-1.14.46-1.97.3-1.22.64-1.52,1.69-3.56,1.43-2.79,2.15-4.19,2.54-5.47.08-.27.25-.88.74-1.52.51-.67,1.04-.98,1.45-1.28,1.04-.77,1.52-1.73,2.05-2.81,1.24-2.5.62-5.12.27-6.68-.3-1.32-.51-2.26-1.08-3.45-.49-1.02-.91-1.56-.93-2.53-.02-.97.38-1.75.57-2.12.65-1.24,1.38-1.43,1.61-2.42.11-.48.09-1.14-.14-1.54-1.25-2.17-10.54.25-16.05,2.14-1.65.56-3.64.77-5.61,2.19-1.48,1.06-2.41,2.29-3.52,3.73-.86,1.12-1.88,2.47-2.69,4.42-.89,2.14-.63,2.9-1.2,4.63-.49,1.49-1.36,2.99-4.2,5.8-6.4,6.34-8.29,4.96-10.8,8.98-1.83,2.94-2.02,5.57-3.48,8.68Z"/>
    <path class="cls-3" d="m235.49,129.59c-1.09-.12-2.19-.18-3.25-.39-.4-.08-.99-.47-1.03-.78-.05-.35.34-.87.68-1.14,1.63-1.3,3.67-1.69,5.58-2.37,1.14-.4,2.28-.83,3.34-1.39.86-.46,1.15-1.31,1.17-2.3.03-2.19-.69-4.21-1.53-6.16-1.89-4.39-3.84-8.75-5.94-13.04-2.75-5.61-5.59-11.19-8.54-16.71-3.29-6.15-6.6-12.3-10.19-18.28-2.44-4.07-5.27-7.93-8.14-11.72-1.98-2.61-4.22-5.07-6.56-7.37-2.09-2.05-4.44-3.86-7.3-4.83-4-1.36-6.9-.54-9.62,2.64-.71.83-.74.81-1.45-.06-4.25-5.18-8.52-10.35-12.78-15.52-.69-.84-1.43-1.64-2.06-2.52-.15-.21-.08-.8.12-1,3.41-3.45,7.45-5.97,12-7.68,2.89-1.08,5.91-1.77,9-1.83,4.78-.08,9.17,1.25,13.16,3.91,4.98,3.33,8.54,7.88,11.61,12.88,1.2,1.95,2.48,3.86,3.52,5.89,2.79,5.43,5.62,10.85,8.13,16.4,2.9,6.4,5.59,12.91,8.16,19.45,2.34,5.95,4.5,11.98,6.57,18.02,2.06,6.02,4.03,12.07,5.81,18.17,1.2,4.08,2,8.27,2.99,12.41.18.74-.04,1.24-.67,1.69-2.56,1.86-5.56,2.54-8.58,3.13-1.37.27-2.78.33-4.19.48Z"/>
    <path class="cls-3" d="m89.15,128.35c-2.11-.43-4.37-.87-6.62-1.38-.38-.09-.69-.47-1.04-.71.33-.27.62-.7,1-.8,1.35-.34,2.72-.61,4.1-.83,2.58-.41,5.17-.78,7.76-1.13,2.51-.34,4.45-1.77,6.31-3.26,3.8-3.05,7.48-6.25,11.25-9.34,2.94-2.4,5.25-5.34,7.5-8.33,3.19-4.24,6.28-8.56,8.87-13.18,1.29-2.3,2.26-4.77,3.43-7.14,1.52-3.1,3.02-6.22,4.64-9.27,1.73-3.23,3.56-6.41,5.42-9.58,1.5-2.54,3.05-5.06,4.67-7.53,2.94-4.48,5.79-9.04,8.96-13.35,3.82-5.19,7.96-10.16,11.94-15.24.45-.57.71-.44,1.1.05,2.97,3.69,5.97,7.35,8.96,11.03,1.73,2.13,3.46,4.26,5.18,6.4.11.14.22.29.34.42q.97,1.08.14,2.31c-4.21,6.24-8.41,12.5-12.66,18.72-1.07,1.57-1.35,3.38-1.98,5.09-1.55,4.25-4.44,7.3-8.74,8.87-3.22,1.18-6.5,2.22-9.8,3.15-4.08,1.14-7.17,3.51-9.75,6.74-3.78,4.74-7.65,9.41-11.52,14.08-2.98,3.59-6.67,6.36-10.58,8.9-3.36,2.18-6.63,4.48-9.92,6.75-3.34,2.31-6.64,4.67-10,6.94-.73.49-1.63.9-2.5,1.02-2.07.29-4.17.39-6.46.58Z"/>
    <path class="cls-3" d="m193.09,40.81c1.51,1.1,3.14,2.08,4.5,3.33,4.39,4.03,8.44,8.36,11.8,13.24,2.55,3.69,5.08,7.4,7.43,11.2,2.15,3.48,4.1,7.07,6.03,10.67,3.14,5.85,6.23,11.72,9.28,17.61,2.32,4.47,4.65,8.94,6.76,13.51,1.46,3.17,2.55,6.5,3.76,9.77.2.55.22,1.18.23,1.78.03,1.11-.57,1.9-1.61,2.28-1.29.47-2.63.79-3.93,1.26-1.96.7-4.02,1.23-5.53,2.78-.14.15-.51.09-.78.12,0-.26-.12-.65.02-.77.78-.7,1.55-1.47,2.47-1.96,1.46-.78,3.05-1.33,4.57-2.01,2.78-1.24,3.52-2.83,2.68-5.69-.95-3.22-2.56-6.15-4.2-9.09-1.97-3.54-3.85-7.13-5.81-10.67-1.27-2.29-2.6-4.55-3.92-6.81-2.92-4.99-5.81-9.99-8.8-14.94-3.18-5.25-6.37-10.49-9.74-15.63-2.4-3.66-5.09-7.15-7.69-10.7-2.11-2.87-4.34-5.65-7.1-7.99-.32-.27-.52-.66-.77-1,.11-.1.22-.2.34-.3Z"/>
    <path class="cls-3" d="m145.88,86.16c-.23.39-.41.82-.7,1.15-1.31,1.49-1.48,2.98-.67,4.88.88,2.08,1.5,4.32,1.83,6.55.44,2.96-.63,5.54-2.96,7.57-.55.48-.74.2-1.01-.26-1.26-2.14-1.4-4.45-1.03-6.81.4-2.62.43-5.2-.54-7.72-.09-.24-.04-.66.12-.83,1.44-1.53,2.93-3.03,4.41-4.53.09-.09.25-.1.38-.15.06.05.12.1.19.14Z"/>
    <text class="cls-8" transform="translate(80.97 175.51) scale(1.01 1)"><tspan class="cls-2" x="0" y="0">W</tspan><tspan class="cls-12" x="33.73" y="0">e</tspan><tspan x="52.06" y="0">’</tspan><tspan class="cls-13" x="58.75" y="0">r</tspan><tspan x="72.11" y="0">e sorry!</tspan></text>
    <text class="cls-7" transform="translate(48.36 225.8) scale(1.01 1)"><tspan class="cls-9" x="0" y="0">Y</tspan><tspan x="12.32" y="0">ou don’t ha</tspan><tspan class="cls-11" x="136.73" y="0">v</tspan><tspan x="148.69" y="0">e any runs </tspan><tspan x="2.46" y="31.2">logged </tspan><tspan class="cls-14" x="86.25" y="31.2">y</tspan><tspan x="98.76" y="31.2">et! Come back </tspan><tspan x="31.78" y="62.4">when </tspan><tspan class="cls-14" x="99.02" y="62.4">y</tspan><tspan x="111.53" y="62.4">ou’</tspan><tspan class="cls-10" x="142.83" y="62.4">v</tspan><tspan x="154.79" y="62.4">e done </tspan><tspan x="70.46" y="93.6">something.</tspan></text>
  </g>
</svg>