<?xml version="1.0" encoding="UTF-8"?>
<svg id="Layer_2" data-name="Layer 2" xmlns="http://www.w3.org/2000/svg" viewBox="0 0 220.37 36.01">
  <defs>
    <style>
      .cls-1 {
        fill: #f8bc17;
      }

      .cls-2 {
        fill: #f9bc17;
      }

      .cls-3 {
        fill: #eb4c3b;
      }

      .cls-4 {
        fill: #fdda02;
      }
    </style>
  </defs>
  <g id="Layer_1-2" data-name="Layer 1">
    <g>
      <path class="cls-2" d="M127.91,20.48c0,4.17-.07,8.34,.03,12.51,.04,1.69-.57,2.34-2.23,2.16-.56-.06-1.15-.06-1.71,0-1.71,.2-2.21-.55-2.21-2.2,.06-9.98,.05-19.96,0-29.94,0-1.58,.36-2.31,2.15-2.23,2.78,.13,5.57,.06,8.35-.04,1.36-.05,1.88,.62,2.24,1.77,1.07,3.45,2.2,6.88,3.33,10.31,.26,.79,.37,1.66,1.02,2.35,.97-.27,.89-1.19,1.13-1.85,1.27-3.53,2.55-7.07,3.69-10.64,.47-1.46,1.18-2.04,2.77-1.95,2.78,.15,5.57,.14,8.35,.11,1.29-.01,1.78,.5,1.77,1.76-.02,10.26-.02,20.53,0,30.79,0,1.27-.5,1.77-1.78,1.75-2.86-.05-5.72-.07-8.58,.01-1.56,.05-1.95-.65-1.94-2.04,.05-4.24,.02-8.48,.02-12.77-.93,.17-.86,.85-1.02,1.32-1.21,3.4-2.42,6.81-3.55,10.24-.44,1.33-1.13,2.05-2.62,1.88-.71-.08-1.44-.08-2.14,0-1.55,.17-2.31-.51-2.77-1.97-1.2-3.83-2.55-7.62-3.84-11.43-.16,.03-.31,.06-.47,.08Z"/>
      <path class="cls-2" d="M161.86,17.86c0-4.95,.06-9.9-.03-14.84-.03-1.63,.49-2.32,2.16-2.28,5.06,.11,10.13,.06,15.19,.26,3.57,.14,6.38,1.85,7.58,5.27,1.15,3.27,.75,6.45-2.04,8.94-.83,.74-.74,1.09,.2,1.68,4.31,2.69,5.68,6.25,4.35,11.04-1.22,4.41-4.88,7.17-9.67,7.21-5.14,.04-10.28-.04-15.42,.05-1.73,.03-2.39-.45-2.35-2.26,.11-5.02,.04-10.04,.04-15.06Zm14.89,1.77c-.91,.31-2.7-.79-2.78,1.39-.08,2.25-.02,4.51,0,6.77,0,.51,.12,.94,.67,1.21,3.39,1.63,7.78-1.02,7.81-4.72,.02-3.04-1.86-4.61-5.69-4.64Zm.13-12.78c-.78,.48-2.43-.69-2.76,.87-.34,1.61-.11,3.35-.08,5.03,0,.48,.39,.76,.86,.79,1.7,.12,3.42,.28,5.02-.5,1.45-.71,1.95-1.97,1.79-3.51-.16-1.49-1.17-2.19-2.51-2.49-.69-.15-1.41-.13-2.3-.2Z"/>
      <path class="cls-2" d="M105.04,.75c1.35,0,2.72,.11,4.06-.03,1.76-.19,2.54,.49,2.98,2.18,2.07,7.93,4.25,15.84,6.39,23.76,.59,2.18,1.13,4.38,1.81,6.54,.41,1.33,.24,1.99-1.35,1.96-3.07-.06-6.14-.04-9.21-.01-1.1,.01-1.78-.38-1.96-1.49-.01-.07-.03-.14-.06-.2-.69-1.68-.22-4.21-1.89-4.98-2.07-.95-4.63-.26-6.98-.29-.76,0-1.17,.43-1.36,1.12-.23,.82-.47,1.63-.69,2.45-1,3.64-1.17,3.71-4.97,3.53-1.68-.08-2.26-.53-1.76-2.31,2.31-8.24,4.51-16.51,6.75-24.76,.48-1.77,1.02-3.54,1.4-5.33,.3-1.46,.88-2.26,2.57-2.06,1.41,.17,2.85,.03,4.27,.03,0-.03,0-.05,0-.08Zm-3.38,12.65c-.65,2.43-1.3,4.85-1.94,7.28-.22,.83,.05,1.41,1,1.44,.85,.03,1.7,.02,2.55,0,.8-.02,1.22-.45,1.01-1.23-.66-2.49-1.1-5.05-2.63-7.49Z"/>
      <path class="cls-2" d="M204.95,.8c.36,0,.71,0,1.07,0q5.38,.15,6.77,5.22c2.41,8.87,4.82,17.74,7.22,26.62,.67,2.47,.63,2.5-1.9,2.51-2.71,.01-5.43-.05-8.14,.03-1.36,.04-2.03-.4-2.42-1.75-1.52-5.27-1.57-5.17-7.12-5.31-2.06-.05-3.3,.44-3.47,2.61-.02,.21-.11,.41-.16,.61-1.05,3.94-1.05,3.86-5.12,3.84-1.89,0-2.16-.73-1.7-2.33,1.24-4.35,2.4-8.73,3.58-13.1,1.52-5.6,3.1-11.18,4.52-16.8,.41-1.62,1.17-2.24,2.81-2.11,1.35,.11,2.71,.02,4.07,.02,0-.02,0-.04,0-.07Zm-2.68,12.82c-.24-.01-.48-.03-.72-.04-.65,2.42-1.32,4.84-1.92,7.27-.18,.74,.18,1.25,1,1.28,.85,.03,1.71,.03,2.56,.02,.79-.01,1.23-.41,1.02-1.22-.63-2.44-1.3-4.87-1.95-7.3Z"/>
      <path class="cls-1" d="M75.82,0c3.23-.07,6.23,.66,9.05,2.23,1.24,.69,1.74,1.39,.73,2.64-.44,.55-.83,1.16-1.15,1.79-.54,1.07-1.21,1.12-2.25,.61-1.97-.96-4.09-1.24-6.27-.87-1.15,.19-2.29,.53-2.56,1.89-.28,1.43,.61,2.3,1.74,2.86,1.59,.8,3.25,1.47,4.89,2.16,1.91,.8,3.81,1.61,5.53,2.79,5.19,3.56,5.97,10.41,1.7,14.99-6.2,6.65-18.6,6.54-24.65-.17-.86-.95-.96-1.66,.11-2.44,.35-.25,.73-.47,1.02-.78,1.4-1.49,2.61-1.92,4.46-.32,1.94,1.67,4.53,2.01,7.11,1.67,1.41-.18,2.77-.67,3.06-2.22,.26-1.43-.91-2.16-2.01-2.7-2.75-1.35-5.6-2.51-8.32-3.93-3.17-1.65-5.45-4.11-6.13-7.74-1.18-6.24,3.07-11.29,10.31-12.23,1.2-.16,2.42-.16,3.64-.23Z"/>
      <path class="cls-1" d="M22.6,12.11c-1.15-2.39-2.3-4.79-3.46-7.18-.59-1.23-1.21-2.44-1.8-3.67-.45-.93-.27-1.24,.71-1.24,5.91,0,11.82,0,17.72,0,1.03,0,1.2,.27,.77,1.2-1.41,3.05-2.82,6.09-4.23,9.14-.13,.28-.38,.52-.24,.88,.37,0,.44-.32,.58-.54,1.74-2.69,3.5-5.36,5.2-8.08C38.97,.84,40.48-.04,42.59,0c2.22,.05,4.45,.03,6.67,0,.61,0,.84,.16,.83,.79-.02,3.61,.02,7.23-.02,10.84-.03,2.71-1.72,4.5-4.48,4.91-1.57,.24-3.14,.45-4.69,.78-2.47,.53-4.6,1.74-6.48,3.48,.54,.05,.54,.05,.92-.17,2.78-1.59,5.78-2.37,8.97-2.57,1.61-.1,3.22-.27,4.83-.48,.78-.1,.98,.12,.98,.88-.03,4.25-.03,8.49,0,12.74,0,.79-.4,.76-.95,.76-5.21,0-10.42,0-15.63,0-2.77,0-3.93,.9-4.51,3.58-.1,.47-.37,.43-.68,.43-1.05,0-2.1,0-3.14,0-8.04,0-16.07-.01-24.11,.02-.88,0-1.15-.24-1.09-1.11,.12-1.8-.08-3.6,.18-5.41,.72-4.86,5.06-8.68,10.04-8.72,2.76-.02,5.51,0,8.29-.18-1.7-.32-3.39-.65-5.09-.98-2.11-.41-4.25-.73-6.33-1.26C2.91,17.28,.05,13.52,.03,9.19,.01,6.44,.04,3.68,0,.92,0,.22,.18-.01,.91,0,3.64,.04,6.37,0,9.1,.02c2.17,.03,3.88,1,5.26,2.65,2.56,3.06,5.15,6.11,7.73,9.15,.12,.14,.28,.25,.41,.38,.04,.04,.07,.09,.11,.13,.1-.08,.05-.16-.02-.23Zm9.21-.53c-.08,.12-.36,.21-.15,.38,.12,.1,.24-.11,.29-.25,.06-.09,.14-.18,.02-.28,0,0-.1,.1-.16,.15Zm-5.33,21.38c.23-.72,.42-1.35,.63-1.97,1.23-3.63,3.54-6.63,5.82-9.62,1.51-1.97,3.6-3.28,5.92-4.17,2.18-.84,4.5-1.04,6.78-1.37,2.18-.32,3.71-1.92,3.72-4.11,.02-3.36,0-6.72,.02-10.08,0-.65-.17-.89-.85-.87-2.03,.04-4.07,.05-6.1,0-1.73-.04-2.96,.7-3.87,2.13-2.22,3.47-4.46,6.93-6.69,10.39-.28,.43-.47,.76-1.1,.39-.58-.33-.52-.61-.28-1.11,1.7-3.61,3.37-7.23,5.05-10.85,.43-.93,.43-.94-.64-.94-5.34,0-10.67,0-16.01,0-.28,0-.55,.03-.97,.05,2.65,5.4,5.25,10.7,7.88,16.06-.52,.09-.58-.23-.73-.4-3.82-4.5-7.62-9-11.43-13.5-1.12-1.32-2.51-2.15-4.27-2.19-2.6-.05-5.21,0-7.81-.03-.64,0-.8,.21-.8,.82,.03,2.5,0,5.01,.01,7.51,0,4.46,2.98,7.99,7.4,8.81,3.61,.67,7.22,1.37,10.83,2.04,.47,.09,.84,.11,.73,.79-.09,.58-.25,.8-.87,.79-2.79-.03-5.59,0-8.38-.02-.86,0-1.72,.09-2.54,.33C1.62,23.74,.12,29.09,.94,34.57c6.79-6.67,18.92-8.05,25.54-1.61Zm14.1-1.73c2.54,0,5.08-.06,7.62,.03,1.01,.03,1.21-.31,1.18-1.23-.07-2.06-.02-4.12-.02-6.18,0-1.58,0-3.17,0-4.75,0-.41-.01-.78-.6-.71-2.45,.29-4.94,.31-7.37,.79-8.13,1.6-12.83,7.46-14.42,15.08-.06,.29-.39,.82,.22,.93,.49,.08,1.01,.22,1.26-.58,.71-2.27,2.32-3.37,4.71-3.38,2.48,0,4.95,0,7.43,0ZM1.48,35.22c8.17,0,16.06,0,23.96,0,.45,0,.65-.12,.74-.61,.1-.58-.07-.95-.47-1.33-1.82-1.72-3.95-2.86-6.38-3.38-4.76-1.03-9.25-.11-13.52,2.07-1.55,.79-2.97,1.77-4.32,3.25Z"/>
      <path class="cls-3" d="M26.48,32.96c-6.63-6.44-18.75-5.05-25.54,1.61-.82-5.48,.68-10.83,7.02-12.73,.82-.25,1.67-.34,2.54-.33,2.79,.01,5.59-.01,8.38,.02,.62,0,.78-.21,.87-.79,.11-.69-.26-.71-.73-.79-3.61-.67-7.22-1.37-10.83-2.04C3.77,17.08,.79,13.55,.79,9.08c0-2.5,.02-5.01-.01-7.51,0-.61,.16-.83,.8-.82,2.6,.03,5.21-.02,7.81,.03,1.75,.03,3.15,.86,4.27,2.19,3.81,4.5,7.62,9,11.43,13.5,.15,.17,.21,.49,.73,.4-2.63-5.36-5.23-10.66-7.88-16.06,.41-.02,.69-.05,.97-.05,5.34,0,10.67,0,16.01,0,1.07,0,1.07,0,.64,.94-1.68,3.62-3.35,7.24-5.05,10.85-.24,.5-.29,.78,.28,1.11,.63,.37,.82,.04,1.1-.39,2.23-3.47,4.47-6.92,6.69-10.39,.91-1.43,2.14-2.17,3.87-2.13,2.03,.05,4.07,.04,6.1,0,.68-.01,.86,.22,.85,.87-.03,3.36,0,6.72-.02,10.08-.01,2.19-1.54,3.79-3.72,4.11-2.28,.33-4.6,.53-6.78,1.37-2.32,.9-4.41,2.2-5.92,4.17-2.28,2.99-4.59,5.99-5.82,9.62-.21,.62-.4,1.26-.63,1.97Z"/>
      <path class="cls-3" d="M40.59,31.23c-2.48,0-4.95,0-7.43,0-2.38,0-3.99,1.11-4.71,3.38-.25,.8-.77,.66-1.26,.58-.61-.1-.28-.64-.22-.93,1.6-7.62,6.3-13.48,14.42-15.08,2.43-.48,4.91-.5,7.37-.79,.59-.07,.6,.3,.6,.71,0,1.58,0,3.17,0,4.75,0,2.06-.05,4.12,.02,6.18,.03,.92-.17,1.26-1.18,1.23-2.54-.08-5.08-.03-7.62-.03Z"/>
      <path class="cls-3" d="M1.48,35.22c1.35-1.48,2.77-2.46,4.32-3.25,4.27-2.17,8.76-3.1,13.52-2.07,2.43,.53,4.57,1.66,6.38,3.38,.4,.38,.58,.75,.47,1.33-.09,.5-.29,.61-.74,.61-7.9,0-15.8,0-23.96,0Z"/>
      <path class="cls-4" d="M31.95,11.71c-.06,.14-.17,.35-.29,.25-.21-.17,.08-.26,.15-.38,.05,.04,.09,.09,.14,.13Z"/>
      <path class="cls-4" d="M31.81,11.58c.05-.05,.15-.16,.16-.15,.12,.1,.04,.19-.02,.28-.05-.04-.09-.09-.14-.13Z"/>
      <path class="cls-4" d="M22.6,12.11c.07,.07,.12,.14,.02,.23-.04-.04-.07-.09-.11-.13,.03-.03,.06-.06,.09-.09Z"/>
    </g>
  </g>
</svg>