<?xml version="1.0" encoding="UTF-8"?>
<svg id="Layer_2" data-name="Layer 2" xmlns="http://www.w3.org/2000/svg" viewBox="0 0 92 92">
  <defs>
    <style>
      .cls-1 {
        fill: #fcf8f1;
      }

      .cls-2 {
        fill: #382c5e;
      }
    </style>
  </defs>
  <g id="Layer_1-2" data-name="Layer 1">
    <circle class="cls-2" cx="46" cy="46" r="46"/>
    <g>
      <path class="cls-1" d="M33.5,64.11s0-.02,0-.03c0,0-.01,0-.02,0,0,0,.01,.02,.01,.02Z"/>
      <polygon class="cls-1" points="67.4 53.88 67.4 53.88 67.4 53.87 67.4 53.88"/>
      <path class="cls-1" d="M67.4,53.88c-.13,.11-.25,.24-.39,.34-6.1,4.1-12.43,4.5-18.96,1.13-2.32-1.2-4.15-3-5.77-5.02-2.16-3.07-3.41-6.47-3.37-10.24,.09-7.24,3.34-12.6,9.73-16.05-.28-.27-.66-.12-.96-.2-.89-.24-1.84-.2-2.75-.08-12.74,1.61-21.02,11.8-20.35,23.73,.24,4.2,1.6,8.04,4.09,11.46,.16,.25,.32,.51,.5,.75,1.18,1.6,2.68,2.89,4.18,4.18,.09,.05,.19,.09,.17,.21,.17-.07,.23,.05,.3,.17,0,0,0-.02,0-.02,.09,.04,.19,.06,.27,.12,4.86,3.27,10.2,4.64,16,3.69,8.17-1.34,13.87-5.93,17.24-13.46,.1-.22,.27-.44,.09-.7Z"/>
    </g>
  </g>
</svg>