<?xml version="1.0" encoding="UTF-8"?>
<svg id="Layer_2" data-name="Layer 2" xmlns="http://www.w3.org/2000/svg" viewBox="0 0 74 74">
  <defs>
    <style>
      .cls-1 {
        fill: #e8ecf4;
      }

      .cls-2 {
        fill: #fff;
      }

      .cls-3 {
        fill: #7584f1;
        stroke: #4855b6;
        stroke-miterlimit: 10;
        stroke-width: 2px;
      }
    </style>
  </defs>
  <g id="Layer_1-2" data-name="Layer 1">
    <g>
      <circle class="cls-3" cx="37" cy="37" r="36"/>
      <g>
        <path class="cls-1" d="M24.69,53.15s0-.02,0-.03c0,0-.01,0-.02,0,0,0,.01,.02,.01,.02Z"/>
        <polygon class="cls-1" points="58.48 42.95 58.48 42.95 58.48 42.95 58.48 42.95"/>
        <path class="cls-1" d="M58.48,42.95c-.13,.11-.25,.24-.39,.34-6.08,4.09-12.39,4.49-18.9,1.13-2.32-1.19-4.13-2.99-5.76-5-2.15-3.06-3.4-6.45-3.36-10.21,.08-7.22,3.33-12.56,9.7-15.99-.22-.22-.52-.16-.79-.18-3.08-.17-6.07,.29-8.95,1.41-9.2,3.57-14.82,12.26-14.25,22.15,.24,4.19,1.6,8.01,4.08,11.42,.16,.25,.32,.5,.5,.74,1.18,1.6,2.67,2.88,4.16,4.16,.09,.05,.19,.09,.17,.21,.17-.07,.23,.05,.29,.17,0,0,0-.02,0-.02,.09,.04,.19,.06,.27,.12,4.85,3.26,10.16,4.62,15.95,3.67,8.15-1.34,13.83-5.91,17.19-13.42,.1-.22,.27-.44,.09-.7Z"/>
      </g>
      <path class="cls-2" d="M49.25,28.94c.13,.51,.37,.98,.58,1.45,.11,.25,.08,.4-.12,.6-.92,.89-1.82,1.8-2.72,2.71-.09,.09-.22,.16-.25,.34,1.05,0,2.08,.01,3.11,0,.35,0,.5,.07,.47,.46-.04,.58,0,1.16-.01,1.74,0,.13,.03,.29-.18,.29-1.34-.02-2.69,.06-4.03-.04,0-1.61,0-3.22,0-4.83,0-.15,.02-.3-.06-.43-.02-.05-.03-.1-.05-.14,.11-.12,.11-.27,.11-.42,0-.66,0-1.32,0-1.97,.69-.1,1.38-.02,2.07-.05,.2,0,.4-.01,.6-.02,.15,.03,.33-.01,.42,.17,0,.07,0,.14,.08,.17h0Z"/>
      <path class="cls-2" d="M54.87,16.92c.23,.56,.46,1.12,.69,1.68,.06,.14,.11,.25-.03,.39-1.53,1.5-3.04,3.01-4.56,4.52,0-.95,0-1.9,0-2.85,0-.16,.03-.32-.08-.46,.28-.31,.56-.61,.88-.95-.3-.02-.55-.03-.79-.04v-2.41c.8-.1,1.61-.02,2.42-.04,.38-.01,.75,0,1.13,0,.15,0,.3-.01,.36,.18Z"/>
      <path class="cls-2" d="M50.88,20.19c.11,.14,.08,.31,.08,.46,0,.95,0,1.9,0,2.85-.06,.11-.22,.16-.22,.31,0,.01,.14,.03,.22,.04,0,.8,0,1.6,0,2.41-1.08,0-2.16,.01-3.23,.02-.27-.64-.54-1.28-.83-1.91-.09-.19,.04-.27,.14-.37,.74-.76,1.49-1.51,2.23-2.26,.53-.52,1.07-1.03,1.6-1.55Z"/>
      <path class="cls-2" d="M50.96,16.78v2.41c-1.38,0-2.76,.02-4.14,.03-.16-.48-.06-.98-.07-1.47-.02-.98,0-.98,.97-.98,1.08,0,2.15,0,3.23,.01Z"/>
      <path class="cls-2" d="M46.05,31.21c.07,.14,.06,.29,.06,.43,0,1.61,0,3.22,0,4.83-.73,0-1.45,0-2.18,.02-.19,0-.28-.07-.35-.25-.21-.54-.43-1.07-.66-1.6-.07-.16-.05-.27,.08-.39,1.03-1.01,2.04-2.03,3.07-3.04Z"/>
      <path class="cls-2" d="M46.1,28.68c0,.66,0,1.32,0,1.97,0,.15,0,.3-.11,.42-1.02,0-2.05,.01-3.07,.02-.19,0-.26-.06-.26-.26,0-.63,0-1.27,0-1.9,0-.21,.07-.28,.28-.28,1.05,.01,2.1,.01,3.15,.02Z"/>
      <path class="cls-2" d="M50.96,26.26c0-.8,0-1.6,0-2.41,1.6,0,3.2,0,4.81-.02,.17,0,.24,.06,.23,.23,0,.66,0,1.32,0,1.98,0,.17-.06,.24-.23,.24-1.6-.01-3.2-.02-4.81-.02Z"/>
    </g>
  </g>
</svg>