<svg id="Capa_1" enable-background="new 0 0 510.812 510.812" height="512" viewBox="0 0 510.812 510.812" width="512" xmlns="http://www.w3.org/2000/svg"><g><path d="m343.956 311.779c-10.172-22.248-30.492-37.97-54.604-42.187 63.864-54.388 70.459-160.586 15.666-224.96-50.656-59.514-133.762-59.504-184.408 0-54.66 64.22-48.022 169.318 14.373 223.854h-10.688c-40.781 0-73.959 33.178-73.959 73.959v168.367h309.954c55.243 0 100.187-44.943 100.187-100.186 0-61.4-55.201-108.945-116.521-98.847zm-131.143-281.738c32.899 0 62.105 19.336 80.172 49.039-30.98 53.017-111.963 74.131-178.709 56 5.856-59.077 47.81-105.039 98.537-105.039zm-98.252 136.027c69.581 15.903 149.562-3.568 192.323-54.811 21.506 76.621-25.977 157.229-94.071 157.229-49.974 0-91.432-44.607-98.252-102.418zm-34.226 314.744v-138.367c0-24.239 19.72-43.959 43.959-43.959h152.366c16.179 0 30.859 9.069 38.468 22.728-60.532 30.7-73.826 111.2-26.254 159.598zm279.955 0c-38.7 0-70.186-31.485-70.186-70.186s31.485-70.186 70.186-70.186 70.187 31.485 70.187 70.186-31.485 70.186-70.187 70.186z"/><path d="m375.29 376.552h-30v19.074h-19.074v30h19.074v19.074h30v-19.074h19.075v-30h-19.075z"/></g></svg>