<svg xmlns="http://www.w3.org/2000/svg" xmlns:xlink="http://www.w3.org/1999/xlink" version="1.1" x="0px" y="0px" viewBox="0 0 55 68.75" style="enable-background:new 0 0 55 55;" xml:space="preserve"><g><path d="M12.1201782,17.2001953c0,1.1704102,1.0087891,2.1230469,2.2480469,2.1230469h5.0159302   c-0.1827393,0.5827026-0.2786255,1.1962891-0.2786255,1.8261719v10.1538086h-3.6162109   c-1.4921875,0-2.7060547,1.2133789-2.7060547,2.7050781V45.715332c0,1.3193359,1.0742188,2.3930664,2.3935547,2.3930664   s2.3925781-1.0737305,2.3925781-2.3930664v-7.9208984c0-0.9404297,0.765625-1.7055664,1.7060547-1.7055664h8.1162109   l0.7871094,2.7041016c1.1757813,3.5273438,3.2958984,6.6625977,6.1328125,9.0673828l4.1923828,3.5537109   C38.9795532,51.7919922,39.5762329,52,40.1826782,52c0.9863281,0,1.8691406-0.515625,2.3623047-1.3793945   c0.6513672-1.1411133,0.3271484-2.6474609-0.7539063-3.5043945l-2.4794922-1.9672852   c-2.9443359-2.3359375-5.1289063-5.4550781-6.3164063-9.0205078l-0.4794922-1.4331055l-0.15625-0.3618164   c-0.7509766-1.4609375-1.1162109-3.2880859-1.1162109-5.5854492v-7.3652344c0-0.7194824-0.1260376-1.4111328-0.3460083-2.0595703   h5.4241333c1.2392578,0,2.2470703-0.9526367,2.2470703-2.1230469s-1.0078125-2.1230469-2.2470703-2.1230469h-21.953125   C13.1289673,15.0771484,12.1201782,16.0297852,12.1201782,17.2001953z M36.3213501,16.0771484   c0.6875,0,1.2470703,0.5039063,1.2470703,1.1230469s-0.5595703,1.1230469-1.2470703,1.1230469h-5.8590698   c-0.4938354-0.9103394-1.1984863-1.6824341-2.043457-2.2460938H36.3213501z M30.2432251,21.3828125v7.3652344   c0,2.4604492,0.4013672,4.4370117,1.2119141,6.0102539l0.5908203,1.6865234c1.25,3.7495117,3.546875,7.0302734,6.6445313,9.4873047   l2.4794922,1.9672852c0,0,0,0,0,0.0004883c0.6972656,0.5522461,0.9150391,1.5087891,0.5058594,2.2246094   C41.3633423,50.6728516,40.8047485,51,40.1826782,51c-0.3876953,0-0.7529297-0.1274414-1.0449219-0.3588867l-4.1796875-3.543457   c-2.6962891-2.2866211-4.7128906-5.2675781-5.8242188-8.6025391l-0.8867188-3.0458984   c-0.0625-0.2133789-0.2578125-0.3603516-0.4804688-0.3603516h-8.4912109c-1.4921875,0-2.7060547,1.2138672-2.7060547,2.7055664   v7.9208984c0,0.7680664-0.625,1.3930664-1.3925781,1.3930664c-0.7685547,0-1.3935547-0.625-1.3935547-1.3930664V34.0083008   c0-0.9399414,0.765625-1.7050781,1.7060547-1.7050781h4.1162109c0.2763672,0,0.5-0.2236328,0.5-0.5V21.1494141   c0-1.3828125,0.546875-2.6748047,1.5390625-3.6381836c0.9931641-0.9628906,2.3193359-1.46875,3.6865234-1.4282227   C28.0391235,16.1640625,30.2432251,18.5415039,30.2432251,21.3828125z M20.9483032,16.793457   c-0.4680176,0.4541626-0.8496704,0.9709473-1.1446533,1.5297852h-5.4354248c-0.6884766,0-1.2480469-0.5039063-1.2480469-1.1230469   s0.5595703-1.1230469,1.2480469-1.1230469h7.4834595C21.5317993,16.2850342,21.2279053,16.5221558,20.9483032,16.793457z"/><path d="M30.2549438,7.9106445C30.2549438,5.203125,28.0518188,3,25.3447876,3   c-2.7080078,0-4.9111328,2.203125-4.9111328,4.9106445c0,2.7080078,2.203125,4.9111328,4.9111328,4.9111328   C28.0518188,12.8217773,30.2549438,10.6186523,30.2549438,7.9106445z M21.4336548,7.9106445   C21.4336548,5.7543945,23.1885376,4,25.3447876,4s3.9101563,1.7543945,3.9101563,3.9106445   c0,2.1567383-1.7539063,3.9111328-3.9101563,3.9111328S21.4336548,10.0673828,21.4336548,7.9106445z"/></g><text x="0" y="70" fill="#000000" font-size="5px" font-weight="bold" font-family="'Helvetica Neue', Helvetica, Arial-Unicode, Arial, Sans-serif">Created by rivercon</text><text x="0" y="75" fill="#000000" font-size="5px" font-weight="bold" font-family="'Helvetica Neue', Helvetica, Arial-Unicode, Arial, Sans-serif">from the Noun Project</text></svg>
