<svg xmlns="http://www.w3.org/2000/svg" xmlns:xlink="http://www.w3.org/1999/xlink" version="1.1" x="0px" y="0px" viewBox="0 0 55 68.75" style="enable-background:new 0 0 55 55;" xml:space="preserve"><g><path d="M51.5,28.1452637h-5.8375854c0.9654541-2.0878906,1.557312-4.2906494,1.557312-6.5708008   c0-6.6455078-5.40625-12.0517578-12.0517578-12.0517578c-2.7993164,0-5.5053711,0.9804688-7.6679688,2.7700195   c-2.1621094-1.7895508-4.8681641-2.7700195-7.6679688-2.7700195c-6.6455078,0-12.0517578,5.40625-12.0517578,12.0517578   c0,2.2801514,0.5918579,4.4829102,1.557312,6.5708008H3.5c-0.2763672,0-0.5,0.2236328-0.5,0.5s0.2236328,0.5,0.5,0.5h6.333313   c4.8706055,9.2125854,16.7923584,15.9191284,17.4244995,16.2695313c0.0751953,0.0415039,0.1586914,0.0625,0.2421875,0.0625   s0.1669922-0.0209961,0.2421875-0.0625c0.6321411-0.3504028,12.553894-7.0569458,17.4244995-16.2695313H51.5   c0.2763672,0,0.5-0.2236328,0.5-0.5S51.7763672,28.1452637,51.5,28.1452637z M27.5,44.401123   c-1.7075806-0.9928589-11.9291382-7.1752319-16.5043335-15.2558594h5.2704468c0.1943359,0,0.3706055-0.1123047,0.453125-0.2880859   l4.168457-8.9199219l2.0307617,16.9833984c0.027832,0.2299805,0.2099609,0.4116211,0.440918,0.4375   c0.0185547,0.0019531,0.0375977,0.0029297,0.0561523,0.0029297c0.2089844,0,0.3989258-0.1313477,0.4702148-0.3320313   l5.0991211-14.2841797l3.6523438,12.4643555c0.0610352,0.2084961,0.25,0.3535156,0.4667969,0.359375   c0.2114258-0.019043,0.4130859-0.1298828,0.4848633-0.3344727l2.1328125-6.0888672h8.28125   C39.427063,37.2233887,29.2073975,43.407959,27.5,44.401123z M44.5344849,28.1452637h-9.1672974   c-0.2124023,0-0.4018555,0.1342773-0.4716797,0.3344727l-1.7358398,4.9555664L29.5117188,20.986084   c-0.0610352-0.2080078-0.2490234-0.3530273-0.465332-0.359375c-0.2045898-0.0014648-0.4125977,0.1279297-0.4853516,0.3320313   l-4.9018555,13.7314453l-1.9863281-16.6108398c-0.0268555-0.2216797-0.1967773-0.3989258-0.4174805-0.434082   c-0.2207031-0.0385742-0.4375,0.0800781-0.5322266,0.2817383l-4.7753906,10.2182617h-5.4833984   c-1.0407715-2.0946045-1.684082-4.3016968-1.684082-6.5708008c0-6.09375,4.9580078-11.0517578,11.0517578-11.0517578   c2.699707,0,5.3051758,0.9951172,7.3354492,2.8022461c0.1894531,0.1689453,0.4755859,0.1689453,0.6650391,0   c2.0307617-1.8071289,4.6362305-2.8022461,7.3354492-2.8022461c6.09375,0,11.0517578,4.9580078,11.0517578,11.0517578   C46.2197266,23.8432617,45.5758667,26.050415,44.5344849,28.1452637z"/></g><text x="0" y="70" fill="#000000" font-size="5px" font-weight="bold" font-family="'Helvetica Neue', Helvetica, Arial-Unicode, Arial, Sans-serif">Created by rivercon</text><text x="0" y="75" fill="#000000" font-size="5px" font-weight="bold" font-family="'Helvetica Neue', Helvetica, Arial-Unicode, Arial, Sans-serif">from the Noun Project</text></svg>
