<?xml version="1.0" encoding="iso-8859-1"?>
<!-- Generator: Adobe Illustrator 16.0.0, SVG Export Plug-In . SVG Version: 6.00 Build 0)  -->
<!DOCTYPE svg PUBLIC "-//W3C//DTD SVG 1.1//EN" "http://www.w3.org/Graphics/SVG/1.1/DTD/svg11.dtd">
<svg version="1.1" id="Capa_1" xmlns="http://www.w3.org/2000/svg" xmlns:xlink="http://www.w3.org/1999/xlink" x="0px" y="0px"
	 width="124.146px" height="124.146px" viewBox="0 0 124.146 124.146" style="enable-background:new 0 0 124.146 124.146;"
	 xml:space="preserve">
<g>
	<g>
		<path d="M105.294,12.647C99.936,9.669,93.847,8.11,87.721,8.11c-9.694,0-18.84,3.806-25.636,10.553
			C55.266,11.917,46.104,8.11,36.417,8.11c-6.104,0-12.191,1.559-17.58,4.537C7.222,19.074,0,31.301,0,44.551
			c0,3.796,0.612,7.59,1.714,10.948c5.925,26.656,56.55,58.708,58.711,60.066c0.512,0.317,1.087,0.47,1.659,0.47
			c0.588,0,1.166-0.152,1.659-0.47c2.165-1.357,52.766-33.387,58.611-59.771c1.193-3.642,1.79-7.423,1.79-11.244
			C124.134,31.301,116.924,19.08,105.294,12.647z M116.327,54.154c-4.811,21.62-45.485,49.313-54.254,55.061
			c-7.73-5.065-40.25-27.206-51.198-47.38H24.43c1.428,0,2.67-0.955,3.021-2.338l4.469-17.327l7.103,47.668
			c0.216,1.498,1.483,2.625,3.005,2.661h0.073c1.486,0,2.765-1.054,3.057-2.515l6.528-33.308l0.332,2.028
			c0.241,1.51,1.547,2.617,3.066,2.617H84.7c1.729,0,3.118-1.394,3.118-3.117c0-1.72-1.389-3.117-3.118-3.117H57.741l-2.695-16.605
			c-0.243-1.482-1.522-2.594-3.029-2.618h-0.052c-1.482,0-2.755,1.053-3.054,2.521l-6.384,32.626l-6.686-44.965
			c-0.219-1.461-1.428-2.582-2.923-2.658c-1.474-0.22-2.813,0.904-3.182,2.332L22.031,55.6H9.889l-1.464,0.411
			c-0.231-0.709-0.523-1.439-0.679-2.155c-0.999-3.032-1.498-6.162-1.498-9.304c0-10.988,5.979-21.121,15.613-26.442
			c4.46-2.473,9.499-3.764,14.568-3.764c9.009,0,17.506,3.985,23.27,10.927c0.597,0.709,1.471,1.132,2.399,1.132
			c0.935,0,1.814-0.411,2.401-1.132c5.77-6.942,14.222-10.927,23.246-10.927c5.066,0,10.12,1.291,14.577,3.757
			c9.633,5.328,15.612,15.46,15.612,26.448C117.898,47.705,117.399,50.838,116.327,54.154z"/>
	</g>
</g>
<g>
</g>
<g>
</g>
<g>
</g>
<g>
</g>
<g>
</g>
<g>
</g>
<g>
</g>
<g>
</g>
<g>
</g>
<g>
</g>
<g>
</g>
<g>
</g>
<g>
</g>
<g>
</g>
<g>
</g>
</svg>
