<?xml version="1.0" encoding="iso-8859-1"?>
<!-- Generator: Adobe Illustrator 19.0.0, SVG Export Plug-In . SVG Version: 6.00 Build 0)  -->
<svg version="1.1" id="Capa_1" xmlns="http://www.w3.org/2000/svg" xmlns:xlink="http://www.w3.org/1999/xlink" x="0px" y="0px"
	 viewBox="0 0 512 512" style="enable-background:new 0 0 512 512;" xml:space="preserve">
<g>
	<g>
		<path d="M495.783,318.637v-18.1c0-44.844-36.483-81.326-81.326-81.326h-11.841c-35.147,0-69.49-14.322-94.223-39.294
			l-36.418-36.771c-13.309-13.438-32.39-19.594-51.043-16.473c-18.652,3.122-34.688,15.159-42.895,32.198l-19.25,39.965h-44.52
			c-3.728-24.752-25.14-43.787-50.915-43.787c-28.391,0-51.489,23.098-51.489,51.489v101.606C4.194,316.722,0,327.636,0,339.284
			c0,25.827,21.012,46.84,46.84,46.84h428.25c20.352,0,36.91-16.558,36.91-36.909C512,336.506,505.599,325.28,495.783,318.637z
			 M41.862,206.539c0-11.85,9.64-21.489,21.49-21.489c11.849,0,21.489,9.64,21.489,21.489v22.298h92.794l27.429-56.947
			c4.043-8.394,11.631-14.09,20.82-15.628c9.186-1.535,18.22,1.376,24.775,7.996l15.4,15.549l-30.558,44.78l24.78,16.91
			l27.287-39.986c8.475,8.483,17.856,15.956,27.915,22.315l-23.561,34.525l24.78,16.91l25.73-37.703
			c19.039,7.595,39.495,11.652,60.183,11.652h11.841c28.301,0,51.326,23.024,51.326,51.326v11.296L49.011,292.494
			c-2.411-0.111-4.798-0.04-7.149,0.205V206.539z M475.09,356.124H46.84c-9.286,0-16.84-7.555-16.84-16.84
			c0-4.646,1.851-8.972,5.211-12.181c3.166-3.022,7.26-4.66,11.604-4.66c0.268,0,0.537,0.007,0.806,0.019l427.791,19.851
			c3.694,0.172,6.588,3.203,6.588,6.902C482,353.024,478.9,356.124,475.09,356.124z"/>
	</g>
</g>
<g>
</g>
<g>
</g>
<g>
</g>
<g>
</g>
<g>
</g>
<g>
</g>
<g>
</g>
<g>
</g>
<g>
</g>
<g>
</g>
<g>
</g>
<g>
</g>
<g>
</g>
<g>
</g>
<g>
</g>
</svg>
