<?xml version="1.0" encoding="iso-8859-1"?>
<!-- Generator: Adobe Illustrator 19.0.0, SVG Export Plug-In . SVG Version: 6.00 Build 0)  -->
<svg version="1.1" id="Capa_1" xmlns="http://www.w3.org/2000/svg" xmlns:xlink="http://www.w3.org/1999/xlink" x="0px" y="0px"
	 viewBox="0 0 512 512" style="enable-background:new 0 0 512 512;" xml:space="preserve">
<g>
	<g>
		<path d="M432.19,337.682c-25.113,16.787-54.418,25.66-84.745,25.66c-84.208,0-152.715-68.508-152.715-152.715
			c0-50.803,25.167-98.141,67.323-126.628l35.88-24.248l-43.191-3.142C249.178,56.205,243.545,56,238,56
			c-60.901,0-118.157,23.716-161.22,66.779C33.717,165.842,10,223.099,10,284s23.716,118.157,66.78,161.221
			C119.844,488.285,177.099,512,238,512c49.062,0,95.808-15.347,135.183-44.382c38.58-28.448,66.798-67.457,81.603-112.811
			l13.456-41.224L432.19,337.682z M355.379,443.473C321.197,468.678,280.608,482,238,482c-109.178,0-198-88.822-198-198
			c0-100.462,75.215-183.689,172.284-196.338c-30.286,33.276-47.554,76.931-47.554,122.965
			c0,100.749,81.966,182.715,182.715,182.715c21.519,0,42.612-3.737,62.486-10.97C396.348,406.131,377.895,426.87,355.379,443.473z"
			/>
	</g>
</g>
<g>
	<g>
		<polygon points="439.463,94.007 495.465,0 393,0 393,30 442.674,30 386.672,124.007 502,124.007 502,94.007 		"/>
	</g>
</g>
<g>
	<g>
		<polygon points="353.742,114.257 261.091,114.257 261.091,144.257 300.951,144.257 257.735,216.8 352.758,216.8 352.758,186.8 
			310.526,186.8 		"/>
	</g>
</g>
<g>
	<g>
		<polygon points="409.572,284.758 436.925,238.843 359.51,238.843 359.51,268.843 384.134,268.843 356.781,314.758 438.01,314.758 
			438.01,284.758 		"/>
	</g>
</g>
<g>
</g>
<g>
</g>
<g>
</g>
<g>
</g>
<g>
</g>
<g>
</g>
<g>
</g>
<g>
</g>
<g>
</g>
<g>
</g>
<g>
</g>
<g>
</g>
<g>
</g>
<g>
</g>
<g>
</g>
</svg>
