<svg id="line_icons" height="512" viewBox="0 0 74 74" width="512" xmlns="http://www.w3.org/2000/svg" data-name="line icons"><path d="m65.326 72h-54.652a1 1 0 0 1 -1-1v-16.771a1 1 0 0 1 1-1h11.606v-5.373a1 1 0 0 1 1-1h13.407v-6.379a1 1 0 0 1 1-1h12.047v-6.715a1 1 0 0 1 1-1h14.592a1 1 0 0 1 1 1v38.238a1 1 0 0 1 -1 1zm-53.652-2h52.652v-36.238h-12.592v6.715a1 1 0 0 1 -1 1h-12.047v6.379a1 1 0 0 1 -1 1h-13.407v5.373a1 1 0 0 1 -1 1h-11.606z"/><path d="m14.573 52.875a3.363 3.363 0 0 1 -2.651-5.422l6.386-8.785 1.951-16.042-1.563.689-1.985 3.485a2.928 2.928 0 0 1 -5.143-2.8l2.719-5.229a3.415 3.415 0 0 1 1.29-1.364l5.923-3.507a4.56 4.56 0 0 1 4.031-.294l5.617 2.3a4.516 4.516 0 0 1 2.023 1.634l1.955 2.854 3.958-1.151a2.982 2.982 0 0 1 1.816 5.677l-5.364 1.868a3.424 3.424 0 0 1 -3.378-.668l-.93-.82-.313 3.085a8.243 8.243 0 0 1 4.389 8.125l-.687 9.1a3.4 3.4 0 1 1 -6.773-.6l.6-8.2a1.215 1.215 0 0 0 -1.925-1.106 1.207 1.207 0 0 0 -.488.816l-.517 3.957a3.775 3.775 0 0 1 -.877 1.952l-7.486 9.259a3.4 3.4 0 0 1 -2.578 1.187zm6.891-32.875a1 1 0 0 1 .993 1.121l-2.2 18.044a.994.994 0 0 1 -.184.468l-6.557 9.018a1.379 1.379 0 0 0 -.286 1.049 1.351 1.351 0 0 0 .532.91 1.372 1.372 0 0 0 1.857-.2l7.474-9.246.022-.026a1.771 1.771 0 0 0 .417-.922l.518-3.957a3.214 3.214 0 0 1 3.74-2.735 3.233 3.233 0 0 1 2.648 3.453l-.6 8.2a1.4 1.4 0 0 0 1.234 1.523 1.4 1.4 0 0 0 1.555-1.262l.687-9.1a6.243 6.243 0 0 0 -3.7-6.362l-.126-.052a1 1 0 0 1 -.635-1.034l.582-5.735a1 1 0 0 1 1.657-.648l2.389 2.109a1.422 1.422 0 0 0 1.4.277l5.364-1.868a.982.982 0 0 0 -.6-1.869l-4.66 1.354a1 1 0 0 1 -1.1-.395l-2.364-3.452a2.53 2.53 0 0 0 -1.131-.913l-5.617-2.3a2.542 2.542 0 0 0 -2.253.165l-5.92 3.513a1.415 1.415 0 0 0 -.535.566l-2.719 5.228a.929.929 0 0 0 1.631.888l2.148-3.771a1 1 0 0 1 .466-.42l3.474-1.532a1 1 0 0 1 .399-.087z"/><path d="m30.451 14.818a6.206 6.206 0 0 1 -.382-12.4 6.206 6.206 0 0 1 .771 12.388c-.13.008-.26.012-.389.012zm-.258-10.4a4.206 4.206 0 1 0 4.459 3.936 4.174 4.174 0 0 0 -4.459-3.936z"/></svg>