<?xml version="1.0" encoding="iso-8859-1"?>
<!-- Generator: Adobe Illustrator 17.1.0, SVG Export Plug-In . SVG Version: 6.00 Build 0)  -->
<!DOCTYPE svg PUBLIC "-//W3C//DTD SVG 1.1//EN" "http://www.w3.org/Graphics/SVG/1.1/DTD/svg11.dtd">
<svg version="1.1" id="Capa_1" xmlns="http://www.w3.org/2000/svg" xmlns:xlink="http://www.w3.org/1999/xlink" x="0px" y="0px"
	 viewBox="0 0 550.752 550.752" style="enable-background:new 0 0 550.752 550.752;" xml:space="preserve">
<path d="M402.956,294.736v-75.757c0-4.071-3.245-7.376-7.289-7.489v-17.437c0-13.222-5.87-25.543-16.118-33.859l-45.514-43.126
	V85.494h1.026c4.143,0,7.5-3.357,7.5-7.5V7.5c0-4.143-3.357-7.5-7.5-7.5H215.69c-4.143,0-7.5,3.357-7.5,7.5v70.494
	c0,4.143,3.357,7.5,7.5,7.5h1.028v31.559l-45.516,43.142c-10.246,8.316-16.116,20.638-16.116,33.858v17.437
	c-4.044,0.112-7.29,3.417-7.29,7.489v75.757c0,4.072,3.246,7.377,7.29,7.489v7.958c-4.044,0.112-7.29,3.417-7.29,7.489v75.742
	c0,4.072,3.246,7.377,7.29,7.489v7.972c-4.044,0.112-7.29,3.417-7.29,7.489v75.743c0,4.072,3.246,7.377,7.29,7.489v16.654
	c0,19.023,15.477,34.5,34.5,34.5h171.579c19.023,0,34.501-15.477,34.501-34.5v-16.654c4.044-0.113,7.289-3.418,7.289-7.489v-75.743
	c0-4.071-3.245-7.376-7.289-7.489v-7.972c4.044-0.113,7.289-3.418,7.289-7.489v-75.742c0-4.071-3.245-7.376-7.289-7.489v-7.958
	C399.71,302.113,402.956,298.808,402.956,294.736z M327.561,15v55.494h-1.026H224.218h-1.028v-9.01h80.384
	c4.143,0,7.5-3.357,7.5-7.5s-3.357-7.5-7.5-7.5H223.19V15H327.561z M361.166,535.752H189.586c-10.752,0-19.5-8.748-19.5-19.5
	v-16.644h168.29c4.143,0,7.5-3.357,7.5-7.5s-3.357-7.5-7.5-7.5h-175.58v-60.743h175.58c4.143,0,7.5-3.357,7.5-7.5
	s-3.357-7.5-7.5-7.5h-168.29v-7.95h168.29c4.143,0,7.5-3.357,7.5-7.5s-3.357-7.5-7.5-7.5h-175.58v-60.74h175.58
	c4.143,0,7.5-3.357,7.5-7.5s-3.357-7.5-7.5-7.5h-168.29v-7.938h168.29c4.143,0,7.5-3.357,7.5-7.5s-3.357-7.5-7.5-7.5h-175.58
	v-60.753h175.58c4.143,0,7.5-3.357,7.5-7.5s-3.357-7.5-7.5-7.5h-168.29v-17.43c0-8.747,3.914-16.894,10.739-22.35
	c0.165-0.132,0.324-0.271,0.477-0.415l45.892-43.498h62.28c4.143,0,7.5-3.357,7.5-7.5s-3.357-7.5-7.5-7.5h-57.756V85.494h87.316
	v34.797v0.003c0.002,1.446,0.418,2.886,1.246,4.133c0.015,0.022,0.028,0.046,0.042,0.067c0.101,0.149,0.213,0.293,0.326,0.436
	c0.042,0.054,0.082,0.109,0.125,0.162c0.095,0.113,0.198,0.221,0.3,0.33c0.072,0.076,0.141,0.153,0.216,0.226
	c0.028,0.027,0.052,0.057,0.08,0.084l48.081,45.559c0.152,0.145,0.312,0.283,0.476,0.414c6.825,5.456,10.74,13.602,10.74,22.35
	v17.43h-6.599c-4.143,0-7.5,3.357-7.5,7.5s3.357,7.5,7.5,7.5h13.888v60.753h-13.888c-4.143,0-7.5,3.357-7.5,7.5s3.357,7.5,7.5,7.5
	h6.599v7.938h-6.599c-4.143,0-7.5,3.357-7.5,7.5s3.357,7.5,7.5,7.5h13.888v60.74h-13.888c-4.143,0-7.5,3.357-7.5,7.5
	s3.357,7.5,7.5,7.5h6.599v7.95h-6.599c-4.143,0-7.5,3.357-7.5,7.5s3.357,7.5,7.5,7.5h13.888v60.743h-13.888
	c-4.143,0-7.5,3.357-7.5,7.5s3.357,7.5,7.5,7.5h6.599v16.644C380.667,527.004,371.918,535.752,361.166,535.752z"/>
<g>
</g>
<g>
</g>
<g>
</g>
<g>
</g>
<g>
</g>
<g>
</g>
<g>
</g>
<g>
</g>
<g>
</g>
<g>
</g>
<g>
</g>
<g>
</g>
<g>
</g>
<g>
</g>
<g>
</g>
</svg>
