<svg id="Layer_2" height="512" viewBox="0 0 128 128" width="512" xmlns="http://www.w3.org/2000/svg" xmlns:xlink="http://www.w3.org/1999/xlink" data-name="Layer 2"><linearGradient id="linear-gradient" gradientUnits="userSpaceOnUse" x1="121.318" x2="39.296" y1="112.506" y2="30.484"><stop offset="0" stop-color="#24d3b5"/><stop offset="1" stop-color="#62a6fd"/></linearGradient><path d="m27.4 120.223a1.75 1.75 0 0 1 -1.75 1.75h-5.034a1.75 1.75 0 0 1 0-3.5h5.036a1.75 1.75 0 0 1 1.748 1.75zm70.276-94.96 17.635-21.763h-43.611l-28.1 28.478a9.053 9.053 0 0 1 6.229 3.536 9.165 9.165 0 0 1 1.677 7.146c-.2 1.167-.447 2.327-.563 3.505a9.788 9.788 0 0 0 2.477 7.541c.189.209.374.422.583.616l1.051.981a9.813 9.813 0 0 0 8.919 2.389c.02-.005.038-.015.059-.02l.109-.026a8.014 8.014 0 0 0 .852-.229 8.884 8.884 0 0 1 6.461.211l13.592-16.774a1.75 1.75 0 0 1 2.72 2.2l-13.394 16.535.077.079a9.069 9.069 0 0 1 1.551 2.083l1.253-.23a4.375 4.375 0 1 1 1.577 8.606l-.658.121.569 2.76.6-.11a4.375 4.375 0 0 1 1.579 8.607l-.408.075 2.43 11.78 16.281 5.08a14.957 14.957 0 0 1 10.548 14.342v8.489a6.735 6.735 0 0 1 -6.729 6.729h-39.253a1.75 1.75 0 0 1 -1.237-.513l-5.515-5.515h-26.329a1.75 1.75 0 0 1 0-3.5h22.83l-6.7-6.7h-11.9a1.75 1.75 0 0 1 0-3.5h8.4l-32.638-32.639a11.7 11.7 0 0 1 .159-16.706l.01-.012h.006l.011-.012 58.833-58.382a1.75 1.75 0 0 1 1.246-.521h48.016a1.75 1.75 0 0 1 1.36 2.852l-19.941 24.614a1.75 1.75 0 0 1 -2.72-2.2zm-64.01 54.359 1.341 1.365 12.371-5.031-1.346-1.346zm9.329 9.5 12.449-5.1-1.339-1.339-12.444 5.077 1.157 1.178zm8.405-9.143-1.328-1.328-12.404 5.049 1.323 1.346zm-16.487-4.64-17.675-17.676-2.654 2.537 16.427 16.721zm46 21.056a1.75 1.75 0 0 1 -1.192-1.317l-1.133-5.5h-2.116a10.553 10.553 0 0 1 -10.477-8.961l-3.006-19.158a13.365 13.365 0 0 1 -10.323-3.6l-1.05-.98a13.283 13.283 0 0 1 -4.143-11.093c.282-2.778 1.438-5.686-.446-8.19a5.563 5.563 0 0 0 -8.154-.628l-19.1 18.274 18.662 18.67 7.357-2.982a1.749 1.749 0 0 1 1.895.385l8.051 8.05 4.042 4.042a1.75 1.75 0 0 1 -.575 2.856l-13.56 5.55 6.094 6.2a1.75 1.75 0 1 1 -2.5 2.453l-37.056-37.713a8.281 8.281 0 0 0 .989 10.406l45.828 45.825 5.513 5.513h38.527a3.231 3.231 0 0 0 3.228-3.228v-2.19h-38.005a1.749 1.749 0 0 1 -1.248-.523l-7.186-7.313a1.75 1.75 0 1 1 2.5-2.453l6.671 6.792h37.272v-2.8a11.472 11.472 0 0 0 -8.09-11zm-8.534-33.812a5.766 5.766 0 0 0 -5.974-1.927l3.047 19.424a7.07 7.07 0 0 0 7.019 6h1.393l-.8-3.872a4.455 4.455 0 0 1 -4.741-2.733 4.359 4.359 0 0 1 -.231-.8 4.454 4.454 0 0 1 3.208-5.023l-.575-2.788a4.37 4.37 0 0 1 -2.874-7.964zm4.179 14.386c-.565.061-1.14.424-1.021 1.077.126.681.827.778 1.39.634l3.36-.617a.876.876 0 0 0 .7-1.019.89.89 0 0 0 -1.019-.7zm-2.063-11.383c-.573.07-1.17.393-1.044 1.081a.894.894 0 0 0 1.018.7l3.731-.685c.48 0 .776-.621.7-1.017a.885.885 0 0 0 -1.018-.7zm17.245-32.993-.755.932a1.75 1.75 0 0 0 2.72 2.2l.755-.932a1.75 1.75 0 0 0 -2.72-2.2z" fill="url(#linear-gradient)"/></svg>