<?xml version="1.0" standalone="no"?>
<!DOCTYPE svg PUBLIC "-//W3C//DTD SVG 20010904//EN"
 "http://www.w3.org/TR/2001/REC-SVG-20010904/DTD/svg10.dtd">
<svg version="1.0" xmlns="http://www.w3.org/2000/svg"
 width="1280.000000pt" height="810.000000pt" viewBox="0 0 1280.000000 810.000000"
 preserveAspectRatio="xMidYMid meet">
<metadata>
Created by potrace 1.15, written by Peter Selinger 2001-2017
</metadata>
<g transform="translate(0.000000,810.000000) scale(0.100000,-0.100000)"
fill="#000000" stroke="none">
<path d="M8325 8087 c-17 -8 -36 -21 -44 -30 -7 -10 -22 -17 -31 -17 -10 0
-28 -12 -40 -27 -29 -37 -24 -112 12 -181 l26 -50 -29 -28 c-37 -36 -52 -84
-47 -150 6 -70 45 -126 124 -177 l60 -38 -17 -97 c-31 -178 -32 -217 -6 -322
l24 -94 -23 -106 c-32 -144 -39 -233 -24 -305 6 -33 50 -175 96 -317 46 -141
84 -270 84 -286 0 -31 -74 -256 -116 -350 -26 -58 -24 -70 19 -110 l24 -23
-77 -157 c-176 -355 -228 -523 -246 -787 -7 -110 -39 -198 -99 -275 -77 -100
-94 -146 -127 -344 -43 -266 -107 -436 -203 -544 -63 -71 -75 -93 -75 -134 l0
-38 -125 0 c-144 0 -135 -6 -160 111 -14 69 -14 75 1 84 91 54 127 123 128
246 0 80 -2 90 -29 132 -17 25 -71 90 -121 145 -64 69 -96 113 -109 148 -10
27 -37 96 -59 154 -40 102 -41 107 -28 155 7 28 17 80 22 117 8 56 19 81 70
160 54 83 74 127 134 290 20 56 83 154 119 187 l26 24 46 -42 c72 -66 162
-104 261 -109 135 -7 234 37 339 150 114 123 171 292 162 483 -11 246 -124
443 -306 533 -71 35 -80 37 -175 37 -92 0 -107 -3 -166 -31 -146 -70 -251
-210 -300 -400 l-10 -41 -187 -7 c-104 -4 -336 -13 -517 -22 -181 -8 -332 -11
-336 -7 -3 5 -12 31 -19 58 -36 144 -147 283 -276 346 -67 33 -74 34 -185 34
-109 0 -119 -2 -183 -32 -96 -46 -192 -143 -239 -243 -46 -96 -61 -164 -61
-270 0 -105 15 -174 60 -268 48 -103 134 -192 231 -240 75 -36 78 -37 192 -37
112 0 117 1 185 35 39 19 72 36 76 38 9 4 49 -93 103 -248 l51 -145 71 -48 72
-47 -19 -62 c-11 -34 -22 -87 -26 -118 -5 -52 -2 -61 44 -150 27 -52 88 -159
136 -238 48 -79 87 -145 87 -147 0 -2 -15 1 -32 6 -56 16 -255 39 -338 39 -95
0 -287 -24 -354 -44 -66 -20 -96 -50 -96 -96 0 -33 12 -51 94 -146 51 -60 143
-163 204 -229 61 -66 112 -128 112 -137 0 -9 -28 -41 -62 -72 -58 -51 -67 -56
-110 -56 -45 0 -48 2 -48 25 0 40 -25 90 -56 112 -26 19 -27 22 -15 50 12 29
10 34 -28 84 -41 54 -41 54 -34 122 5 59 3 69 -12 81 -17 12 -20 10 -34 -18
-14 -27 -21 -31 -65 -34 -27 -2 -54 2 -59 7 -16 16 -44 13 -51 -5 -5 -13 -9
-14 -21 -4 -20 16 -19 27 5 57 11 14 20 37 20 50 0 14 14 42 30 63 32 41 39
66 15 56 -9 -3 -19 3 -25 14 -11 21 -40 17 -40 -6 0 -16 -39 -44 -62 -44 -14
0 -16 6 -12 28 5 23 1 30 -20 40 -16 7 -26 20 -26 32 0 30 -18 15 -28 -23 l-9
-32 -42 42 c-29 28 -41 48 -37 59 3 8 6 36 6 60 0 35 3 44 18 44 30 0 45 16
37 39 -3 11 -12 21 -19 21 -6 0 -19 13 -29 29 -12 21 -22 28 -37 24 -17 -4
-20 0 -20 23 0 34 -34 94 -53 94 -7 0 -23 -17 -35 -39 -12 -21 -34 -46 -48
-56 -23 -15 -27 -15 -43 -1 -25 22 -27 21 -45 -24 -20 -50 -14 -63 48 -109 43
-33 46 -37 40 -70 -4 -20 -9 -39 -11 -44 -8 -14 -82 -47 -106 -47 -12 0 -28
-5 -33 -10 -7 -7 -16 -4 -29 10 -10 11 -24 20 -32 20 -8 0 -24 11 -36 24 -12
13 -31 25 -42 27 -12 3 -21 14 -23 27 -2 13 -14 27 -28 32 -13 5 -24 15 -24
22 0 23 -16 39 -33 32 -23 -8 -21 -20 8 -58 19 -26 25 -45 25 -87 0 -58 6 -72
32 -82 25 -9 39 -91 22 -132 -13 -31 -12 -34 6 -40 24 -8 27 -50 4 -59 -8 -3
-24 -1 -35 4 -20 11 -39 6 -39 -10 0 -5 9 -12 20 -15 11 -3 20 -11 20 -16 0
-8 -49 -43 -72 -51 -3 -2 -8 -9 -10 -17 -4 -17 46 -30 140 -35 56 -3 62 -2 56
13 -4 9 -9 30 -11 47 -4 25 0 32 22 42 21 10 25 17 20 33 -6 19 -4 21 21 16
15 -3 36 0 46 6 12 8 21 8 28 1 17 -17 -5 -62 -35 -70 -19 -5 -23 -10 -16 -17
17 -17 13 -45 -9 -57 -25 -13 -25 -24 0 -48 20 -18 20 -18 0 -40 -12 -12 -29
-22 -38 -22 -10 0 -27 -7 -38 -15 -28 -21 -34 -19 -34 13 0 42 -27 74 -58 70
-22 -2 -27 -8 -27 -30 0 -31 -3 -33 -45 -24 -26 5 -30 10 -30 40 0 30 -4 36
-32 45 -18 5 -52 12 -74 16 -38 6 -42 4 -48 -19 -3 -14 -10 -26 -15 -26 -16 0
-61 41 -61 56 0 23 -19 16 -32 -11 -6 -14 -19 -25 -28 -25 -36 0 -53 46 -26
69 8 6 17 32 21 57 5 39 3 47 -17 64 -47 40 -73 17 -85 -75 -10 -74 -38 -84
-90 -33 -22 21 -33 27 -34 17 -1 -7 -2 -23 -3 -34 -1 -26 -42 -32 -67 -9 -14
13 -16 20 -8 31 9 10 7 13 -10 13 -16 0 -21 -6 -21 -24 0 -21 -5 -25 -37 -28
-33 -3 -38 -7 -41 -30 -2 -15 4 -38 12 -50 21 -30 20 -35 -11 -42 -33 -9 -84
-62 -77 -81 3 -8 14 -17 25 -20 30 -10 23 -22 -37 -62 -47 -31 -58 -35 -75
-25 -10 7 -50 12 -88 12 -39 0 -73 4 -76 10 -11 18 -90 12 -109 -9 -14 -16
-22 -17 -62 -8 -32 8 -51 8 -62 0 -11 -6 -72 -9 -157 -7 -133 3 -210 -5 -282
-27 -18 -6 -39 -7 -45 -2 -7 4 -28 13 -47 20 -32 11 -37 10 -66 -16 l-32 -28
-624 -7 c-1447 -16 -2132 -26 -2137 -31 -3 -3 44 -5 104 -5 l109 0 13 -30 c8
-16 11 -34 7 -40 -9 -15 25 -67 51 -79 25 -11 23 -41 -2 -41 -8 0 -23 -9 -34
-20 -17 -17 -33 -20 -115 -20 -56 0 -95 -4 -95 -10 0 -6 35 -9 87 -7 86 2 88
1 89 -21 1 -13 6 -28 13 -35 19 -19 13 -23 -36 -23 -31 1 -48 -4 -51 -13 -4
-12 6 -13 54 -8 59 7 888 17 2824 37 569 6 1467 15 1995 20 528 5 1415 14
1970 20 556 6 1426 15 1935 20 509 5 1434 14 2055 20 1349 12 1677 19 1669 32
-4 5 -22 8 -40 6 -35 -4 -38 0 -28 40 5 17 14 22 39 22 40 0 65 9 65 22 0 6
-8 7 -17 3 -10 -4 -29 -9 -42 -11 l-23 -5 21 27 c25 32 27 71 6 102 -11 15
-13 27 -7 39 5 10 7 23 5 29 -2 7 15 16 40 23 47 11 76 36 61 51 -5 5 -273 5
-634 0 -344 -5 -700 -9 -791 -10 l-167 0 -12 30 c-7 16 -39 60 -71 97 -39 43
-56 70 -50 76 7 7 40 2 95 -13 138 -37 234 -16 306 66 47 54 63 99 63 179 0
84 -11 121 -74 247 -86 170 -101 229 -110 423 -5 125 -13 190 -29 244 -47 164
-137 318 -257 437 -67 68 -72 75 -63 101 5 15 14 47 20 70 l11 42 42 -29 c122
-85 257 -52 257 63 0 41 -15 68 -52 96 -15 11 -17 9 -15 -16 2 -24 -1 -28 -23
-25 -33 3 -67 42 -81 95 -33 123 -71 177 -126 177 -43 0 -107 -22 -133 -46
l-25 -23 -70 35 c-62 31 -76 34 -120 28 -69 -9 -121 -29 -169 -64 -23 -17 -63
-45 -91 -63 -27 -17 -57 -45 -66 -62 -17 -29 -16 -33 20 -151 21 -66 52 -147
69 -179 18 -32 31 -59 29 -60 -1 -1 -27 -7 -57 -13 -30 -6 -107 -25 -170 -43
-124 -33 -168 -36 -365 -24 -108 6 -415 -7 -501 -22 l-31 -5 -52 187 c-29 102
-63 218 -77 257 -34 102 -35 102 32 94 80 -9 107 10 310 216 191 194 217 226
233 282 12 46 3 68 -56 136 -22 25 -94 115 -160 200 -125 162 -238 278 -289
297 -16 6 -45 14 -65 17 -39 7 -119 54 -119 71 0 6 13 24 29 39 27 26 30 36
33 105 2 42 12 96 23 122 12 30 16 55 11 73 -9 38 -169 196 -228 226 -44 23
-51 24 -103 13 -30 -7 -68 -21 -84 -32 -31 -22 -80 -117 -113 -218 l-21 -64
28 -58 c22 -48 26 -66 20 -97 -18 -98 -51 -101 -91 -7 -26 61 -29 78 -28 173
0 58 4 130 8 160 6 44 0 90 -28 230 -20 96 -36 178 -36 182 0 3 20 18 45 33
114 66 139 223 49 313 l-35 35 16 62 c8 34 15 71 15 83 0 41 -28 92 -57 104
-15 6 -38 21 -51 32 -29 26 -142 33 -187 13z m216 -143 c7 -20 5 -41 -6 -81
-14 -48 -18 -52 -35 -43 -15 8 -20 21 -20 49 0 84 39 132 61 75z m-211 -82 c7
-27 6 -38 -3 -44 -6 -4 -15 -4 -18 0 -12 13 -29 75 -29 101 l1 26 19 -23 c11
-13 24 -40 30 -60z m973 -1788 c40 -36 103 -89 140 -117 37 -28 79 -68 92 -91
l24 -40 -48 -52 c-37 -40 -115 -149 -196 -271 -1 -2 -42 13 -91 33 l-89 36
-32 121 -31 122 33 86 c44 115 108 239 122 239 3 0 37 -30 76 -66z m-1999
-641 c4 -38 12 -87 18 -110 l10 -42 -80 -98 c-44 -54 -96 -113 -116 -132 -19
-19 -56 -71 -81 -115 -25 -45 -64 -102 -86 -129 l-41 -47 -44 42 c-24 24 -44
47 -44 52 0 5 22 30 49 57 62 60 74 98 75 224 1 150 -32 201 -160 247 -97 34
-180 30 -295 -16 l-96 -39 -20 -57 c-15 -40 -18 -61 -11 -74 6 -11 6 -22 0
-29 -5 -7 -12 -41 -15 -77 -11 -124 -13 -124 -94 -6 l-71 104 25 64 c14 35 31
93 37 131 l10 67 41 1 c22 0 216 11 430 23 215 13 427 24 471 25 l81 1 7 -67z
m1500 -458 c14 -15 35 -68 55 -137 33 -118 138 -345 208 -453 22 -33 78 -98
125 -145 l85 -85 12 -86 c18 -138 36 -181 126 -314 l84 -123 -62 -10 c-148
-25 -145 -25 -235 2 -161 47 -297 79 -333 79 -19 -1 -57 -11 -85 -24 -41 -20
-49 -29 -52 -55 -3 -35 29 -69 102 -106 38 -19 64 -37 201 -142 49 -38 50 -38
125 -34 51 3 92 12 121 26 55 27 83 27 226 5 130 -21 124 -9 65 -136 -29 -63
-34 -82 -25 -97 11 -17 -8 -18 -455 -24 -257 -3 -615 -7 -796 -8 l-329 -3 -18
50 c-10 28 -18 77 -18 110 -1 56 3 65 71 180 39 66 88 145 108 175 53 79 85
144 110 230 12 41 30 86 40 100 10 14 31 53 48 87 16 34 39 74 50 90 33 47
108 203 138 288 16 44 71 166 122 270 82 167 110 227 135 298 9 24 24 21 51
-8z m726 -387 c43 -8 151 -12 314 -10 211 1 260 -1 330 -17 44 -11 128 -26
186 -35 170 -26 157 -20 164 -75 11 -82 43 -132 106 -164 97 -49 162 -133 210
-273 18 -52 18 -55 2 -49 -9 4 -157 9 -327 12 -298 6 -312 5 -357 -15 -78 -34
-100 -112 -47 -168 l21 -23 -50 -25 c-39 -20 -81 -29 -179 -40 -70 -8 -131
-11 -134 -8 -3 4 -18 46 -33 94 -41 134 -100 272 -146 339 -112 164 -146 248
-167 412 l-9 68 25 -5 c14 -3 55 -11 91 -18z m891 -1158 c139 -30 143 -31 230
-93 49 -34 89 -65 89 -68 0 -3 -23 -9 -52 -12 -70 -9 -138 -45 -167 -90 l-24
-37 -203 0 -202 0 -51 56 c-48 53 -51 59 -51 110 0 52 -2 56 -37 77 l-37 21
29 7 c17 4 68 18 115 32 114 35 187 34 361 -3z m-3936 -49 c50 -11 116 -23
147 -26 42 -5 59 -12 63 -25 13 -41 69 -102 119 -131 30 -16 74 -48 98 -69
l43 -39 -167 -1 -167 0 -23 33 c-12 17 -60 75 -106 127 -106 121 -128 150
-110 150 8 0 54 -9 103 -19z"/>
<path d="M6066 6711 c-3 -4 12 -15 34 -24 26 -10 40 -22 40 -34 0 -20 59 -128
66 -120 2 2 -2 19 -10 38 -7 19 -17 57 -21 84 -4 28 -12 53 -18 57 -17 11 -85
10 -91 -1z"/>
<path d="M6254 6459 c-8 -13 44 -61 57 -53 10 6 5 19 -19 47 -17 20 -28 22
-38 6z"/>
<path d="M2768 4526 c-21 -16 -24 -84 -5 -108 16 -22 87 -35 87 -17 0 7 7 20
16 30 11 12 13 23 6 36 -5 10 -7 23 -5 30 5 15 -36 43 -62 43 -11 0 -28 -7
-37 -14z"/>
<path d="M5055 4425 c-3 -8 -7 -22 -10 -30 -6 -22 -66 -55 -97 -55 -35 0 -36
-17 -3 -30 14 -5 25 -14 25 -20 0 -5 18 -22 41 -37 39 -25 41 -29 36 -66 -5
-35 -3 -39 28 -54 33 -16 33 -16 73 23 23 22 45 50 50 63 14 39 -6 100 -39
120 -30 18 -62 55 -72 84 -8 21 -26 22 -32 2z"/>
<path d="M5670 4240 c0 -23 26 -38 41 -23 14 14 0 43 -22 43 -12 0 -19 -7 -19
-20z"/>
<path d="M2877 4243 c-9 -9 -9 -55 1 -70 4 -6 20 -17 36 -23 34 -13 76 9 76
40 0 37 -88 79 -113 53z"/>
<path d="M3809 4201 c-24 -25 -29 -38 -29 -79 0 -68 22 -88 72 -68 35 15 78
71 78 102 0 8 -10 28 -22 44 -28 38 -61 39 -99 1z"/>
<path d="M5444 4210 c-11 -4 -33 -23 -48 -40 -21 -25 -26 -41 -24 -69 3 -34 5
-36 44 -39 35 -3 42 0 47 18 5 21 7 21 37 5 35 -18 60 -8 60 25 0 9 12 22 26
29 35 16 25 36 -19 36 -27 0 -41 6 -52 23 -17 23 -36 26 -71 12z"/>
<path d="M4010 4202 c0 -5 -16 -30 -37 -56 -29 -37 -36 -55 -35 -86 2 -39 1
-40 -32 -40 -46 0 -62 -20 -44 -57 7 -16 23 -29 36 -31 15 -2 22 -10 22 -25 1
-28 33 -67 55 -67 9 0 29 13 43 28 24 25 31 27 60 20 27 -7 32 -13 32 -38 0
-30 0 -30 43 -23 47 7 62 21 77 73 5 19 19 49 30 65 27 41 25 61 -7 81 -16 9
-47 30 -70 45 -23 16 -44 29 -48 29 -4 0 -26 20 -49 45 -38 40 -76 59 -76 37z"/>
<path d="M4154 4189 c-3 -6 3 -20 14 -32 19 -19 22 -19 28 -4 11 29 -26 61
-42 36z"/>
<path d="M3252 4085 c-49 -35 -70 -125 -33 -144 31 -17 89 -1 117 31 27 33 26
54 -5 98 -22 31 -49 36 -79 15z"/>
<path d="M4383 3940 c4 -17 16 -44 27 -60 11 -15 18 -35 14 -43 -3 -9 3 -16
15 -20 13 -3 21 -13 21 -27 0 -30 26 -77 72 -132 32 -39 36 -48 21 -48 -10 -1
1 -11 27 -24 25 -13 60 -44 79 -69 38 -52 81 -69 81 -32 0 12 7 28 15 35 8 7
15 21 15 31 0 11 5 28 11 38 10 14 7 29 -15 74 -14 31 -26 63 -26 71 0 28 -40
19 -51 -11 -15 -42 -35 -53 -70 -41 -16 5 -29 14 -29 20 0 5 -23 33 -51 63
-49 52 -77 92 -100 145 -22 49 -26 55 -44 59 -15 2 -17 -2 -12 -29z"/>
<path d="M5415 3919 c-41 -36 -44 -55 -11 -70 54 -25 120 28 97 77 -14 33 -43
30 -86 -7z"/>
<path d="M5031 3912 c-15 -27 9 -66 42 -70 35 -4 43 17 22 57 -18 35 -49 41
-64 13z"/>
<path d="M4937 3873 c-22 -6 -17 -27 6 -31 12 -2 17 3 17 17 0 12 -1 20 -2 20
-2 -1 -11 -3 -21 -6z"/>
<path d="M4987 3834 c-14 -15 -6 -34 14 -34 14 0 19 5 17 17 -3 18 -20 27 -31
17z"/>
<path d="M5535 3799 c-4 -11 -4 -23 -1 -26 8 -9 36 17 36 33 0 22 -28 16 -35
-7z"/>
<path d="M3568 3792 c-33 -3 -38 -7 -38 -28 0 -32 42 -54 71 -36 25 16 36 -6
19 -38 -12 -23 -7 -50 10 -50 34 0 69 135 38 144 -28 9 -65 12 -100 8z"/>
<path d="M3307 3723 c-25 -13 -27 -19 -22 -46 9 -39 42 -77 68 -77 34 0 77 32
77 58 0 28 -51 82 -77 81 -10 -1 -31 -8 -46 -16z"/>
<path d="M3548 3586 c-10 -7 -18 -24 -18 -38 0 -34 27 -55 73 -56 25 -1 49
-10 70 -27 18 -15 46 -37 62 -51 17 -13 39 -31 50 -39 19 -14 18 -14 -17 -15
-47 0 -48 -12 -3 -39 24 -14 35 -28 35 -43 0 -16 10 -28 32 -38 43 -20 45 -33
9 -71 -36 -38 -32 -55 9 -34 36 19 71 66 52 73 -32 10 2 55 51 67 l28 7 -58
62 c-60 63 -96 93 -148 122 -16 9 -52 41 -80 70 -36 39 -58 54 -77 54 -15 0
-32 2 -40 5 -7 2 -21 -2 -30 -9z"/>
<path d="M3832 3504 c2 -9 13 -20 26 -25 19 -7 22 -5 22 16 0 20 -5 25 -26 25
-18 0 -25 -5 -22 -16z"/>
<path d="M3982 3485 c-13 -7 -29 -18 -35 -24 -6 -6 -19 -11 -29 -11 -26 0 -22
-20 13 -63 36 -44 63 -50 53 -12 -8 31 8 52 46 60 39 9 56 30 40 50 -15 18
-56 18 -88 0z"/>
<path d="M3213 3340 c-23 -25 -43 -47 -43 -50 0 -3 15 -23 34 -44 30 -37 37
-40 79 -38 41 3 46 0 49 -20 5 -36 63 -51 119 -32 50 18 61 30 54 61 -3 12 -1
33 4 47 14 35 -7 49 -66 44 -42 -3 -48 -1 -51 18 -2 13 -18 27 -45 39 -67 30
-86 26 -134 -25z"/>
<path d="M5921 3276 c-9 -10 -7 -21 6 -45 20 -34 52 -41 74 -15 11 14 9 20
-19 45 -36 33 -45 35 -61 15z"/>
<path d="M3697 3228 c-15 -12 -15 -15 1 -34 24 -28 62 -16 62 21 0 19 -5 25
-23 25 -13 0 -31 -6 -40 -12z"/>
<path d="M3082 3203 c-18 -4 -23 -10 -20 -31 2 -22 9 -27 33 -30 38 -3 54 7
57 38 2 20 -2 25 -22 26 -14 1 -35 0 -48 -3z"/>
<path d="M12525 2710 c-16 -5 -469 -13 -1005 -19 -1109 -13 -2384 -28 -3399
-40 -382 -5 -704 -5 -715 0 -12 4 -61 13 -109 19 -48 6 -99 15 -113 20 -17 7
-32 6 -46 -1 -12 -6 -44 -11 -72 -12 -35 0 -57 -6 -71 -18 -25 -22 -73 -23
-1940 -44 -1304 -15 -2307 -27 -3825 -45 -448 -6 -895 -11 -993 -11 -143 -2
-180 -5 -184 -16 -9 -22 0 -24 58 -13 37 7 55 7 57 0 2 -5 24 -10 48 -10 44 0
44 0 30 -23 -22 -33 -9 -73 30 -96 23 -14 34 -28 34 -43 0 -13 3 -40 7 -61 l6
-38 -157 3 c-151 3 -195 -4 -119 -18 20 -4 327 -4 682 0 355 3 1123 11 1706
16 583 5 1266 12 1517 16 444 6 458 5 458 -13 0 -10 23 -41 50 -68 49 -48 63
-82 38 -90 -10 -3 -2469 -23 -3583 -29 -248 -1 -379 8 -437 29 -31 12 -47 12
-109 1 -40 -8 -86 -12 -104 -9 -21 3 -41 -1 -58 -12 -19 -12 -49 -17 -116 -17
-50 0 -91 -4 -91 -9 0 -10 55 -12 235 -9 128 2 187 -12 85 -20 -57 -4 -65 -8
-68 -26 -2 -17 7 -26 45 -42 l48 -22 -95 0 c-52 0 -114 0 -137 0 -24 0 -43 -3
-43 -9 0 -15 44 -21 80 -11 18 5 36 8 40 5 3 -2 42 -5 84 -6 65 -3 81 0 91 14
11 16 13 16 19 2 5 -14 146 -16 1478 -14 810 2 1480 2 1488 2 8 -1 80 0 160 1
734 14 1152 17 1163 9 22 -17 103 -35 178 -39 41 -2 97 -5 124 -7 28 -1 73 -4
102 -5 39 -1 59 -8 80 -27 l28 -24 -40 -1 c-122 -2 -4069 -20 -4541 -21 -308
0 -566 -4 -573 -9 -21 -13 35 -17 209 -14 686 8 2474 6 2535 -3 57 -9 158 -15
255 -14 93 1 221 -8 245 -18 39 -16 69 -7 84 25 l12 27 15 -21 c12 -18 25 -22
70 -22 51 0 55 -2 49 -20 -5 -17 -2 -20 20 -20 14 0 35 5 46 10 21 12 55 -1
75 -28 7 -10 19 -13 37 -8 17 4 27 2 27 -5 0 -6 -9 -13 -20 -16 -16 -4 -19
-11 -14 -27 10 -33 23 -36 114 -30 l85 6 60 64 60 63 84 10 c74 10 87 9 102
-5 11 -10 25 -14 36 -10 12 5 27 -5 52 -34 32 -35 47 -43 130 -65 52 -13 119
-27 150 -31 l56 -6 70 66 c39 37 81 69 95 72 14 3 33 9 42 15 30 15 51 10 74
-19 22 -27 23 -27 38 -7 13 17 18 18 36 7 18 -11 27 -9 64 13 39 23 53 25 157
26 63 0 141 -6 173 -13 53 -12 62 -18 81 -52 12 -22 34 -48 49 -58 23 -17 26
-25 20 -54 -10 -53 2 -84 31 -84 18 0 25 5 25 19 0 29 45 52 108 55 70 3 91
-5 121 -50 40 -58 48 -46 56 84 4 64 11 123 15 131 4 8 21 16 36 18 16 2 39 4
50 6 12 1 31 10 41 20 18 15 47 17 303 17 270 0 284 -1 317 -21 45 -28 231
-55 275 -40 45 16 75 13 106 -8 15 -11 48 -22 73 -26 25 -3 61 -17 80 -31 19
-14 58 -39 86 -55 l53 -30 25 19 c21 17 30 18 55 9 26 -10 34 -8 62 13 19 14
44 23 60 22 20 -2 32 5 44 23 9 14 25 25 36 25 11 0 22 9 25 20 3 11 11 20 19
20 7 0 19 9 27 21 21 29 81 24 85 -8 3 -19 7 -21 62 -16 l59 6 18 -39 c19 -40
34 -45 81 -30 19 6 24 4 29 -13 3 -12 6 -21 7 -21 1 0 19 9 41 20 49 25 65 25
65 1 0 -32 16 -33 75 -4 52 25 58 26 82 13 25 -15 53 -75 53 -116 0 -26 8 -34
26 -27 9 3 14 21 14 53 0 27 3 55 6 64 8 21 58 21 105 -2 33 -15 39 -22 43
-57 24 -206 39 -258 112 -383 38 -64 40 -44 4 29 -42 81 -80 231 -87 342 -6
85 -2 96 25 78 8 -5 28 -1 50 10 51 27 69 24 146 -21 37 -22 77 -40 87 -40 12
0 28 14 40 35 28 47 46 55 123 55 l66 0 0 -40 c0 -45 21 -104 48 -133 26 -29
106 -67 167 -79 47 -9 55 -14 60 -38 11 -51 62 -118 107 -142 61 -32 159 -32
210 0 58 36 90 114 96 235 l5 97 52 0 c107 0 181 -46 252 -157 105 -164 137
-368 152 -953 7 -307 9 -328 31 -378 67 -154 234 -163 306 -17 26 54 26 55 25
282 -1 125 -6 372 -11 548 -5 176 -10 353 -10 393 l0 72 38 0 39 0 7 -240 c7
-264 14 -300 68 -345 57 -48 150 -24 193 49 30 52 31 78 21 496 l-8 325 73 29
c57 23 88 44 138 92 l65 63 737 3 c526 2 741 6 749 14 8 8 -31 13 -147 18 -87
4 -174 7 -195 6 -30 0 -35 3 -32 17 5 16 -2 18 -73 16 -43 -2 -130 -4 -194 -5
-96 -3 -121 -6 -137 -21 -16 -15 -34 -17 -108 -14 -61 2 -82 6 -66 11 50 19 5
66 -63 66 -44 0 -85 -30 -85 -63 0 -13 -9 -17 -33 -17 -19 0 -37 3 -41 7 -11
11 -160 32 -229 33 -56 0 -58 1 -52 23 4 12 10 25 14 29 3 3 339 9 746 13 407
4 742 8 744 11 2 2 13 4 23 4 11 0 16 5 13 10 -3 6 -24 10 -45 10 -48 0 -93
16 -85 31 4 6 10 8 13 5 9 -9 42 25 42 44 0 9 -6 22 -12 28 -10 10 -10 15 2
22 8 5 23 10 33 10 27 0 20 19 -10 27 -36 8 -154 8 -263 -1 -153 -13 -362 -12
-444 2 -43 7 -88 12 -100 11 -11 -2 -34 1 -51 4 -120 28 -339 36 -362 14 -3
-4 -12 -2 -19 4 -8 7 -19 7 -31 1 -24 -12 -152 2 -250 28 -107 28 -235 26
-409 -5 -191 -35 -351 -49 -386 -34 -21 8 -32 8 -41 0 -18 -14 -143 -2 -158
15 -8 10 -35 14 -85 14 -43 0 -76 5 -80 11 -7 13 -51 9 -189 -16 -49 -9 -116
-20 -149 -26 -32 -5 -149 -11 -260 -12 -111 -2 -208 -7 -215 -11 -8 -5 -68
-12 -134 -17 -91 -5 -131 -4 -165 7 -26 7 -56 11 -68 8 -14 -4 -23 0 -28 11
-6 16 -49 19 -71 4 -23 -15 -67 -19 -88 -7 -12 6 -49 11 -82 9 -44 -1 -73 4
-105 18 -56 25 -141 27 -247 5 -86 -17 -157 -12 -186 14 -16 14 -22 14 -50 3
-47 -20 -96 -14 -142 17 l-40 27 275 5 c151 3 505 6 785 5 466 0 518 -2 598
-19 l87 -20 108 27 107 27 1390 11 c793 6 1400 15 1413 20 13 5 70 9 128 9 68
0 103 4 99 10 -4 6 -38 8 -91 4 -59 -5 -84 -4 -84 4 0 7 12 14 28 18 15 3 33
7 40 10 17 5 15 59 -3 74 -20 16 -19 36 1 44 23 9 11 85 -16 107 -15 13 -17
18 -6 22 8 3 23 3 33 1 26 -7 50 21 34 40 -13 15 -135 19 -186 6z m-5836 -424
c20 -24 -60 -61 -194 -90 -81 -18 -131 -34 -157 -52 l-37 -26 -363 -2 c-293
-1 -371 2 -403 13 -22 8 -58 15 -80 16 -42 2 -115 31 -115 46 0 14 87 10 152
-7 54 -14 67 -14 134 0 52 11 81 13 100 6 14 -6 57 -11 94 -12 62 -2 71 0 92
23 13 14 45 31 71 38 41 12 52 11 94 -5 77 -29 165 -24 244 14 36 18 83 32
105 33 21 1 50 5 64 9 45 15 186 12 199 -4z"/>
<path d="M8987 2288 c-76 -20 -56 -68 28 -68 55 0 80 15 70 42 -5 12 -50 41
-58 37 -1 -1 -19 -6 -40 -11z"/>
<path d="M8827 2263 c-15 -14 -6 -33 17 -33 25 0 51 22 39 33 -8 9 -48 9 -56
0z"/>
<path d="M5938 1740 c-10 -6 -18 -15 -18 -20 0 -21 44 -48 87 -53 26 -3 52
-12 58 -21 10 -13 32 -16 111 -16 87 0 105 3 146 25 26 14 58 25 72 25 61 0
76 32 23 49 -18 6 -66 11 -107 10 -41 -1 -138 2 -215 5 -94 5 -146 3 -157 -4z"/>
<path d="M6540 1740 c-17 -11 -5 -27 25 -32 14 -2 20 3 20 17 0 22 -22 30 -45
15z"/>
<path d="M4876 1701 c-9 -14 4 -41 19 -41 18 0 26 25 12 39 -13 13 -24 14 -31
2z"/>
<path d="M4946 1681 c-3 -5 1 -14 10 -22 13 -10 19 -9 37 9 l21 22 -31 0 c-18
0 -34 -4 -37 -9z"/>
<path d="M5115 1642 c-14 -20 -25 -46 -25 -58 0 -29 31 -54 66 -54 16 0 38 -7
48 -15 29 -22 52 -18 75 11 22 28 28 78 11 89 -6 4 -8 10 -5 15 9 14 -65 47
-107 48 -33 1 -41 -3 -63 -36z"/>
<path d="M7090 1639 c0 -7 -10 -9 -26 -5 -18 5 -25 3 -22 -6 6 -17 94 -52 114
-44 15 6 13 11 -12 36 -30 30 -54 39 -54 19z"/>
<path d="M6440 1618 c-24 -9 -25 -10 -5 -24 17 -12 21 -12 34 1 21 21 3 36
-29 23z"/>
<path d="M7300 1579 c-14 -4 -37 -11 -52 -14 -38 -7 -40 -51 -3 -65 14 -5 25
-14 25 -20 0 -15 27 -12 33 4 3 8 14 12 24 10 14 -4 23 2 31 21 16 35 15 45
-5 61 -20 15 -19 15 -53 3z"/>
<path d="M7812 1525 c-7 -25 -12 -62 -12 -83 l1 -37 18 50 c10 28 23 61 30 73
7 12 9 27 6 32 -14 22 -32 7 -43 -35z"/>
<path d="M8101 1541 c-26 -20 -21 -41 8 -41 24 0 45 25 37 45 -7 19 -16 19
-45 -4z"/>
<path d="M7130 1500 c0 -15 5 -20 18 -18 9 2 17 10 17 18 0 8 -8 16 -17 18
-13 2 -18 -3 -18 -18z"/>
<path d="M4778 1401 c3 -20 9 -42 14 -48 16 -19 72 -16 91 5 38 41 7 80 -63
79 l-46 0 4 -36z"/>
<path d="M8280 1430 c-11 -7 -12 -12 -3 -21 15 -15 43 -5 43 16 0 17 -18 19
-40 5z"/>
<path d="M5242 1338 c-16 -16 -15 -35 3 -42 20 -7 45 3 45 18 0 13 -20 36 -30
36 -3 0 -11 -5 -18 -12z"/>
<path d="M5073 1139 c-51 -32 -38 -69 24 -69 27 0 37 6 53 33 11 17 18 37 17
42 -6 18 -61 14 -94 -6z"/>
<path d="M4682 1088 c-20 -20 -14 -28 19 -28 24 0 30 4 27 17 -4 22 -29 28
-46 11z"/>
</g>
</svg>
