<svg height="512pt" viewBox="-87 0 512 512.00002" width="512pt" xmlns="http://www.w3.org/2000/svg"><path d="m262.757812 19.003906c-7.90625-11.882812-21.234374-19.0156248-35.507812-19.003906h-117.058594c-14.273437-.0117188-27.605468 7.121094-35.507812 19.003906l-67.5 101.257813c-6.191406 9.238281-8.507813 20.539062-6.449219 31.46875l60.542969 325.410156c3.761718 20.203125 21.390625 34.855469 41.941406 34.859375h131.003906c20.550782-.003906 38.179688-14.65625 41.941406-34.859375l60.585938-325.410156c2.050781-10.929688-.265625-22.226563-6.453125-31.46875zm-28.535156 475.929688h-131.003906c-12.335938-.003906-22.914062-8.796875-25.164062-20.925782l-6.246094-33.566406c5.625 2.175782 11.605468 3.292969 17.636718 3.292969h158.550782c6.03125 0 12.011718-1.117187 17.636718-3.292969l-6.246093 33.566406c-2.253907 12.128907-12.832031 20.921876-25.164063 20.925782zm85.707032-346.324219-49.851563 267.945313c-5.296875 6.742187-13.519531 10.507812-22.082031 10.113281h-158.550782c-8.570312.386719-16.796874-3.394531-22.085937-10.148438l-49.851563-267.945312c-1.230468-6.558594.160157-13.339844 3.875-18.882813l67.507813-101.222656c4.738281-7.132812 12.738281-11.414062 21.300781-11.402344h117.058594c8.574219-.019531 16.585938 4.261719 21.332031 11.402344l67.484375 101.238281c3.707032 5.550781 5.097656 12.335938 3.863282 18.902344zm0 0"/><path d="m134.585938 93.867188h17.066406c4.714844 0 8.535156-3.820313 8.535156-8.535157 0-4.710937-3.820312-8.53125-8.535156-8.53125h-17.066406c-4.710938 0-8.53125 3.820313-8.53125 8.53125 0 4.714844 3.820312 8.535157 8.53125 8.535157zm0 0"/><path d="m185.785156 93.867188h17.066406c4.714844 0 8.535157-3.820313 8.535157-8.535157 0-4.710937-3.820313-8.53125-8.535157-8.53125h-17.066406c-4.710937 0-8.53125 3.820313-8.53125 8.53125 0 4.714844 3.820313 8.535157 8.53125 8.535157zm0 0"/><path d="m160.1875 119.464844c0 4.714844 3.820312 8.535156 8.53125 8.535156 4.714844 0 8.535156-3.820312 8.535156-8.535156v-8.53125c0-4.714844-3.820312-8.535156-8.535156-8.535156-4.710938 0-8.53125 3.820312-8.53125 8.535156zm0 0"/><path d="m254.054688 286.601562v-39.136718c-.003907-2.992188-1.574219-5.769532-4.140626-7.3125l-39.046874-23.40625c-.71875-3.433594-2.140626-6.679688-4.175782-9.539063 8.128906-5.359375 13.082032-14.390625 13.226563-24.125v-29.867187c18.765625-1.242188 33.527343-16.515625 34.136719-35.308594v-24.039062c0-27.621094-24.371094-59.734376-55.800782-59.734376h-59.066406c-31.429688 0-55.800781 32.113282-55.800781 59.734376v24.046874c.609375 18.792969 15.371093 34.066407 34.132812 35.308594v29.867188c.15625 9.726562 5.105469 18.746094 13.226563 24.097656-2.03125 2.859375-3.453125 6.109375-4.171875 9.542969l-39.050781 23.433593c-2.5625 1.539063-4.132813 4.3125-4.136719 7.300782v30.601562l-6.035157 6.035156c-2.214843 2.140626-3.105468 5.3125-2.324218 8.296876.78125 2.984374 3.109375 5.3125 6.09375 6.09375s6.15625-.109376 8.296875-2.324219l2.5-2.5 2.503906 2.5c3.347656 3.230469 8.667969 3.1875 11.960937-.105469 3.292969-3.292969 3.335938-8.613281.101563-11.960938l-6.03125-6.035156v-25.769531l27.777344-16.664063 4.09375 24.574219c.992187 5.996094 4.09375 11.441407 8.738281 15.359375-1.730469 4.433594-1.515625 9.390625.597656 13.652344l.453125.855469-23.699219 47.386719c-1.117187 2.242187-1.195312 4.867187-.203124 7.175781l13.816406 32.1875-13.03125 19.507812c-2.617188 3.917969-1.558594 9.21875 2.363281 11.835938 3.921875 2.613281 9.21875 1.554687 11.835937-2.367188l6.828126-10.238281 3.804687 8.882812c1.898437 4.261719 6.867187 6.207032 11.15625 4.371094 4.289063-1.839844 6.304687-6.78125 4.527344-11.09375l-24.070313-56.117187 16.210938-32.425781 1.800781 3.601562c2.890625 5.78125 8.800781 9.4375 15.265625 9.4375s12.375-3.65625 15.265625-9.4375l1.800781-3.566406 16.214844 32.425781-24.039062 56.097656c-1.253907 2.8125-.894532 6.078125.9375 8.550781 1.832031 2.476563 4.851562 3.769532 7.90625 3.390626 3.054687-.378907 5.667968-2.371094 6.839843-5.214844l3.808594-8.886719 6.824219 10.242187c1.691406 2.535157 4.609375 3.976563 7.652344 3.78125 3.042968-.199218 5.75-2.003906 7.101562-4.738281 1.347656-2.734375 1.136719-5.980469-.554688-8.515625l-13.027343-19.507812 13.769531-32.128906c.992188-2.304688.917969-4.929688-.203125-7.175782l-23.6875-47.402344.449219-.851562c2.113281-4.265625 2.332031-9.222656.597656-13.65625 4.648438-3.914062 7.746094-9.363281 8.738281-15.359375l4.097657-24.574219 27.777343 16.605469v34.304687l-6.035156 6.03125c-2.21875 2.144532-3.109375 5.316407-2.328125 8.300782.78125 2.980468 3.113281 5.3125 6.097656 6.09375 2.980469.78125 6.15625-.109375 8.296875-2.328125l2.5-2.5 2.5 2.5c3.347657 3.234375 8.671875 3.1875 11.960938-.101563 3.292969-3.292968 3.339843-8.617187.105469-11.964844zm-104.894532-29.203124-6.039062-36.121094c.308594-4.480469 4.039062-7.953125 8.53125-7.945313h34.132812c4.492188-.007812 8.226563 3.464844 8.535156 7.945313l-6.023437 36.121094c-.6875 4.117187-4.246094 7.132812-8.414063 7.136718h-22.308593c-4.171875-.003906-7.730469-3.019531-8.414063-7.136718zm1.273438-61.132813c-7.992188.65625-15.039063-5.207031-15.847656-13.183594v-3.882812h8.535156c0 4.714843 3.820312 8.535156 8.53125 8.535156 4.714844 0 8.535156-3.820313 8.535156-8.535156h17.066406c0 4.714843 3.820313 8.535156 8.53125 8.535156 4.714844 0 8.535156-3.820313 8.535156-8.535156h8.53125v3.882812c-.808593 7.976563-7.855468 13.839844-15.84375 13.183594zm-49.980469-78.351563v-24.046874c0-19.328126 17.273437-42.667969 38.734375-42.667969h59.066406c21.460938 0 38.734375 23.339843 38.734375 42.667969v24.046874c-.710937 10.914063-10.082031 19.222657-21.003906 18.621094h-13.132813c-4.710937 0-8.53125 3.820313-8.53125 8.53125 0 4.714844 3.820313 8.535156 8.53125 8.535156v8.53125h-68.265624v-8.53125c4.714843 0 8.535156-3.820312 8.535156-8.535156 0-4.710937-3.820313-8.53125-8.535156-8.53125h-13.132813c-10.921875.601563-20.292969-7.707031-21-18.621094zm80.058594 163.6875-11.792969 23.585938-11.835938-23.585938zm0 0"/></svg>