<?xml version="1.0" encoding="iso-8859-1"?>
<!-- Generator: Adobe Illustrator 19.0.0, SVG Export Plug-In . SVG Version: 6.00 Build 0)  -->
<svg version="1.1" id="Capa_1" xmlns="http://www.w3.org/2000/svg" xmlns:xlink="http://www.w3.org/1999/xlink" x="0px" y="0px"
	 viewBox="0 0 512 512" style="enable-background:new 0 0 512 512;" xml:space="preserve">
<path style="fill:#FADA6D;" d="M274.835,11.319L137.32,264.014c-8.936,16.421,2.951,36.423,21.646,36.423h44.519
	c9.74,0,17.285,8.519,16.11,18.187l-20.563,169.147c-2.87,23.607,28.98,33.798,40.347,12.91l137.515-252.694
	c8.936-16.421-2.951-36.423-21.646-36.423H310.73c-9.739,0-17.285-8.519-16.11-18.187L315.183,24.23
	C318.053,0.622,286.203-9.569,274.835,11.319z"/>
<path style="fill:#F2C55A;" d="M185.521,175.441l-48.201,88.573c-8.936,16.421,2.951,36.423,21.646,36.423h44.519
	c9.74,0,17.285,8.519,16.11,18.187l-20.563,169.147c-2.87,23.607,28.98,33.798,40.347,12.91l75.113-138.025
	C220.257,341.827,182.599,260.55,185.521,175.441z"/>
<path style="fill:#FADA6D;" d="M69.181,284.663l-38.084,69.982c-2.475,4.548,0.817,10.087,5.995,10.087h12.329
	c2.697,0,4.787,2.359,4.461,5.037l-5.695,46.844c-0.795,6.538,8.026,9.36,11.174,3.575l38.084-69.982
	c2.475-4.548-0.817-10.087-5.995-10.087H79.122c-2.697,0-4.787-2.359-4.462-5.037l5.695-46.844
	C81.15,281.701,72.329,278.879,69.181,284.663z"/>
<g>
	<ellipse style="fill:#EA7786;" cx="199" cy="272.45" rx="21.442" ry="17.08"/>
	<ellipse style="fill:#EA7786;" cx="315.22" cy="272.45" rx="21.442" ry="17.08"/>
</g>
<g>
	<path style="fill:#495059;" d="M211.492,262.918c-4.142,0-7.5-3.358-7.5-7.5v-7.572c0-4.142,3.358-7.5,7.5-7.5s7.5,3.358,7.5,7.5
		v7.572C218.992,259.56,215.634,262.918,211.492,262.918z"/>
	<path style="fill:#495059;" d="M302.723,262.918c-4.142,0-7.5-3.358-7.5-7.5v-7.572c0-4.142,3.358-7.5,7.5-7.5s7.5,3.358,7.5,7.5
		v7.572C310.223,259.56,306.865,262.918,302.723,262.918z"/>
	<path style="fill:#495059;" d="M257.107,268.733c-6.777,0-13.221-2.935-17.681-8.051c-2.721-3.123-2.396-7.86,0.726-10.582
		c3.123-2.721,7.859-2.396,10.582,0.727c1.61,1.847,3.932,2.907,6.372,2.907c2.44,0,4.762-1.06,6.372-2.907
		c2.722-3.123,7.459-3.448,10.582-0.727c3.123,2.722,3.448,7.459,0.727,10.582C270.329,265.798,263.884,268.733,257.107,268.733z"/>
</g>
<path style="fill:#F2C55A;" d="M54.243,312.113l-23.146,42.532c-2.475,4.548,0.817,10.087,5.995,10.087h12.329
	c2.697,0,4.787,2.359,4.461,5.037l-5.695,46.844c-0.795,6.538,8.026,9.36,11.174,3.575l22.769-41.84
	C57.706,367.255,52.482,338.397,54.243,312.113z"/>
<path style="fill:#FADA6D;" d="M446.437,24.602l-46.198,84.893c-3.002,5.517,0.991,12.236,7.272,12.236h14.956
	c3.272,0,5.807,2.862,5.412,6.11l-6.908,56.825c-0.964,7.931,9.736,11.354,13.555,4.337l46.198-84.893
	c3.002-5.517-0.991-12.236-7.272-12.236h-14.956c-3.272,0-5.807-2.862-5.412-6.11l6.908-56.825
	C460.956,21.008,450.256,17.584,446.437,24.602z"/>
<path style="fill:#F2C55A;" d="M428.316,57.9l-28.077,51.594c-3.002,5.517,0.991,12.236,7.272,12.236h14.956
	c3.272,0,5.807,2.862,5.412,6.11l-6.908,56.825c-0.964,7.931,9.736,11.354,13.555,4.337l27.62-50.754
	C432.517,124.79,426.18,89.784,428.316,57.9z"/>
<g>
</g>
<g>
</g>
<g>
</g>
<g>
</g>
<g>
</g>
<g>
</g>
<g>
</g>
<g>
</g>
<g>
</g>
<g>
</g>
<g>
</g>
<g>
</g>
<g>
</g>
<g>
</g>
<g>
</g>
</svg>
