<svg height="512pt" fill="#FFE400" viewBox="-80 0 512 512" width="512pt" xmlns="http://www.w3.org/2000/svg"><path d="m336.335938 482h-17.136719v-113.53125c0-8.285156-6.714844-15-15-15h-49.265625v-129.601562c0-8.285157-6.714844-15-15-15h-1.066406v-65.335938c0-8.28125-6.714844-15-15-15h-1.066407v-49.265625c0-8.28125-6.714843-15-15-15h-17.132812v-49.265625c0-8.285156-6.71875-15-15-15-8.285157 0-15 6.714844-15 15v49.265625h-17.136719c-8.28125 0-15 6.71875-15 15v49.269531h-1.0625c-8.285156 0-15 6.714844-15 15v65.332032h-1.066406c-8.285156 0-15 6.714843-15 15v129.601562h-49.269532c-8.28125 0-15 6.714844-15 15v113.53125h-17.132812c-8.285156 0-15 6.714844-15 15s6.714844 15 15 15h321.335938c8.28125 0 15-6.714844 15-15s-6.71875-15-15-15zm-112.46875-243.132812h1.066406v243.132812h-34.265625v-243.132812zm-65.335938-144.601563h34.269531v34.269531h-34.269531zm-16.0625 64.265625h66.398438v50.335938h-66.398438zm-80.335938 224.9375h34.269532v98.53125h-34.269532zm64.265626-144.601562h34.269531v243.132812h-34.269531zm128.535156 243.132812v-98.53125h34.265625v98.53125zm0 0"/></svg>