<?xml version="1.0" encoding="iso-8859-1"?>
<!-- Generator: Adobe Illustrator 16.0.0, SVG Export Plug-In . SVG Version: 6.00 Build 0)  -->
<!DOCTYPE svg PUBLIC "-//W3C//DTD SVG 1.1//EN" "http://www.w3.org/Graphics/SVG/1.1/DTD/svg11.dtd">
<svg version="1.1" fill="#FFE400" id="Capa_1" xmlns="http://www.w3.org/2000/svg" xmlns:xlink="http://www.w3.org/1999/xlink" x="0px" y="0px"
	 width="67.873px" height="67.873px" viewBox="0 0 67.873 67.873" style="enable-background:new 0 0 67.873 67.873;"
	 xml:space="preserve">
<g>
	<g>
		<path d="M29.166,23.822C28.352,15.234,25.026,8.196,18.409,9.5c-4.322,0.852-7.935,6.903-9.49,15.586
			c-0.883,4.945-0.067,10.661,0.962,16.108c1.23,6.519-0.495,15.575,1.451,20.901c1.583,4.334,4.084,5.684,7.077,5.773
			c2.992,0.089,6.111-1.316,7.416-5.724c2.567-8.646,0.218-13.294,0.499-21.378C26.524,34.925,29.876,31.349,29.166,23.822z"/>
		<path d="M58.954,15.743c-1.556-8.687-5.169-14.737-9.489-15.587c-6.62-1.304-9.945,5.737-10.758,14.323
			c-0.712,7.524,2.64,11.1,2.843,16.949c0.28,8.08-2.067,12.729,0.497,21.379c1.307,4.402,4.425,5.811,7.418,5.721
			c2.992-0.086,5.495-1.437,7.076-5.773c1.947-5.326,0.219-14.382,1.45-20.901C59.022,26.406,59.837,20.688,58.954,15.743z"/>
	</g>
</g>
<g>
</g>
<g>
</g>
<g>
</g>
<g>
</g>
<g>
</g>
<g>
</g>
<g>
</g>
<g>
</g>
<g>
</g>
<g>
</g>
<g>
</g>
<g>
</g>
<g>
</g>
<g>
</g>
<g>
</g>
</svg>
