<svg height="512pt" viewBox="0 0 512 512.03071" width="512pt" xmlns="http://www.w3.org/2000/svg"><path d="m62.203125 130.679688c-16.898437-11.585938-39.839844-8.417969-52.964844 7.3125-13.128906 15.734374-12.132812 38.871093 2.292969 53.421874l41.316406 41.398438zm0 0" fill="#a5a5a4"/><path d="m511.878906 406.101562c-9.160156 18.183594-21.785156 34.40625-37.164062 47.753907-44.046875 38.84375-111.226563 58.175781-187.9375 58.175781-86.15625 0-161.457032-29.835938-202.0625-74.328125-8.722656-9.417969-16.011719-20.066406-21.628906-31.601563-6.667969-13.765624-10.164063-28.847656-10.238282-44.140624v-172.402344c0-101.957032 80.59375-187.9375 182.550782-189.527344 14.789062-.273438 29.550781 1.269531 43.964843 4.589844 84.375 19.21875 144.238281 94.25 144.242188 180.789062v143.890625c-.230469 17.167969 4.0625 34.09375 12.445312 49.082031 11.652344 20.035157 36.457031 36.808594 75.828125 27.71875zm0 0" fill="#d1d4d1"/><path d="m474.714844 453.855469c-44.046875 38.84375-111.226563 58.175781-187.9375 58.175781-86.15625 0-161.457032-29.835938-202.0625-74.328125v-258.296875c-.78125-88.535156 70.359375-160.9375 158.894531-161.71875 10.769531-.015625 21.511719 1.109375 32.042969 3.351562 30.53125 6.398438 58.484375 21.695313 80.332031 43.960938 29.902344 30.566406 46.609375 71.648438 46.523437 114.40625v197.652344s0 54.996094 72.207032 76.796875zm0 0" fill="#e6e7e8"/><path d="m417.988281 256.976562 65.546875-65.546874c7.449219-7.449219 11.636719-17.554688 11.636719-28.089844s-4.1875-20.636719-11.636719-28.089844c-7.449218-7.449219-17.554687-11.632812-28.089844-11.632812-10.535156 0-20.640624 4.183593-28.089843 11.632812l-65.542969 65.546875zm0 0" fill="#d1d4d1"/><path d="m403.300781 244.722656 65.535157-65.542968c7.449218-7.453126 11.636718-17.554688 11.636718-28.089844s-4.1875-20.640625-11.636718-28.089844c-15.511719-15.507812-40.65625-15.507812-56.167969 0l-65.546875 65.542969zm0 0" fill="#e6e7e8"/><g fill="#2c3e50"><path d="m158.777344 185.410156c0 19.5-15.808594 35.308594-35.3125 35.308594-19.5 0-35.308594-15.808594-35.308594-35.308594s15.808594-35.308594 35.308594-35.308594c19.503906 0 35.3125 15.808594 35.3125 35.308594zm0 0"/><path d="m282.363281 185.410156c0 19.5-15.808593 35.308594-35.3125 35.308594-19.5 0-35.308593-15.808594-35.308593-35.308594s15.808593-35.308594 35.308593-35.308594c19.503907 0 35.3125 15.808594 35.3125 35.308594zm0 0"/><path d="m123.464844 291.339844v88.277344c0 9.75 7.90625 17.65625 17.65625 17.65625h97.105468s61.792969 8.828124 70.621094-52.96875v-105.929688c-8.828125 61.792969-70.621094 52.964844-70.621094 52.964844h-132.414062"/></g><path d="m176.433594 361.960938h52.964844c9.75 0 17.652343 7.90625 17.652343 17.65625v17.65625h-88.273437v-17.65625c0-9.75 7.902344-17.65625 17.65625-17.65625zm0 0" fill="#ff5364"/><path d="m132.292969 172.167969c0 7.3125-5.925781 13.242187-13.242188 13.242187-7.3125 0-13.238281-5.929687-13.238281-13.242187s5.925781-13.242188 13.238281-13.242188c7.316407 0 13.242188 5.929688 13.242188 13.242188zm0 0" fill="#fff"/><path d="m255.878906 172.167969c0 7.3125-5.925781 13.242187-13.238281 13.242187-7.316406 0-13.242187-5.929687-13.242187-13.242187s5.925781-13.242188 13.242187-13.242188c7.3125 0 13.238281 5.929688 13.238281 13.242188zm0 0" fill="#fff"/><path d="m247.160156 406.699219c-3.1875.007812-6.375-.195313-9.535156-.597657h-96.503906c-14.625 0-26.480469-11.859374-26.480469-26.484374v-79.449219h-8.828125c-4.875 0-8.828125-3.953125-8.828125-8.828125s3.953125-8.828125 8.828125-8.828125h132.414062c.417969 0 .835938.03125 1.253907.089843 5.382812.722657 53.308593 5.773438 60.625-45.480468.695312-4.566406 4.757812-7.847656 9.367187-7.574219 4.628906.332031 8.210938 4.1875 8.199219 8.828125v105.929688c.003906.421874-.027344.839843-.085937 1.253906-6.976563 48.792968-44.746094 61.140625-70.425782 61.140625zm-114.867187-106.53125v79.449219c0 4.875 3.953125 8.828124 8.828125 8.828124h97.105468c.417969-.003906.835938.027344 1.253907.085938 5.367187.714844 52.964843 5.730469 60.539062-44.867188v-64.3125c-7.421875 7.875-16.710937 13.738282-27.003906 17.054688-11.390625 3.660156-23.40625 4.9375-35.3125 3.761719zm0 0" fill="#a5a5a4"/></svg>