<?xml version="1.0" encoding="iso-8859-1"?>
<!-- Generator: Adobe Illustrator 19.0.0, SVG Export Plug-In . SVG Version: 6.00 Build 0)  -->
<svg version="1.1" id="Layer_1" xmlns="http://www.w3.org/2000/svg" xmlns:xlink="http://www.w3.org/1999/xlink" x="0px" y="0px"
	 viewBox="0 0 512 512" style="enable-background:new 0 0 512 512;" xml:space="preserve">
<g>
	<g>
		<path d="M437.713,0H74.284c-8.75,0-15.843,7.094-15.843,15.843v197.159c0,13.705,2.014,27.328,5.984,40.495l23.246,76.974V446.38
			c0,1.361,0.043,2.728,0.125,4.034c0.282,4.65,1.063,9.157,2.262,13.488C94.659,491.295,118.612,512,146.94,512h6.337h7.509h67.426
			h55.576h67.426h7.509h6.337c28.311,0,52.25-20.681,56.872-48.049c1.202-4.336,1.987-8.851,2.27-13.507
			c0.084-1.337,0.127-2.703,0.127-4.064V330.471l23.247-76.979c3.97-13.162,5.982-26.783,5.982-40.49V15.843
			C453.555,7.094,446.462,0,437.713,0z M144.942,479.238c-11.191-2.844-20.217-11.253-23.841-22.205
			c-0.017-0.166-0.051-0.33-0.065-0.497V270.684c0-6.586,5.358-11.944,11.945-11.944c6.595,0,11.961,5.358,11.961,11.944V479.238z
			 M267.944,480.315h-23.891V270.686c0-6.586,5.358-11.944,11.945-11.944c6.587,0,11.945,5.358,11.945,11.944V480.315z
			 M390.961,456.537c-0.014,0.177-0.049,0.347-0.068,0.523c-3.626,10.935-12.649,19.336-23.838,22.178V270.684
			c0-6.586,5.358-11.944,11.945-11.944c6.595,0,11.961,5.358,11.961,11.944V456.537z M421.87,213.002
			c0,10.603-1.559,21.15-4.631,31.335l-1.063,3.52c-7.692-12.47-21.476-20.801-37.176-20.801c-24.059,0-43.63,19.572-43.63,43.629
			v209.629h-35.741V270.685c0-24.059-19.572-43.629-43.63-43.629s-43.63,19.572-43.63,43.629v209.629h-35.741V270.685
			c0-24.059-19.58-43.629-43.646-43.629c-15.694,0-29.474,8.33-37.162,20.798l-1.061-3.512c-3.073-10.192-4.632-20.736-4.632-31.34
			v-75.821h227.306c8.75,0,15.843-7.094,15.843-15.843s-7.093-15.843-15.843-15.843H90.127V31.685H421.87V213.002z"/>
	</g>
</g>
<g>
	<g>
		<path d="M380.489,118.25c-0.206-1.014-0.507-2.014-0.903-2.963c-0.396-0.966-0.887-1.884-1.458-2.739
			c-0.57-0.873-1.236-1.681-1.964-2.41s-1.537-1.394-2.408-1.964c-0.856-0.569-1.774-1.061-2.741-1.458
			c-0.951-0.396-1.949-0.713-2.963-0.901c-5.133-1.046-10.615,0.648-14.29,4.323c-0.729,0.729-1.394,1.537-1.98,2.41
			c-0.57,0.856-1.061,1.773-1.458,2.739c-0.396,0.951-0.697,1.949-0.887,2.963c-0.206,1.014-0.317,2.06-0.317,3.089
			c0,1.028,0.111,2.075,0.317,3.089c0.189,1.012,0.507,2.01,0.887,2.977c0.396,0.951,0.887,1.869,1.458,2.725
			c0.586,0.871,1.252,1.679,1.98,2.408c2.947,2.947,7.034,4.643,11.201,4.643c1.03,0,2.075-0.097,3.089-0.301
			c1.014-0.206,2.012-0.523,2.963-0.919c0.966-0.396,1.885-0.887,2.741-1.458c0.871-0.569,1.679-1.236,2.408-1.964
			s1.394-1.537,1.964-2.408c0.57-0.855,1.061-1.774,1.458-2.725c0.396-0.966,0.697-1.964,0.903-2.978
			c0.206-1.016,0.317-2.061,0.317-3.089C380.806,120.31,380.695,119.263,380.489,118.25z"/>
	</g>
</g>
<g>
</g>
<g>
</g>
<g>
</g>
<g>
</g>
<g>
</g>
<g>
</g>
<g>
</g>
<g>
</g>
<g>
</g>
<g>
</g>
<g>
</g>
<g>
</g>
<g>
</g>
<g>
</g>
<g>
</g>
</svg>
