<svg height="511pt" viewBox="0 -81 511.99951 511" width="511pt" xmlns="http://www.w3.org/2000/svg"><path d="m24.351562 338.515625 27.003907-6.09375c2.25-.511719 4.570312-.625 6.859375-.335937l95.730468 11.941406c67.773438 8.457031 136.332032 8.457031 204.101563 0l99.195313-12.375 30.40625 6.863281c14.976562 3.382813 27.992187-10.71875 23.421874-25.375l-8.796874-28.230469c-.597657-1.917968-.902344-3.917968-.902344-5.929687v-207.097657c0-2.011718.304687-4.011718.902344-5.933593l8.796874-28.226563c4.570313-14.65625-8.445312-28.757812-23.421874-25.375l-30.40625 6.863282v.007812l-99.195313-12.378906c-67.773437-8.453125-136.332031-8.453125-204.101563 0l-99.1875 12.375v-.003906l-30.40625-6.867188c-14.976562-3.378906-27.992187 10.722656-23.425781 25.378906l8.792969 28.203125c.597656 1.921875.902344 3.921875.902344 5.933594v207.144531c0 2.007813-.304688 4.007813-.902344 5.929688l-8.792969 28.203125c-4.566406 14.660156 8.449219 28.761719 23.425781 25.378906zm0 0" fill="#f2f3f3"/><path d="m511.074219 313.140625-8.796875-28.230469c-.597656-1.917968-.902344-3.917968-.902344-5.929687v-123.808594c-41.371094 15.796875-5.335938 175.824219-41.738281 153.160156-36.398438-22.667969-342.714844-6.867187-372.246094-27.605469-29.535156-20.734374-91.347656-223.765624 47.386719-247.804687s272.671875-19.917969 272.671875-19.917969l-49.402344-6.164062c-67.769531-8.453125-136.328125-8.453125-204.101563 0l-99.1875 12.375v-.003906l-30.40625-6.867188c-14.976562-3.378906-27.992187 10.722656-23.425781 25.378906l8.792969 28.203125c.597656 1.921875.902344 3.921875.902344 5.933594v207.144531c0 2.007813-.304688 4.007813-.902344 5.929688l-8.792969 28.203125c-4.566406 14.65625 8.449219 28.757812 23.425781 25.378906l27.003907-6.097656c2.25-.507813 4.570312-.621094 6.859375-.335938l95.730468 11.945313c67.769532 8.453125 136.328126 8.453125 204.101563 0l99.195313-12.375 30.40625 6.863281c1.09375.246094 2.179687.390625 3.246093.457031l20.371094-25.128906c-.0625-.234375-.121094-.46875-.191406-.703125zm0 0" fill="#e8e9ea"/><g fill="#4a5359"><path d="m190.386719 172.445312c-9.207031 0-17.777344-4.960937-22.371094-12.949218-2.0625-3.589844-.828125-8.175782 2.761719-10.242188 3.59375-2.0625 8.175781-.828125 10.242187 2.765625 1.925781 3.347657 5.515625 5.425781 9.367188 5.425781 3.855469 0 7.445312-2.078124 9.367187-5.425781 2.066406-3.589843 6.648438-4.828125 10.242188-2.761719 3.589844 2.0625 4.828125 6.648438 2.761718 10.238282-4.59375 7.988281-13.164062 12.949218-22.371093 12.949218zm0 0"/><path d="m321.613281 172.445312c-9.203125 0-17.777343-4.960937-22.371093-12.949218-2.0625-3.589844-.828126-8.175782 2.765624-10.242188 3.589844-2.0625 8.175782-.824218 10.238282 2.765625 1.925781 3.347657 5.515625 5.425781 9.367187 5.425781 3.855469 0 7.441407-2.078124 9.367188-5.425781 2.066406-3.589843 6.652343-4.828125 10.242187-2.761719 3.589844 2.0625 4.828125 6.648438 2.761719 10.238282-4.589844 7.988281-13.164063 12.949218-22.371094 12.949218zm0 0"/><path d="m256 196.363281c-9.785156 0-17.71875-7.933593-17.71875-17.71875v-13.289062h35.4375v13.289062c0 9.785157-7.933594 17.71875-17.71875 17.71875zm0 0"/></g><path d="m327.464844 195.816406h-11.699219c-4.144531 0-7.5-3.359375-7.5-7.5 0-4.144531 3.355469-7.5 7.5-7.5h11.699219c4.140625 0 7.5 3.355469 7.5 7.5 0 4.140625-3.359375 7.5-7.5 7.5zm0 0" fill="#f27f6f"/><path d="m196.234375 195.816406h-11.695313c-4.144531 0-7.5-3.359375-7.5-7.5 0-4.144531 3.355469-7.5 7.5-7.5h11.695313c4.144531 0 7.5 3.355469 7.5 7.5 0 4.140625-3.355469 7.5-7.5 7.5zm0 0" fill="#f27f6f"/></svg>