<svg height="480pt" viewBox="0 0 480.00284 480" width="480pt" xmlns="http://www.w3.org/2000/svg"><path d="m478.6875 467.609375-168-256c-1.476562-2.253906-3.992188-3.609375-6.6875-3.609375h-128c-2.691406 0-5.207031 1.355469-6.6875 3.609375l-168 256c-1.613281 2.457031-1.75 5.605469-.351562 8.191406 1.394531 2.589844 4.101562 4.199219 7.039062 4.199219h464c2.941406 0 5.644531-1.609375 7.042969-4.199219 1.398437-2.585937 1.261719-5.734375-.355469-8.191406zm-298.367188-243.609375h7.738282l-125.65625 240h-39.578125zm67.679688 240v-32h-16v32h-151.503906l125.601562-240h25.902344v8h16v-8h25.882812l125.597657 240zm169.601562 0-125.601562-240h7.738281l157.4375 240zm0 0"/><path d="m232 240h16v16h-16zm0 0"/><path d="m232 272h16v24h-16zm0 0"/><path d="m232 312h16v32h-16zm0 0"/><path d="m232 368h16v40h-16zm0 0"/><path d="m240 192c2.375.003906 4.625-1.050781 6.144531-2.871094 6.738281-8.070312 65.855469-79.960937 65.855469-117.128906 0-39.761719-32.234375-72-72-72-39.761719 0-72 32.238281-72 72 0 37.167969 59.121094 109.058594 65.855469 117.128906 1.523437 1.820313 3.773437 2.875 6.144531 2.871094zm0-176c30.914062.042969 55.960938 25.089844 56 56 0 23.847656-36.09375 74.242188-56 99.3125-19.910156-25.0625-56-75.4375-56-99.3125.042969-30.910156 25.089844-55.957031 56-56zm0 0"/><path d="m272 64c0-17.671875-14.324219-32-32-32-17.671875 0-32 14.328125-32 32 0 17.675781 14.328125 32 32 32 17.675781 0 32-14.324219 32-32zm-48 0c0-8.835938 7.164062-16 16-16 8.839844 0 16 7.164062 16 16 0 8.839844-7.160156 16-16 16-8.835938 0-16-7.160156-16-16zm0 0"/></svg>