<svg id="Layer_1" height="512" viewBox="0 0 512 512" width="512" xmlns="http://www.w3.org/2000/svg" xmlns:xlink="http://www.w3.org/1999/xlink" data-name="Layer 1"><linearGradient id="linear-gradient" gradientUnits="userSpaceOnUse" x1="256" x2="256" y1="489.758" y2="20.462"><stop offset=".322" stop-color="#a163f5"/><stop offset=".466" stop-color="#b074ee"/><stop offset=".752" stop-color="#d8a1dd"/><stop offset=".898" stop-color="#efbad3"/></linearGradient><path d="m476 162.039h-10.006a26.029 26.029 0 0 0 -26 26v73.436h-308.318a22.219 22.219 0 0 0 -19.73-32.47h-29.7a22.093 22.093 0 0 0 -10.235 2.506v-64.511a26.029 26.029 0 0 0 -26-26h-10.011a26.029 26.029 0 0 0 -26 26v196a8.009 8.009 0 0 0 8 8h46.006a8.009 8.009 0 0 0 8-8v-41.789h367.988v41.789a8.009 8.009 0 0 0 8 8h46.006a8.009 8.009 0 0 0 8-8v-174.961a26.029 26.029 0 0 0 -26-26zm-393.759 78.966h29.705a10.235 10.235 0 1 1 0 20.47h-29.7a10.235 10.235 0 1 1 0-20.47zm-22.235 117.995h-38.006v-192a14.015 14.015 0 0 1 14-14h10.006a14.015 14.015 0 0 1 14 14zm12-49.789v-35.736h367.988v35.736zm417.994 49.789h-38.006v-170.961a14.015 14.015 0 0 1 14-14h10.006a14.015 14.015 0 0 1 14 14z" fill="url(#linear-gradient)"/></svg>