<svg height="511pt" viewBox="0 -121 511.99862 511" width="511pt" xmlns="http://www.w3.org/2000/svg"><path d="m406.679688 116.78125s65.914062 30.871094 85.085937 38.714844v33.589844l-89.367187 47.238281h-217.835938l-172.609375-150.148438c10.738281-28.769531 26.519531-44.394531 37.457031-52.300781 6.203125-4.484375 14.832032-3.082031 19.449219 3.019531 35.59375 46.972657 82.183594 37.457031 108.972656 26.132813 12.75-5.390625 19.738281-19.195313 16.625-32.6875h35.972657l66.484374 63.742187zm0 0" fill="#d7ecec"/><path d="m36.507812 107.535156c1.792969-7.8125 3.9375-14.921875 6.347657-21.359375 8.222656-22.019531 19.394531-36.335937 29.089843-45.386719-.007812-.011718-.019531-.023437-.027343-.035156-1.054688-1.257812-2.070313-2.550781-3.058594-3.855468-1.441406-1.910157-3.277344-3.355469-5.308594-4.308594-4.097656-1.925782-9.023437-1.761719-12.949219.515625-5.136718 2.976562-9.742187 7.601562-13.785156 11.878906-3.273437 3.464844-6.640625 7.527344-9.941406 12.273437-5.363281 7.714844-10.558594 17.234376-14.921875 28.917969zm0 0" fill="#d9d9d9"/><path d="m118.089844 163.585938-20.109375 18.800781-78.335938-8.9375-19.5859372-9.277344v-3.429687c0-31.460938 4.8750002-55.804688 11.8945312-74.566407l50.714844 17.925781c6.335937 2.246094 12.398437 5.226563 18.046875 8.875 7.617187 4.917969 14.378906 10.96875 20.046875 17.90625 5.679687 6.933594 10.277343 14.75 13.585937 23.191407zm0 0" fill="#f05e71"/><path d="m406.679688 116.769531v.011719s-13.90625 56.667969-65.445313 33.476562c-45.320313-20.386718-64.730469-33.210937-100.640625-24.449218-10.328125 2.515625-21.222656-.351563-28.863281-7.742188h-.007813c-6.183594-5.976562-9.378906-14.027344-9.378906-22.148437 0-5.886719 1.679688-11.800781 5.121094-16.996094 7.742187-11.691406 6.542968-27.152344-2.90625-37.511719l-10.101563-11.066406c-2.011719-8.710938 1.792969-17.730469 9.441407-22.367188l5.296874-3.226562c11.511719-6.980469 26.273438-5.226562 35.839844 4.246094 43.3125 42.886718 107.21875 80.4375 161.644532 107.773437zm0 0" fill="#f05e71"/><path d="m255.019531 74.535156c-3.734375.355469-7.609375-.640625-10.828125-3.089844-6.796875-5.175781-8.109375-14.875-2.9375-21.667968l21.621094-28.398438c5.171875-6.792968 14.875-8.109375 21.667969-2.9375 6.796875 5.175782 8.109375 14.875 2.9375 21.667969l-21.621094 28.398437c-2.722656 3.574219-6.695313 5.632813-10.839844 6.027344zm0 0" fill="#d7ecec"/><path d="m303.902344 109.53125c-3.738282.355469-7.609375-.640625-10.832032-3.089844-6.792968-5.175781-8.109374-14.875-2.933593-21.667968l21.621093-28.398438c5.171876-6.792969 14.871094-8.109375 21.667969-2.9375 6.792969 5.175781 8.109375 14.875 2.933594 21.667969l-21.621094 28.398437c-2.71875 3.574219-6.695312 5.628906-10.835937 6.027344zm0 0" fill="#d7ecec"/><path d="m30.851562 174.730469c-.03125-5.09375.109376-10.066407.109376-14.066407.007812-26.234374 3.410156-47.503906 8.613281-64.722656l-27.621094-9.765625c-1.261719 3.378907-2.457031 6.949219-3.566406 10.695313-4.003907 13.539062-6.3125 27.5-7.453125 41.558594-.695313 8.570312-.8750002 17.148437-.8750002 25.746093l19.5859372 9.273438zm0 0" fill="#e85066"/><path d="m472.675781 167.542969c-35.746093 21.347656-87.417969 45.414062-138.65625 45.414062-92.074219 0-131.933593-66.648437-333.9609372-48.78125v11.789063c0 4.390625.5859372 8.691406 1.6992182 12.804687l132.75 70.335938c28.140626 3.277343 109.34375 10.894531 256.542969 10.894531 3.898438 0 7.679688-.132812 11.347657-.378906l70.277343-45.683594 23.171875-35.167969zm0 0" fill="#7bcbd7"/><path d="m493.550781 156.226562c-.589843-.238281-1.175781-.484374-1.785156-.734374-5.667969 3.785156-12.070313 7.867187-19.089844 12.050781v19.25c0 8.148437-3.511719 15.894531-9.640625 21.265625-6.148437 5.390625-15.726562 12.335937-30.0625 19.503906-17.542968 8.773438-26.292968 27.5-30.574218 42.054688 72.308593-4.976563 99.972656-56.90625 107.382812-74.738282 1.476562-3.558594 2.21875-7.382812 2.21875-11.234375 0-12.039062-7.296875-22.882812-18.449219-27.417969zm0 0" fill="#5c5766"/><path d="m36.988281 207.433594c-1.851562-5.027344-3.3125-9.742188-4.328125-13.515625-2.351562-8.742188-1.769531-22.496094-1.707031-31.898438-9.863281.496094-20.144531 1.203125-30.8945312 2.15625 0 7.421875-.4492188 14.925781 1.1445312 22.230469.171875.792969.347656 1.582031.554687 2.363281zm0 0" fill="#44b3e3"/><path d="m134.507812 259.105469c-2-.238281-3.730468-.441407-5.203124-.628907-4.023438-.515624-7.949219-1.515624-11.722657-2.988281l-86.273437-33.738281c-14.761719-5.769531-25.5625-18.160156-29.550782-32.980469h19.460938c15.503906 0 30.839844 3.132813 45.09375 9.214844l9.125 3.894531c26.230469 11.191406 47.199219 31.664063 59.070312 57.226563zm0 0" fill="#5c5766"/><path d="m43.34375 226.457031 2.988281 1.167969c-6.550781-11.050781-11.308593-24.925781-13.671875-33.707031-.382812-1.429688-.683594-3.003907-.925781-4.660157-3.488281-.320312-6.996094-.492187-10.515625-.492187h-19.460938c3.347657 12.4375 11.503907 23.144531 22.757813 29.683594 2.160156 1.253906 4.417969 2.371093 6.792969 3.300781zm0 0" fill="#514e5b"/></svg>