<svg height="512pt" viewBox="-65 0 512 512" width="512pt" xmlns="http://www.w3.org/2000/svg"><path d="m202.757812 4.519531c-6.246093-6.027343-16.179687-6.027343-22.421874 0-277.304688 267.761719-203.71875 507.480469 11.210937 507.480469 214.925781 0 288.515625-239.71875 11.210937-507.480469zm0 0" fill="#59c2e7"/><path d="m222.449219 481.09375c-206.972657 0-282.863281-222.3125-40.542969-477.890625-.542969.40625-1.074219.835937-1.570312 1.316406-277.304688 267.761719-203.71875 507.480469 11.210937 507.480469 70.019531 0 125.03125-25.449219 157.800781-69.015625-32.347656 24.441406-75.589844 38.109375-126.898437 38.109375zm0 0" fill="#00acdc"/><g fill="#423e4f"><path d="m87.132812 359.070312c-4.265624 0-7.722656-3.457031-7.722656-7.726562v-18.894531c0-4.265625 3.457032-7.726563 7.722656-7.726563 4.269532 0 7.726563 3.460938 7.726563 7.726563v18.894531c0 4.269531-3.457031 7.726562-7.726563 7.726562zm0 0"/><path d="m295.957031 359.070312c-4.269531 0-7.726562-3.457031-7.726562-7.726562v-18.894531c0-4.265625 3.457031-7.726563 7.726562-7.726563 4.265625 0 7.726563 3.460938 7.726563 7.726563v18.894531c0 4.269531-3.460938 7.726562-7.726563 7.726562zm0 0"/><path d="m191.546875 369.15625c-12.273437 0-23.789063-5.117188-31.585937-14.042969-2.8125-3.210937-2.480469-8.09375.730468-10.902343 3.210938-2.808594 8.09375-2.480469 10.902344.734374 4.867188 5.566407 12.136719 8.761719 19.953125 8.761719 7.8125 0 15.085937-3.195312 19.953125-8.761719 2.808594-3.214843 7.6875-3.539062 10.902344-.734374 3.210937 2.808593 3.539062 7.691406.730468 10.902343-7.800781 8.925781-19.316406 14.042969-31.585937 14.042969zm0 0"/></g></svg>