<?xml version="1.0" ?><svg enable-background="new 0 0 64 64" id="Layer_1_1_" version="1.1" viewBox="0 0 64 64" xml:space="preserve" xmlns="http://www.w3.org/2000/svg" xmlns:xlink="http://www.w3.org/1999/xlink"><g><g><rect fill="#333333" height="2" width="8" x="28" y="6"/></g><g><path d="M41,44H23c-1.7,0-3-1.3-3-3v-4c0-1.7,1.3-3,3-3h18c1.7,0,3,1.3,3,3v4C44,42.7,42.7,44,41,44z M23,36    c-0.6,0-1,0.4-1,1v4c0,0.6,0.4,1,1,1h18c0.6,0,1-0.4,1-1v-4c0-0.6-0.4-1-1-1H23z" fill="#333333"/></g><g><rect fill="#333333" height="9" width="2" x="22" y="26"/></g><g><rect fill="#333333" height="9" width="2" x="40" y="26"/></g><g><path d="M41,52H23c-1.7,0-3-1.3-3-3v-4c0-1.7,1.3-3,3-3h18c1.7,0,3,1.3,3,3v4C44,50.7,42.7,52,41,52z M23,44    c-0.6,0-1,0.4-1,1v4c0,0.6,0.4,1,1,1h18c0.6,0,1-0.4,1-1v-4c0-0.6-0.4-1-1-1H23z" fill="#333333"/></g><g><path d="M38,63H26c-3.5,0-6-2.5-6-6v-4c0-1.7,1.3-3,3-3h18c1.7,0,3,1.3,3,3v4C44,60.5,41.5,63,38,63z M23,52    c-0.6,0-1,0.4-1,1v4c0,2.4,1.6,4,4,4h12c2.4,0,4-1.6,4-4v-4c0-0.6-0.4-1-1-1H23z" fill="#333333"/></g><g><path d="M40,27H24c-1.6,0-4-1.4-4-4v-3c0-3.4,2.3-6.6,4.5-7.9l2.5-1.7V3c0-1.1,0.9-2,2-2h6c1.1,0,2,0.9,2,2v7.5    l2.6,1.7c2.1,1.2,4.4,4.4,4.4,7.8v3C44,25.6,41.6,27,40,27z M29,3v8.5l-3.4,2.3c-1.7,1-3.6,3.6-3.6,6.2v3c0,1.4,1.4,2,2,2h16    c0.6,0,2-0.6,2-2v-3c0-2.6-1.8-5.2-3.5-6.1L35,11.5V3H29z" fill="#333333"/></g><g><path d="M25,20h-2c0-1.9,0.9-3.7,2.4-4.8c0.9-0.7,3-2,3-2l1.1,1.7c0,0-2.1,1.3-3,2C25.6,17.5,25,18.7,25,20z" fill="#333333"/></g><g><rect fill="#333333" height="2" width="2" x="23" y="21"/></g></g></svg>