<svg id="Layer_2" height="512" viewBox="0 0 128 128" width="512" xmlns="http://www.w3.org/2000/svg" xmlns:xlink="http://www.w3.org/1999/xlink" data-name="Layer 2"><linearGradient id="linear-gradient" gradientUnits="userSpaceOnUse" x1="105.274" x2="22.726" y1="109.692" y2="27.143"><stop offset="0" stop-color="#24d3b5"/><stop offset="1" stop-color="#62a6fd"/></linearGradient><path d="m90.925 39.5a1.8 1.8 0 0 0 -.458-1.181l-13.553-14.832v-8.98a4.745 4.745 0 0 0 4-4.674v-5.083a4.755 4.755 0 0 0 -4.747-4.75h-4.25a1.75 1.75 0 0 0 0 3.5h4.25a1.251 1.251 0 0 1 1.25 1.25v5.083a1.251 1.251 0 0 1 -1.25 1.25h-24.334a1.251 1.251 0 0 1 -1.25-1.25v-5.083a1.251 1.251 0 0 1 1.25-1.25h13.334a1.75 1.75 0 0 0 0-3.5h-13.334a4.755 4.755 0 0 0 -4.75 4.75v5.083a4.745 4.745 0 0 0 4 4.674v8.98l-13.549 14.828a1.8 1.8 0 0 0 -.458 1.181v27.337a1.85 1.85 0 0 0 .241.887l4.532 7.712a10.277 10.277 0 0 1 -1.227 12.126 13.793 13.793 0 0 0 -3.547 9.242v24.45a6.757 6.757 0 0 0 6.75 6.75h40.35a6.757 6.757 0 0 0 6.75-6.75v-24.45a13.8 13.8 0 0 0 -3.546-9.242 10.277 10.277 0 0 1 -1.227-12.126l4.532-7.712a1.85 1.85 0 0 0 .241-.887zm-17.511-24.917v7.833h-18.828v-7.833zm-19.806 11.334h20.784l10.808 11.829h-42.4zm-13.033 84.152h46.85v5.69h-46.85zm46.85-3.5h-46.85v-5.69h46.85zm-3.25 17.931h-40.35a3.254 3.254 0 0 1 -3.25-3.25v-1.991h46.85v1.991a3.254 3.254 0 0 1 -3.25 3.25zm-20.175-55.917h22.117l-2.982 5.076a13.764 13.764 0 0 0 1.642 16.241 10.3 10.3 0 0 1 2.648 6.9v.578h-46.85v-.578a10.3 10.3 0 0 1 2.648-6.9 13.764 13.764 0 0 0 1.643-16.241l-2.982-5.076h6.866a1.75 1.75 0 0 0 0-3.5h-8.175v-23.837h46.85v23.837h-23.425a1.75 1.75 0 1 0 0 3.5zm-5.188-1.75a1.75 1.75 0 0 1 -1.75 1.75h-1.375a1.75 1.75 0 0 1 0-3.5h1.375a1.75 1.75 0 0 1 1.75 1.75zm12.188-12.583c0-3.472-4.824-8.257-5.791-9.182a1.75 1.75 0 0 0 -2.418 0c-.967.925-5.791 5.71-5.791 9.182a7 7 0 0 0 14 0zm-10.5 0c0-1.055 1.649-3.4 3.5-5.415 1.851 2.012 3.5 4.36 3.5 5.415a3.5 3.5 0 0 1 -7 0z" fill="url(#linear-gradient)"/></svg>