<svg height="512pt" viewBox="0 -80 512.00017 512" width="512pt" xmlns="http://www.w3.org/2000/svg"> <path d="m497 16.066406h-16.066406c-3.980469 0-7.792969 1.582032-10.605469 4.394532l-75.941406 75.9375h-14.207031l-13.226563-52.902344c-1.667969-6.679688-7.667969-11.363282-14.550781-11.363282h-33.199219v-17.132812c0-8.285156-6.71875-15-15-15h-257.070313c-6.457031 0-12.1875 4.132812-14.230468 10.257812l-32.132813 96.398438c-.738281 2.207031-.949219 4.558594-.617187 6.863281l16.066406 112.46875c.5625 3.9375 2.667969 7.492188 5.847656 9.878907l64.269532 48.199218c2.59375 1.945313 5.753906 3 9 3h58.050781l11.671875 11.671875c2.816406 2.8125 6.628906 4.394531 10.609375 4.394531h24.105469l27.679687 41.519532c2.78125 4.171875 7.464844 6.679687 12.480469 6.679687h32.132812c6.457032 0 12.1875-4.128906 14.230469-10.257812l12.648437-37.941407h13.289063c5.679687 0 10.875-3.210937 13.414063-8.292968l3.890624-7.773438h48.78125l43.808594 43.808594c5.855469 5.855469 15.351563 5.855469 21.210938 0l32.132812-32.136719c5.058594-5.054687 5.839844-12.976562 1.875-18.925781l-21.175781-31.765625c-2.398437-3.597656-1.921875-8.417969 1.136719-11.476563l18.164062-18.164062c2.8125-2.8125 4.394532-6.628906 4.394532-10.605469v-44.660156l30.550781-61.097656c1.042969-2.085938 1.582031-4.382813 1.582031-6.710938v-64.265625c0-8.285156-6.714844-15-15-15zm-15 75.726563-30.550781 61.097656c-1.042969 2.085937-1.582031 4.378906-1.582031 6.710937v41.984376l-13.765626 13.765624c-13.144531 13.132813-15.199218 33.882813-4.890624 49.335938l14.355468 21.535156-12.832031 12.832032-37.59375-37.59375c-2.8125-2.8125-6.628906-4.394532-10.609375-4.394532h-64.265625c-5.679687 0-10.875 3.210938-13.417969 8.292969l-3.886718 7.773437h-14.828126c-6.457031 0-12.1875 4.132813-14.230468 10.257813l-12.648438 37.945313h-13.292968l-27.679688-41.523438c-2.78125-4.171875-7.464844-6.679688-12.480469-6.679688h-25.921875l-11.671875-11.671874c-2.8125-2.8125-6.628906-4.394532-10.605469-4.394532h-59.269531l-55.292969-41.472656-14.6875-102.808594 27.59375-82.785156h231.253907v17.132812c0 8.285157 6.71875 15 15 15h36.488281l13.226562 52.90625c1.667969 6.675782 7.667969 11.359376 14.550782 11.359376h32.136718c3.976563 0 7.792969-1.578126 10.605469-4.390626l70.792969-70.796874zm0 0"/></svg>
